<svg xmlns="http://www.w3.org/2000/svg"
    width="1024" height="128"
    viewBox="0 0 1024 128"
    role="img" aria-label="Core bulkhead door sprite sheet">
    <defs>
  <linearGradient id="body" x1="0" y1="0" x2="0.9" y2="1">
    <stop offset="0" stop-color="#aec5ba"/>
    <stop offset="0.48" stop-color="#58766a"/>
    <stop offset="1" stop-color="#263a33"/>
  </linearGradient>
  <linearGradient id="shell" x1="0.12" y1="0" x2="0.84" y2="1">
    <stop offset="0" stop-color="#aec5ba"/>
    <stop offset="0.22" stop-color="#58766a"/>
    <stop offset="0.7" stop-color="#263a33"/>
    <stop offset="1" stop-color="#111c1a"/>
  </linearGradient>
  <radialGradient id="glow">
    <stop offset="0" stop-color="#ffffff" stop-opacity="0.96"/>
    <stop offset="0.28" stop-color="#ffe6a1" stop-opacity="0.9"/>
    <stop offset="1" stop-color="#d6af61" stop-opacity="0"/>
  </radialGradient>
  <filter id="shadow" x="-40%" y="-40%" width="180%" height="190%">
    <feDropShadow dx="0" dy="2.5" stdDeviation="2.4" flood-color="#020908" flood-opacity="0.76"/>
  </filter>
  <filter id="soft-glow" x="-70%" y="-70%" width="240%" height="240%">
    <feGaussianBlur stdDeviation="2.2" result="blur"/>
    <feMerge><feMergeNode in="blur"/><feMergeNode in="SourceGraphic"/></feMerge>
  </filter>
  <clipPath id="frame-clip"><rect width="128" height="128"/></clipPath></defs>
    <g transform="translate(0 0)" clip-path="url(#frame-clip)">
      <g filter="url(#shadow)">
    <path d="M16 113 V30 L31 10 H97 L112 30 V113Z" fill="#171b14" stroke="#746a3f" stroke-width="4"/>
    <path d="M26 108 V37 L39 23 H89 L102 37 V108Z" fill="#030605" stroke="#a99a61" stroke-width="2"/>
    <path d="M16.00 31 H63.00 V108 H16.00Z" fill="url(#shell)" stroke="#13201c" stroke-width="2.4" stroke-linecap="round" stroke-linejoin="round"/>
    <path d="M65.00 31 H112.00 V108 H65.00Z" fill="url(#shell)" stroke="#13201c" stroke-width="2.4" stroke-linecap="round" stroke-linejoin="round"/>
    <path d="M58.00 36 V103 M70.00 36 V103" stroke="#e4c86a" stroke-width="3" opacity=".9"/>
    <path d="M20 94 H34 M94 94 H108 M22 51 H32 M96 51 H106" stroke="#b89b56" stroke-width="4"/>
    <circle cx="23" cy="35" r="2" fill="#e4c86a" stroke="#15201c" stroke-width="1"/><circle cx="105" cy="35" r="2" fill="#e4c86a" stroke="#15201c" stroke-width="1"/><circle cx="23" cy="105" r="2" fill="#e4c86a" stroke="#15201c" stroke-width="1"/><circle cx="105" cy="105" r="2" fill="#e4c86a" stroke="#15201c" stroke-width="1"/>
    <circle cx="64" cy="18" r="6" fill="#db6f4f" stroke="#28271a" stroke-width="2"/>
  </g>
    </g>
<g transform="translate(128 0)" clip-path="url(#frame-clip)">
      <g filter="url(#shadow)">
    <path d="M16 113 V30 L31 10 H97 L112 30 V113Z" fill="#171b14" stroke="#746a3f" stroke-width="4"/>
    <path d="M26 108 V37 L39 23 H89 L102 37 V108Z" fill="#030605" stroke="#a99a61" stroke-width="2"/>
    <path d="M16.00 31 H57.14 V108 H16.00Z" fill="url(#shell)" stroke="#13201c" stroke-width="2.4" stroke-linecap="round" stroke-linejoin="round"/>
    <path d="M70.86 31 H112.00 V108 H70.86Z" fill="url(#shell)" stroke="#13201c" stroke-width="2.4" stroke-linecap="round" stroke-linejoin="round"/>
    <path d="M52.14 36 V103 M75.86 36 V103" stroke="#e4c86a" stroke-width="3" opacity=".9"/>
    <path d="M20 94 H34 M94 94 H108 M22 51 H32 M96 51 H106" stroke="#b89b56" stroke-width="4"/>
    <circle cx="23" cy="35" r="2" fill="#e4c86a" stroke="#15201c" stroke-width="1"/><circle cx="105" cy="35" r="2" fill="#e4c86a" stroke="#15201c" stroke-width="1"/><circle cx="23" cy="105" r="2" fill="#e4c86a" stroke="#15201c" stroke-width="1"/><circle cx="105" cy="105" r="2" fill="#e4c86a" stroke="#15201c" stroke-width="1"/>
    <circle cx="64" cy="18" r="6" fill="#db6f4f" stroke="#28271a" stroke-width="2"/>
  </g>
    </g>
<g transform="translate(256 0)" clip-path="url(#frame-clip)">
      <g filter="url(#shadow)">
    <path d="M16 113 V30 L31 10 H97 L112 30 V113Z" fill="#171b14" stroke="#746a3f" stroke-width="4"/>
    <path d="M26 108 V37 L39 23 H89 L102 37 V108Z" fill="#030605" stroke="#a99a61" stroke-width="2"/>
    <path d="M16.00 31 H51.29 V108 H16.00Z" fill="url(#shell)" stroke="#13201c" stroke-width="2.4" stroke-linecap="round" stroke-linejoin="round"/>
    <path d="M76.71 31 H112.00 V108 H76.71Z" fill="url(#shell)" stroke="#13201c" stroke-width="2.4" stroke-linecap="round" stroke-linejoin="round"/>
    <path d="M46.29 36 V103 M81.71 36 V103" stroke="#e4c86a" stroke-width="3" opacity=".9"/>
    <path d="M20 94 H34 M94 94 H108 M22 51 H32 M96 51 H106" stroke="#b89b56" stroke-width="4"/>
    <circle cx="23" cy="35" r="2" fill="#e4c86a" stroke="#15201c" stroke-width="1"/><circle cx="105" cy="35" r="2" fill="#e4c86a" stroke="#15201c" stroke-width="1"/><circle cx="23" cy="105" r="2" fill="#e4c86a" stroke="#15201c" stroke-width="1"/><circle cx="105" cy="105" r="2" fill="#e4c86a" stroke="#15201c" stroke-width="1"/>
    <circle cx="64" cy="18" r="6" fill="#db6f4f" stroke="#28271a" stroke-width="2"/>
  </g>
    </g>
<g transform="translate(384 0)" clip-path="url(#frame-clip)">
      <g filter="url(#shadow)">
    <path d="M16 113 V30 L31 10 H97 L112 30 V113Z" fill="#171b14" stroke="#746a3f" stroke-width="4"/>
    <path d="M26 108 V37 L39 23 H89 L102 37 V108Z" fill="#030605" stroke="#a99a61" stroke-width="2"/>
    <path d="M16.00 31 H45.43 V108 H16.00Z" fill="url(#shell)" stroke="#13201c" stroke-width="2.4" stroke-linecap="round" stroke-linejoin="round"/>
    <path d="M82.57 31 H112.00 V108 H82.57Z" fill="url(#shell)" stroke="#13201c" stroke-width="2.4" stroke-linecap="round" stroke-linejoin="round"/>
    <path d="M40.43 36 V103 M87.57 36 V103" stroke="#e4c86a" stroke-width="3" opacity=".9"/>
    <path d="M20 94 H34 M94 94 H108 M22 51 H32 M96 51 H106" stroke="#b89b56" stroke-width="4"/>
    <circle cx="23" cy="35" r="2" fill="#e4c86a" stroke="#15201c" stroke-width="1"/><circle cx="105" cy="35" r="2" fill="#e4c86a" stroke="#15201c" stroke-width="1"/><circle cx="23" cy="105" r="2" fill="#e4c86a" stroke="#15201c" stroke-width="1"/><circle cx="105" cy="105" r="2" fill="#e4c86a" stroke="#15201c" stroke-width="1"/>
    <circle cx="64" cy="18" r="6" fill="#db6f4f" stroke="#28271a" stroke-width="2"/>
  </g>
    </g>
<g transform="translate(512 0)" clip-path="url(#frame-clip)">
      <g filter="url(#shadow)">
    <path d="M16 113 V30 L31 10 H97 L112 30 V113Z" fill="#171b14" stroke="#746a3f" stroke-width="4"/>
    <path d="M26 108 V37 L39 23 H89 L102 37 V108Z" fill="#030605" stroke="#a99a61" stroke-width="2"/>
    <path d="M16.00 31 H39.57 V108 H16.00Z" fill="url(#shell)" stroke="#13201c" stroke-width="2.4" stroke-linecap="round" stroke-linejoin="round"/>
    <path d="M88.43 31 H112.00 V108 H88.43Z" fill="url(#shell)" stroke="#13201c" stroke-width="2.4" stroke-linecap="round" stroke-linejoin="round"/>
    <path d="M34.57 36 V103 M93.43 36 V103" stroke="#e4c86a" stroke-width="3" opacity=".9"/>
    <path d="M20 94 H34 M94 94 H108 M22 51 H32 M96 51 H106" stroke="#b89b56" stroke-width="4"/>
    <circle cx="23" cy="35" r="2" fill="#e4c86a" stroke="#15201c" stroke-width="1"/><circle cx="105" cy="35" r="2" fill="#e4c86a" stroke="#15201c" stroke-width="1"/><circle cx="23" cy="105" r="2" fill="#e4c86a" stroke="#15201c" stroke-width="1"/><circle cx="105" cy="105" r="2" fill="#e4c86a" stroke="#15201c" stroke-width="1"/>
    <circle cx="64" cy="18" r="6" fill="#d9f47b" stroke="#28271a" stroke-width="2"/>
  </g>
    </g>
<g transform="translate(640 0)" clip-path="url(#frame-clip)">
      <g filter="url(#shadow)">
    <path d="M16 113 V30 L31 10 H97 L112 30 V113Z" fill="#171b14" stroke="#746a3f" stroke-width="4"/>
    <path d="M26 108 V37 L39 23 H89 L102 37 V108Z" fill="#030605" stroke="#a99a61" stroke-width="2"/>
    <path d="M16.00 31 H33.71 V108 H16.00Z" fill="url(#shell)" stroke="#13201c" stroke-width="2.4" stroke-linecap="round" stroke-linejoin="round"/>
    <path d="M94.29 31 H112.00 V108 H94.29Z" fill="url(#shell)" stroke="#13201c" stroke-width="2.4" stroke-linecap="round" stroke-linejoin="round"/>
    <path d="M28.71 36 V103 M99.29 36 V103" stroke="#e4c86a" stroke-width="3" opacity=".9"/>
    <path d="M20 94 H34 M94 94 H108 M22 51 H32 M96 51 H106" stroke="#b89b56" stroke-width="4"/>
    <circle cx="23" cy="35" r="2" fill="#e4c86a" stroke="#15201c" stroke-width="1"/><circle cx="105" cy="35" r="2" fill="#e4c86a" stroke="#15201c" stroke-width="1"/><circle cx="23" cy="105" r="2" fill="#e4c86a" stroke="#15201c" stroke-width="1"/><circle cx="105" cy="105" r="2" fill="#e4c86a" stroke="#15201c" stroke-width="1"/>
    <circle cx="64" cy="18" r="6" fill="#d9f47b" stroke="#28271a" stroke-width="2"/>
  </g>
    </g>
<g transform="translate(768 0)" clip-path="url(#frame-clip)">
      <g filter="url(#shadow)">
    <path d="M16 113 V30 L31 10 H97 L112 30 V113Z" fill="#171b14" stroke="#746a3f" stroke-width="4"/>
    <path d="M26 108 V37 L39 23 H89 L102 37 V108Z" fill="#030605" stroke="#a99a61" stroke-width="2"/>
    <path d="M16.00 31 H27.86 V108 H16.00Z" fill="url(#shell)" stroke="#13201c" stroke-width="2.4" stroke-linecap="round" stroke-linejoin="round"/>
    <path d="M100.14 31 H112.00 V108 H100.14Z" fill="url(#shell)" stroke="#13201c" stroke-width="2.4" stroke-linecap="round" stroke-linejoin="round"/>
    <path d="M22.86 36 V103 M105.14 36 V103" stroke="#e4c86a" stroke-width="3" opacity=".9"/>
    <path d="M20 94 H34 M94 94 H108 M22 51 H32 M96 51 H106" stroke="#b89b56" stroke-width="4"/>
    <circle cx="23" cy="35" r="2" fill="#e4c86a" stroke="#15201c" stroke-width="1"/><circle cx="105" cy="35" r="2" fill="#e4c86a" stroke="#15201c" stroke-width="1"/><circle cx="23" cy="105" r="2" fill="#e4c86a" stroke="#15201c" stroke-width="1"/><circle cx="105" cy="105" r="2" fill="#e4c86a" stroke="#15201c" stroke-width="1"/>
    <circle cx="64" cy="18" r="6" fill="#d9f47b" stroke="#28271a" stroke-width="2"/>
  </g>
    </g>
<g transform="translate(896 0)" clip-path="url(#frame-clip)">
      <g filter="url(#shadow)">
    <path d="M16 113 V30 L31 10 H97 L112 30 V113Z" fill="#171b14" stroke="#746a3f" stroke-width="4"/>
    <path d="M26 108 V37 L39 23 H89 L102 37 V108Z" fill="#030605" stroke="#a99a61" stroke-width="2"/>
    <path d="M16.00 31 H22.00 V108 H16.00Z" fill="url(#shell)" stroke="#13201c" stroke-width="2.4" stroke-linecap="round" stroke-linejoin="round"/>
    <path d="M106.00 31 H112.00 V108 H106.00Z" fill="url(#shell)" stroke="#13201c" stroke-width="2.4" stroke-linecap="round" stroke-linejoin="round"/>
    <path d="M17.00 36 V103 M111.00 36 V103" stroke="#e4c86a" stroke-width="3" opacity=".9"/>
    <path d="M20 94 H34 M94 94 H108 M22 51 H32 M96 51 H106" stroke="#b89b56" stroke-width="4"/>
    <circle cx="23" cy="35" r="2" fill="#e4c86a" stroke="#15201c" stroke-width="1"/><circle cx="105" cy="35" r="2" fill="#e4c86a" stroke="#15201c" stroke-width="1"/><circle cx="23" cy="105" r="2" fill="#e4c86a" stroke="#15201c" stroke-width="1"/><circle cx="105" cy="105" r="2" fill="#e4c86a" stroke="#15201c" stroke-width="1"/>
    <circle cx="64" cy="18" r="6" fill="#d9f47b" stroke="#28271a" stroke-width="2"/>
  </g>
    </g>
  </svg>
