<svg xmlns="http://www.w3.org/2000/svg"
    width="1024" height="128"
    viewBox="0 0 1024 128"
    role="img" aria-label="Sliding pressure door sprite sheet">
    <defs>
  <linearGradient id="body" x1="0" y1="0" x2="0.9" y2="1">
    <stop offset="0" stop-color="#aec5ba"/>
    <stop offset="0.48" stop-color="#58766a"/>
    <stop offset="1" stop-color="#263a33"/>
  </linearGradient>
  <linearGradient id="shell" x1="0.12" y1="0" x2="0.84" y2="1">
    <stop offset="0" stop-color="#aec5ba"/>
    <stop offset="0.22" stop-color="#58766a"/>
    <stop offset="0.7" stop-color="#263a33"/>
    <stop offset="1" stop-color="#111c1a"/>
  </linearGradient>
  <radialGradient id="glow">
    <stop offset="0" stop-color="#ffffff" stop-opacity="0.96"/>
    <stop offset="0.28" stop-color="#ffe6a1" stop-opacity="0.9"/>
    <stop offset="1" stop-color="#d6af61" stop-opacity="0"/>
  </radialGradient>
  <filter id="shadow" x="-40%" y="-40%" width="180%" height="190%">
    <feDropShadow dx="0" dy="2.5" stdDeviation="2.4" flood-color="#020908" flood-opacity="0.76"/>
  </filter>
  <filter id="soft-glow" x="-70%" y="-70%" width="240%" height="240%">
    <feGaussianBlur stdDeviation="2.2" result="blur"/>
    <feMerge><feMergeNode in="blur"/><feMergeNode in="SourceGraphic"/></feMerge>
  </filter>
  <clipPath id="frame-clip"><rect width="128" height="128"/></clipPath></defs>
    <g transform="translate(0 0)" clip-path="url(#frame-clip)">
      <g filter="url(#shadow)">
    <path d="M24 111 V36 Q24 27 34 27 H94 Q104 27 104 36 V111Z" fill="#040807"/>
    <rect x="15.00" y="30" width="47.00" height="81" rx="3" fill="url(#body)" stroke="#13201c" stroke-width="2.4" stroke-linecap="round" stroke-linejoin="round"/>
    <rect x="66.00" y="30" width="47.00" height="81" rx="3" fill="url(#body)" stroke="#13201c" stroke-width="2.4" stroke-linecap="round" stroke-linejoin="round"/>
    <path d="M57.00 35 V106 M71.00 35 V106" stroke="#d78562" stroke-width="2.5" opacity=".88"/>
    <path d="M20.00 39 H55.00 M73.00 39 H108.00" stroke="#d7e4dd" stroke-width="1.6" opacity=".38"/>
    
  <path d="M12 114 V31 L27 13 H101 L116 31 V114 H103 V35 L94 25 H34 L25 35 V114Z" fill="url(#shell)" stroke="#13201c" stroke-width="2.4" stroke-linecap="round" stroke-linejoin="round"/>
  <path d="M22 112 V35 L33 22 H95 L106 35 V112" fill="none" stroke="#b9ccc2" stroke-width="2" opacity=".5"/>
  <path d="M15 98 H30 M98 98 H113 M17 58 H27 M101 58 H111" stroke="#d78562" stroke-width="3" opacity=".78"/>
  <circle cx="22" cy="42" r="2" fill="#d9c58d" stroke="#15201c" stroke-width="1"/><circle cx="106" cy="42" r="2" fill="#d9c58d" stroke="#15201c" stroke-width="1"/><circle cx="22" cy="106" r="2" fill="#d9c58d" stroke="#15201c" stroke-width="1"/><circle cx="106" cy="106" r="2" fill="#d9c58d" stroke="#15201c" stroke-width="1"/>
    <circle cx="19" cy="29" r="4" fill="#ff9a68" stroke="#17221f" stroke-width="1.4"/>
  </g>
    </g>
<g transform="translate(128 0)" clip-path="url(#frame-clip)">
      <g filter="url(#shadow)">
    <path d="M24 111 V36 Q24 27 34 27 H94 Q104 27 104 36 V111Z" fill="#040807"/>
    <rect x="15.00" y="30" width="41.43" height="81" rx="3" fill="url(#body)" stroke="#13201c" stroke-width="2.4" stroke-linecap="round" stroke-linejoin="round"/>
    <rect x="71.57" y="30" width="41.43" height="81" rx="3" fill="url(#body)" stroke="#13201c" stroke-width="2.4" stroke-linecap="round" stroke-linejoin="round"/>
    <path d="M51.43 35 V106 M76.57 35 V106" stroke="#d78562" stroke-width="2.5" opacity=".88"/>
    <path d="M20.00 39 H49.43 M78.57 39 H108.00" stroke="#d7e4dd" stroke-width="1.6" opacity=".38"/>
    
  <path d="M12 114 V31 L27 13 H101 L116 31 V114 H103 V35 L94 25 H34 L25 35 V114Z" fill="url(#shell)" stroke="#13201c" stroke-width="2.4" stroke-linecap="round" stroke-linejoin="round"/>
  <path d="M22 112 V35 L33 22 H95 L106 35 V112" fill="none" stroke="#b9ccc2" stroke-width="2" opacity=".5"/>
  <path d="M15 98 H30 M98 98 H113 M17 58 H27 M101 58 H111" stroke="#d78562" stroke-width="3" opacity=".78"/>
  <circle cx="22" cy="42" r="2" fill="#d9c58d" stroke="#15201c" stroke-width="1"/><circle cx="106" cy="42" r="2" fill="#d9c58d" stroke="#15201c" stroke-width="1"/><circle cx="22" cy="106" r="2" fill="#d9c58d" stroke="#15201c" stroke-width="1"/><circle cx="106" cy="106" r="2" fill="#d9c58d" stroke="#15201c" stroke-width="1"/>
    <circle cx="19" cy="29" r="4" fill="#ff9a68" stroke="#17221f" stroke-width="1.4"/>
  </g>
    </g>
<g transform="translate(256 0)" clip-path="url(#frame-clip)">
      <g filter="url(#shadow)">
    <path d="M24 111 V36 Q24 27 34 27 H94 Q104 27 104 36 V111Z" fill="#040807"/>
    <rect x="15.00" y="30" width="35.86" height="81" rx="3" fill="url(#body)" stroke="#13201c" stroke-width="2.4" stroke-linecap="round" stroke-linejoin="round"/>
    <rect x="77.14" y="30" width="35.86" height="81" rx="3" fill="url(#body)" stroke="#13201c" stroke-width="2.4" stroke-linecap="round" stroke-linejoin="round"/>
    <path d="M45.86 35 V106 M82.14 35 V106" stroke="#d78562" stroke-width="2.5" opacity=".88"/>
    <path d="M20.00 39 H43.86 M84.14 39 H108.00" stroke="#d7e4dd" stroke-width="1.6" opacity=".38"/>
    
  <path d="M12 114 V31 L27 13 H101 L116 31 V114 H103 V35 L94 25 H34 L25 35 V114Z" fill="url(#shell)" stroke="#13201c" stroke-width="2.4" stroke-linecap="round" stroke-linejoin="round"/>
  <path d="M22 112 V35 L33 22 H95 L106 35 V112" fill="none" stroke="#b9ccc2" stroke-width="2" opacity=".5"/>
  <path d="M15 98 H30 M98 98 H113 M17 58 H27 M101 58 H111" stroke="#d78562" stroke-width="3" opacity=".78"/>
  <circle cx="22" cy="42" r="2" fill="#d9c58d" stroke="#15201c" stroke-width="1"/><circle cx="106" cy="42" r="2" fill="#d9c58d" stroke="#15201c" stroke-width="1"/><circle cx="22" cy="106" r="2" fill="#d9c58d" stroke="#15201c" stroke-width="1"/><circle cx="106" cy="106" r="2" fill="#d9c58d" stroke="#15201c" stroke-width="1"/>
    <circle cx="19" cy="29" r="4" fill="#ff9a68" stroke="#17221f" stroke-width="1.4"/>
  </g>
    </g>
<g transform="translate(384 0)" clip-path="url(#frame-clip)">
      <g filter="url(#shadow)">
    <path d="M24 111 V36 Q24 27 34 27 H94 Q104 27 104 36 V111Z" fill="#040807"/>
    <rect x="15.00" y="30" width="30.29" height="81" rx="3" fill="url(#body)" stroke="#13201c" stroke-width="2.4" stroke-linecap="round" stroke-linejoin="round"/>
    <rect x="82.71" y="30" width="30.29" height="81" rx="3" fill="url(#body)" stroke="#13201c" stroke-width="2.4" stroke-linecap="round" stroke-linejoin="round"/>
    <path d="M40.29 35 V106 M87.71 35 V106" stroke="#d78562" stroke-width="2.5" opacity=".88"/>
    <path d="M20.00 39 H38.29 M89.71 39 H108.00" stroke="#d7e4dd" stroke-width="1.6" opacity=".38"/>
    
  <path d="M12 114 V31 L27 13 H101 L116 31 V114 H103 V35 L94 25 H34 L25 35 V114Z" fill="url(#shell)" stroke="#13201c" stroke-width="2.4" stroke-linecap="round" stroke-linejoin="round"/>
  <path d="M22 112 V35 L33 22 H95 L106 35 V112" fill="none" stroke="#b9ccc2" stroke-width="2" opacity=".5"/>
  <path d="M15 98 H30 M98 98 H113 M17 58 H27 M101 58 H111" stroke="#d78562" stroke-width="3" opacity=".78"/>
  <circle cx="22" cy="42" r="2" fill="#d9c58d" stroke="#15201c" stroke-width="1"/><circle cx="106" cy="42" r="2" fill="#d9c58d" stroke="#15201c" stroke-width="1"/><circle cx="22" cy="106" r="2" fill="#d9c58d" stroke="#15201c" stroke-width="1"/><circle cx="106" cy="106" r="2" fill="#d9c58d" stroke="#15201c" stroke-width="1"/>
    <circle cx="19" cy="29" r="4" fill="#ff9a68" stroke="#17221f" stroke-width="1.4"/>
  </g>
    </g>
<g transform="translate(512 0)" clip-path="url(#frame-clip)">
      <g filter="url(#shadow)">
    <path d="M24 111 V36 Q24 27 34 27 H94 Q104 27 104 36 V111Z" fill="#040807"/>
    <rect x="15.00" y="30" width="24.71" height="81" rx="3" fill="url(#body)" stroke="#13201c" stroke-width="2.4" stroke-linecap="round" stroke-linejoin="round"/>
    <rect x="88.29" y="30" width="24.71" height="81" rx="3" fill="url(#body)" stroke="#13201c" stroke-width="2.4" stroke-linecap="round" stroke-linejoin="round"/>
    <path d="M34.71 35 V106 M93.29 35 V106" stroke="#d78562" stroke-width="2.5" opacity=".88"/>
    <path d="M20.00 39 H32.71 M95.29 39 H108.00" stroke="#d7e4dd" stroke-width="1.6" opacity=".38"/>
    
  <path d="M12 114 V31 L27 13 H101 L116 31 V114 H103 V35 L94 25 H34 L25 35 V114Z" fill="url(#shell)" stroke="#13201c" stroke-width="2.4" stroke-linecap="round" stroke-linejoin="round"/>
  <path d="M22 112 V35 L33 22 H95 L106 35 V112" fill="none" stroke="#b9ccc2" stroke-width="2" opacity=".5"/>
  <path d="M15 98 H30 M98 98 H113 M17 58 H27 M101 58 H111" stroke="#d78562" stroke-width="3" opacity=".78"/>
  <circle cx="22" cy="42" r="2" fill="#d9c58d" stroke="#15201c" stroke-width="1"/><circle cx="106" cy="42" r="2" fill="#d9c58d" stroke="#15201c" stroke-width="1"/><circle cx="22" cy="106" r="2" fill="#d9c58d" stroke="#15201c" stroke-width="1"/><circle cx="106" cy="106" r="2" fill="#d9c58d" stroke="#15201c" stroke-width="1"/>
    <circle cx="19" cy="29" r="4" fill="#caff83" stroke="#17221f" stroke-width="1.4"/>
  </g>
    </g>
<g transform="translate(640 0)" clip-path="url(#frame-clip)">
      <g filter="url(#shadow)">
    <path d="M24 111 V36 Q24 27 34 27 H94 Q104 27 104 36 V111Z" fill="#040807"/>
    <rect x="15.00" y="30" width="19.14" height="81" rx="3" fill="url(#body)" stroke="#13201c" stroke-width="2.4" stroke-linecap="round" stroke-linejoin="round"/>
    <rect x="93.86" y="30" width="19.14" height="81" rx="3" fill="url(#body)" stroke="#13201c" stroke-width="2.4" stroke-linecap="round" stroke-linejoin="round"/>
    <path d="M29.14 35 V106 M98.86 35 V106" stroke="#d78562" stroke-width="2.5" opacity=".88"/>
    <path d="M20.00 39 H27.14 M100.86 39 H108.00" stroke="#d7e4dd" stroke-width="1.6" opacity=".38"/>
    
  <path d="M12 114 V31 L27 13 H101 L116 31 V114 H103 V35 L94 25 H34 L25 35 V114Z" fill="url(#shell)" stroke="#13201c" stroke-width="2.4" stroke-linecap="round" stroke-linejoin="round"/>
  <path d="M22 112 V35 L33 22 H95 L106 35 V112" fill="none" stroke="#b9ccc2" stroke-width="2" opacity=".5"/>
  <path d="M15 98 H30 M98 98 H113 M17 58 H27 M101 58 H111" stroke="#d78562" stroke-width="3" opacity=".78"/>
  <circle cx="22" cy="42" r="2" fill="#d9c58d" stroke="#15201c" stroke-width="1"/><circle cx="106" cy="42" r="2" fill="#d9c58d" stroke="#15201c" stroke-width="1"/><circle cx="22" cy="106" r="2" fill="#d9c58d" stroke="#15201c" stroke-width="1"/><circle cx="106" cy="106" r="2" fill="#d9c58d" stroke="#15201c" stroke-width="1"/>
    <circle cx="19" cy="29" r="4" fill="#caff83" stroke="#17221f" stroke-width="1.4"/>
  </g>
    </g>
<g transform="translate(768 0)" clip-path="url(#frame-clip)">
      <g filter="url(#shadow)">
    <path d="M24 111 V36 Q24 27 34 27 H94 Q104 27 104 36 V111Z" fill="#040807"/>
    <rect x="15.00" y="30" width="13.57" height="81" rx="3" fill="url(#body)" stroke="#13201c" stroke-width="2.4" stroke-linecap="round" stroke-linejoin="round"/>
    <rect x="99.43" y="30" width="13.57" height="81" rx="3" fill="url(#body)" stroke="#13201c" stroke-width="2.4" stroke-linecap="round" stroke-linejoin="round"/>
    <path d="M23.57 35 V106 M104.43 35 V106" stroke="#d78562" stroke-width="2.5" opacity=".88"/>
    <path d="M20.00 39 H21.57 M106.43 39 H108.00" stroke="#d7e4dd" stroke-width="1.6" opacity=".38"/>
    
  <path d="M12 114 V31 L27 13 H101 L116 31 V114 H103 V35 L94 25 H34 L25 35 V114Z" fill="url(#shell)" stroke="#13201c" stroke-width="2.4" stroke-linecap="round" stroke-linejoin="round"/>
  <path d="M22 112 V35 L33 22 H95 L106 35 V112" fill="none" stroke="#b9ccc2" stroke-width="2" opacity=".5"/>
  <path d="M15 98 H30 M98 98 H113 M17 58 H27 M101 58 H111" stroke="#d78562" stroke-width="3" opacity=".78"/>
  <circle cx="22" cy="42" r="2" fill="#d9c58d" stroke="#15201c" stroke-width="1"/><circle cx="106" cy="42" r="2" fill="#d9c58d" stroke="#15201c" stroke-width="1"/><circle cx="22" cy="106" r="2" fill="#d9c58d" stroke="#15201c" stroke-width="1"/><circle cx="106" cy="106" r="2" fill="#d9c58d" stroke="#15201c" stroke-width="1"/>
    <circle cx="19" cy="29" r="4" fill="#caff83" stroke="#17221f" stroke-width="1.4"/>
  </g>
    </g>
<g transform="translate(896 0)" clip-path="url(#frame-clip)">
      <g filter="url(#shadow)">
    <path d="M24 111 V36 Q24 27 34 27 H94 Q104 27 104 36 V111Z" fill="#040807"/>
    <rect x="15.00" y="30" width="8.00" height="81" rx="3" fill="url(#body)" stroke="#13201c" stroke-width="2.4" stroke-linecap="round" stroke-linejoin="round"/>
    <rect x="105.00" y="30" width="8.00" height="81" rx="3" fill="url(#body)" stroke="#13201c" stroke-width="2.4" stroke-linecap="round" stroke-linejoin="round"/>
    <path d="M18.00 35 V106 M110.00 35 V106" stroke="#d78562" stroke-width="2.5" opacity=".88"/>
    <path d="M20.00 39 H16.00 M112.00 39 H108.00" stroke="#d7e4dd" stroke-width="1.6" opacity=".38"/>
    
  <path d="M12 114 V31 L27 13 H101 L116 31 V114 H103 V35 L94 25 H34 L25 35 V114Z" fill="url(#shell)" stroke="#13201c" stroke-width="2.4" stroke-linecap="round" stroke-linejoin="round"/>
  <path d="M22 112 V35 L33 22 H95 L106 35 V112" fill="none" stroke="#b9ccc2" stroke-width="2" opacity=".5"/>
  <path d="M15 98 H30 M98 98 H113 M17 58 H27 M101 58 H111" stroke="#d78562" stroke-width="3" opacity=".78"/>
  <circle cx="22" cy="42" r="2" fill="#d9c58d" stroke="#15201c" stroke-width="1"/><circle cx="106" cy="42" r="2" fill="#d9c58d" stroke="#15201c" stroke-width="1"/><circle cx="22" cy="106" r="2" fill="#d9c58d" stroke="#15201c" stroke-width="1"/><circle cx="106" cy="106" r="2" fill="#d9c58d" stroke="#15201c" stroke-width="1"/>
    <circle cx="19" cy="29" r="4" fill="#caff83" stroke="#17221f" stroke-width="1.4"/>
  </g>
    </g>
  </svg>
