<svg xmlns="http://www.w3.org/2000/svg"
    width="128" height="128"
    viewBox="0 0 128 128"
    role="img" aria-label="Floor opening sprite sheet">
    <defs>
  <linearGradient id="body" x1="0" y1="0" x2="0.9" y2="1">
    <stop offset="0" stop-color="#aec5ba"/>
    <stop offset="0.48" stop-color="#58766a"/>
    <stop offset="1" stop-color="#263a33"/>
  </linearGradient>
  <linearGradient id="shell" x1="0.12" y1="0" x2="0.84" y2="1">
    <stop offset="0" stop-color="#aec5ba"/>
    <stop offset="0.22" stop-color="#58766a"/>
    <stop offset="0.7" stop-color="#263a33"/>
    <stop offset="1" stop-color="#111c1a"/>
  </linearGradient>
  <radialGradient id="glow">
    <stop offset="0" stop-color="#ffffff" stop-opacity="0.96"/>
    <stop offset="0.28" stop-color="#ffe6a1" stop-opacity="0.9"/>
    <stop offset="1" stop-color="#d6af61" stop-opacity="0"/>
  </radialGradient>
  <filter id="shadow" x="-40%" y="-40%" width="180%" height="190%">
    <feDropShadow dx="0" dy="2.5" stdDeviation="2.4" flood-color="#020908" flood-opacity="0.76"/>
  </filter>
  <filter id="soft-glow" x="-70%" y="-70%" width="240%" height="240%">
    <feGaussianBlur stdDeviation="2.2" result="blur"/>
    <feMerge><feMergeNode in="blur"/><feMergeNode in="SourceGraphic"/></feMerge>
  </filter>
  <clipPath id="frame-clip"><rect width="128" height="128"/></clipPath></defs>
    <g transform="translate(0 0)" clip-path="url(#frame-clip)">
      <g filter="url(#shadow)">
  <ellipse cx="64" cy="74" rx="49" ry="19" fill="#030706" stroke="#15241f" stroke-width="3"/>
  <path d="M12 54 L23 44 H105 L116 54 L106 65 H22Z" fill="url(#shell)" stroke="#13201c" stroke-width="2.4" stroke-linecap="round" stroke-linejoin="round"/>
  <path d="M24 53 H104 L96 60 H32Z" fill="#050a08" stroke="#7e9b8d" stroke-width="1.5"/>
  <path d="M18 51 L28 45 M32 54 L42 45 M48 54 L58 45 M64 54 L74 45 M80 54 L90 45 M96 54 L106 47" stroke="#d6af61" stroke-width="3" opacity=".82"/>
  <path d="M23 66 L34 102 M105 66 L94 102" stroke="#334b41" stroke-width="5"/>
  <path d="M26 68 L35 98 M102 68 L93 98" stroke="#9bb0a6" stroke-width="1.3"/>
</g>
    </g>
  </svg>
