<svg xmlns="http://www.w3.org/2000/svg"
    width="128" height="128"
    viewBox="0 0 128 128"
    role="img" aria-label="Ladder shaft sprite sheet">
    <defs>
  <linearGradient id="body" x1="0" y1="0" x2="0.9" y2="1">
    <stop offset="0" stop-color="#aec5ba"/>
    <stop offset="0.48" stop-color="#58766a"/>
    <stop offset="1" stop-color="#263a33"/>
  </linearGradient>
  <linearGradient id="shell" x1="0.12" y1="0" x2="0.84" y2="1">
    <stop offset="0" stop-color="#aec5ba"/>
    <stop offset="0.22" stop-color="#58766a"/>
    <stop offset="0.7" stop-color="#263a33"/>
    <stop offset="1" stop-color="#111c1a"/>
  </linearGradient>
  <radialGradient id="glow">
    <stop offset="0" stop-color="#ffffff" stop-opacity="0.96"/>
    <stop offset="0.28" stop-color="#ffe6a1" stop-opacity="0.9"/>
    <stop offset="1" stop-color="#d6af61" stop-opacity="0"/>
  </radialGradient>
  <filter id="shadow" x="-40%" y="-40%" width="180%" height="190%">
    <feDropShadow dx="0" dy="2.5" stdDeviation="2.4" flood-color="#020908" flood-opacity="0.76"/>
  </filter>
  <filter id="soft-glow" x="-70%" y="-70%" width="240%" height="240%">
    <feGaussianBlur stdDeviation="2.2" result="blur"/>
    <feMerge><feMergeNode in="blur"/><feMergeNode in="SourceGraphic"/></feMerge>
  </filter>
  <clipPath id="frame-clip"><rect width="128" height="128"/></clipPath></defs>
    <g transform="translate(0 0)" clip-path="url(#frame-clip)">
      <g filter="url(#shadow)">
  <path d="M23 8 H105 V120 H23Z" fill="#13221d" stroke="#668477" stroke-width="2"/>
  <path d="M27 12 H101 V116 H27Z" fill="#050a08" stroke="#293f36" stroke-width="2"/>
  <path d="M20 8 H108 V20 H20Z M20 108 H108 V120 H20Z" fill="url(#shell)" stroke="#13201c" stroke-width="2.4" stroke-linecap="round" stroke-linejoin="round"/>
  <path d="M27 17 H101 M27 111 H101" stroke="#d6af61" stroke-width="2" opacity=".72"/>
  <g transform="translate(0 1)">
  <path d="M35 9 H49 V119 H35Z M79 9 H93 V119 H79Z" fill="url(#body)" stroke="#13201c" stroke-width="2.4" stroke-linecap="round" stroke-linejoin="round"/>
  <path d="M40 11 V116 M84 11 V116" stroke="#d8c07b" stroke-width="3" opacity=".88"/>
  <path d="M46 18 H82" stroke="#192a25" stroke-width="7"/><path d="M46 17 H82" stroke="#c9b46e" stroke-width="3"/><path d="M49 16 H79" stroke="#fff0b1" stroke-width="1" opacity=".55"/><path d="M46 33 H82" stroke="#192a25" stroke-width="7"/><path d="M46 32 H82" stroke="#c9b46e" stroke-width="3"/><path d="M49 31 H79" stroke="#fff0b1" stroke-width="1" opacity=".55"/><path d="M46 48 H82" stroke="#192a25" stroke-width="7"/><path d="M46 47 H82" stroke="#c9b46e" stroke-width="3"/><path d="M49 46 H79" stroke="#fff0b1" stroke-width="1" opacity=".55"/><path d="M46 63 H82" stroke="#192a25" stroke-width="7"/><path d="M46 62 H82" stroke="#c9b46e" stroke-width="3"/><path d="M49 61 H79" stroke="#fff0b1" stroke-width="1" opacity=".55"/><path d="M46 78 H82" stroke="#192a25" stroke-width="7"/><path d="M46 77 H82" stroke="#c9b46e" stroke-width="3"/><path d="M49 76 H79" stroke="#fff0b1" stroke-width="1" opacity=".55"/><path d="M46 93 H82" stroke="#192a25" stroke-width="7"/><path d="M46 92 H82" stroke="#c9b46e" stroke-width="3"/><path d="M49 91 H79" stroke="#fff0b1" stroke-width="1" opacity=".55"/><path d="M46 108 H82" stroke="#192a25" stroke-width="7"/><path d="M46 107 H82" stroke="#c9b46e" stroke-width="3"/><path d="M49 106 H79" stroke="#fff0b1" stroke-width="1" opacity=".55"/>
  <path d="M32 8 Q42 1 52 8 M76 8 Q86 1 96 8" fill="none" stroke="#90a99d" stroke-width="3"/>
  <circle cx="42" cy="14" r="2" fill="#d9c58d" stroke="#15201c" stroke-width="1"/><circle cx="86" cy="14" r="2" fill="#d9c58d" stroke="#15201c" stroke-width="1"/><circle cx="42" cy="113" r="2" fill="#d9c58d" stroke="#15201c" stroke-width="1"/><circle cx="86" cy="113" r="2" fill="#d9c58d" stroke="#15201c" stroke-width="1"/>
</g>
  <circle cx="27" cy="14" r="2" fill="#d9c58d" stroke="#15201c" stroke-width="1"/><circle cx="101" cy="14" r="2" fill="#d9c58d" stroke="#15201c" stroke-width="1"/><circle cx="27" cy="114" r="2" fill="#d9c58d" stroke="#15201c" stroke-width="1"/><circle cx="101" cy="114" r="2" fill="#d9c58d" stroke="#15201c" stroke-width="1"/>
</g>
    </g>
  </svg>
