<svg xmlns="http://www.w3.org/2000/svg"
    width="128" height="128"
    viewBox="0 0 128 128"
    role="img" aria-label="Open passage sprite sheet">
    <defs>
  <linearGradient id="body" x1="0" y1="0" x2="0.9" y2="1">
    <stop offset="0" stop-color="#aec5ba"/>
    <stop offset="0.48" stop-color="#58766a"/>
    <stop offset="1" stop-color="#263a33"/>
  </linearGradient>
  <linearGradient id="shell" x1="0.12" y1="0" x2="0.84" y2="1">
    <stop offset="0" stop-color="#aec5ba"/>
    <stop offset="0.22" stop-color="#58766a"/>
    <stop offset="0.7" stop-color="#263a33"/>
    <stop offset="1" stop-color="#111c1a"/>
  </linearGradient>
  <radialGradient id="glow">
    <stop offset="0" stop-color="#ffffff" stop-opacity="0.96"/>
    <stop offset="0.28" stop-color="#ffe6a1" stop-opacity="0.9"/>
    <stop offset="1" stop-color="#d6af61" stop-opacity="0"/>
  </radialGradient>
  <filter id="shadow" x="-40%" y="-40%" width="180%" height="190%">
    <feDropShadow dx="0" dy="2.5" stdDeviation="2.4" flood-color="#020908" flood-opacity="0.76"/>
  </filter>
  <filter id="soft-glow" x="-70%" y="-70%" width="240%" height="240%">
    <feGaussianBlur stdDeviation="2.2" result="blur"/>
    <feMerge><feMergeNode in="blur"/><feMergeNode in="SourceGraphic"/></feMerge>
  </filter>
  <clipPath id="frame-clip"><rect width="128" height="128"/></clipPath></defs>
    <g transform="translate(0 0)" clip-path="url(#frame-clip)">
      <g filter="url(#shadow)">
  <path d="M18 108 V47 Q18 18 47 13 H81 Q110 18 110 47 V108 H94 V49 Q94 32 78 29 H50 Q34 32 34 49 V108Z" fill="url(#shell)" stroke="#13201c" stroke-width="2.4" stroke-linecap="round" stroke-linejoin="round"/>
  <path d="M35 108 V50 Q35 33 51 30 H77 Q93 33 93 50 V108Z" fill="#050a08" stroke="#769184" stroke-width="2"/>
  <path d="M26 104 V48 Q26 26 49 21 H79 Q102 26 102 48 V104" fill="none" stroke="#c6d8cf" stroke-width="2" opacity=".5"/>
  <path d="M22 96 H38 M90 96 H106 M22 69 H37 M91 69 H106 M31 31 L43 39 M97 31 L85 39" stroke="#d6af61" stroke-width="3" opacity=".72"/>
  <circle cx="27" cy="52" r="2" fill="#d9c58d" stroke="#15201c" stroke-width="1"/><circle cx="101" cy="52" r="2" fill="#d9c58d" stroke="#15201c" stroke-width="1"/><circle cx="27" cy="89" r="2" fill="#d9c58d" stroke="#15201c" stroke-width="1"/><circle cx="101" cy="89" r="2" fill="#d9c58d" stroke="#15201c" stroke-width="1"/>
  <ellipse cx="64" cy="108" rx="39" ry="6" fill="#020605" opacity=".6"/>
</g>
    </g>
  </svg>
