<svg xmlns="http://www.w3.org/2000/svg"
    width="1024" height="128"
    viewBox="0 0 1024 128"
    role="img" aria-label="Sliding trapdoor sprite sheet">
    <defs>
  <linearGradient id="body" x1="0" y1="0" x2="0.9" y2="1">
    <stop offset="0" stop-color="#aec5ba"/>
    <stop offset="0.48" stop-color="#58766a"/>
    <stop offset="1" stop-color="#263a33"/>
  </linearGradient>
  <linearGradient id="shell" x1="0.12" y1="0" x2="0.84" y2="1">
    <stop offset="0" stop-color="#aec5ba"/>
    <stop offset="0.22" stop-color="#58766a"/>
    <stop offset="0.7" stop-color="#263a33"/>
    <stop offset="1" stop-color="#111c1a"/>
  </linearGradient>
  <radialGradient id="glow">
    <stop offset="0" stop-color="#ffffff" stop-opacity="0.96"/>
    <stop offset="0.28" stop-color="#ffe6a1" stop-opacity="0.9"/>
    <stop offset="1" stop-color="#d6af61" stop-opacity="0"/>
  </radialGradient>
  <filter id="shadow" x="-40%" y="-40%" width="180%" height="190%">
    <feDropShadow dx="0" dy="2.5" stdDeviation="2.4" flood-color="#020908" flood-opacity="0.76"/>
  </filter>
  <filter id="soft-glow" x="-70%" y="-70%" width="240%" height="240%">
    <feGaussianBlur stdDeviation="2.2" result="blur"/>
    <feMerge><feMergeNode in="blur"/><feMergeNode in="SourceGraphic"/></feMerge>
  </filter>
  <clipPath id="frame-clip"><rect width="128" height="128"/></clipPath></defs>
    <g transform="translate(0 0)" clip-path="url(#frame-clip)">
      <g filter="url(#shadow)">
    <ellipse cx="64" cy="76" rx="51" ry="18" fill="#020605" stroke="#15231f" stroke-width="3"/>
    <path d="M10 53 L20 43 H108 L118 53 L110 68 H18Z" fill="url(#shell)" stroke="#13201c" stroke-width="2.4" stroke-linecap="round" stroke-linejoin="round"/>
    <path d="M18 55 H65.00 V70 H18Z M63.00 55 H110 V70 H63.00Z" fill="url(#body)" stroke="#d78562" stroke-width="2"/>
    <path d="M61.00 58 V67 M67.00 58 V67" stroke="#ffd0a8" stroke-width="1.5"/>
    <path d="M16 51 L27 44 M31 53 L42 44 M86 53 L97 44 M101 53 L112 48" stroke="#d6af61" stroke-width="3" opacity=".8"/>
    <circle cx="20" cy="61" r="2" fill="#d9c58d" stroke="#15201c" stroke-width="1"/><circle cx="108" cy="61" r="2" fill="#d9c58d" stroke="#15201c" stroke-width="1"/>
  </g>
    </g>
<g transform="translate(128 0)" clip-path="url(#frame-clip)">
      <g filter="url(#shadow)">
    <ellipse cx="64" cy="76" rx="51" ry="18" fill="#020605" stroke="#15231f" stroke-width="3"/>
    <path d="M10 53 L20 43 H108 L118 53 L110 68 H18Z" fill="url(#shell)" stroke="#13201c" stroke-width="2.4" stroke-linecap="round" stroke-linejoin="round"/>
    <path d="M18 55 H59.00 V70 H18Z M69.00 55 H110 V70 H69.00Z" fill="url(#body)" stroke="#d78562" stroke-width="2"/>
    <path d="M55.00 58 V67 M73.00 58 V67" stroke="#ffd0a8" stroke-width="1.5"/>
    <path d="M16 51 L27 44 M31 53 L42 44 M86 53 L97 44 M101 53 L112 48" stroke="#d6af61" stroke-width="3" opacity=".8"/>
    <circle cx="20" cy="61" r="2" fill="#d9c58d" stroke="#15201c" stroke-width="1"/><circle cx="108" cy="61" r="2" fill="#d9c58d" stroke="#15201c" stroke-width="1"/>
  </g>
    </g>
<g transform="translate(256 0)" clip-path="url(#frame-clip)">
      <g filter="url(#shadow)">
    <ellipse cx="64" cy="76" rx="51" ry="18" fill="#020605" stroke="#15231f" stroke-width="3"/>
    <path d="M10 53 L20 43 H108 L118 53 L110 68 H18Z" fill="url(#shell)" stroke="#13201c" stroke-width="2.4" stroke-linecap="round" stroke-linejoin="round"/>
    <path d="M18 55 H53.00 V70 H18Z M75.00 55 H110 V70 H75.00Z" fill="url(#body)" stroke="#d78562" stroke-width="2"/>
    <path d="M49.00 58 V67 M79.00 58 V67" stroke="#ffd0a8" stroke-width="1.5"/>
    <path d="M16 51 L27 44 M31 53 L42 44 M86 53 L97 44 M101 53 L112 48" stroke="#d6af61" stroke-width="3" opacity=".8"/>
    <circle cx="20" cy="61" r="2" fill="#d9c58d" stroke="#15201c" stroke-width="1"/><circle cx="108" cy="61" r="2" fill="#d9c58d" stroke="#15201c" stroke-width="1"/>
  </g>
    </g>
<g transform="translate(384 0)" clip-path="url(#frame-clip)">
      <g filter="url(#shadow)">
    <ellipse cx="64" cy="76" rx="51" ry="18" fill="#020605" stroke="#15231f" stroke-width="3"/>
    <path d="M10 53 L20 43 H108 L118 53 L110 68 H18Z" fill="url(#shell)" stroke="#13201c" stroke-width="2.4" stroke-linecap="round" stroke-linejoin="round"/>
    <path d="M18 55 H47.00 V70 H18Z M81.00 55 H110 V70 H81.00Z" fill="url(#body)" stroke="#d78562" stroke-width="2"/>
    <path d="M43.00 58 V67 M85.00 58 V67" stroke="#ffd0a8" stroke-width="1.5"/>
    <path d="M16 51 L27 44 M31 53 L42 44 M86 53 L97 44 M101 53 L112 48" stroke="#d6af61" stroke-width="3" opacity=".8"/>
    <circle cx="20" cy="61" r="2" fill="#d9c58d" stroke="#15201c" stroke-width="1"/><circle cx="108" cy="61" r="2" fill="#d9c58d" stroke="#15201c" stroke-width="1"/>
  </g>
    </g>
<g transform="translate(512 0)" clip-path="url(#frame-clip)">
      <g filter="url(#shadow)">
    <ellipse cx="64" cy="76" rx="51" ry="18" fill="#020605" stroke="#15231f" stroke-width="3"/>
    <path d="M10 53 L20 43 H108 L118 53 L110 68 H18Z" fill="url(#shell)" stroke="#13201c" stroke-width="2.4" stroke-linecap="round" stroke-linejoin="round"/>
    <path d="M18 55 H41.00 V70 H18Z M87.00 55 H110 V70 H87.00Z" fill="url(#body)" stroke="#d78562" stroke-width="2"/>
    <path d="M37.00 58 V67 M91.00 58 V67" stroke="#ffd0a8" stroke-width="1.5"/>
    <path d="M16 51 L27 44 M31 53 L42 44 M86 53 L97 44 M101 53 L112 48" stroke="#d6af61" stroke-width="3" opacity=".8"/>
    <circle cx="20" cy="61" r="2" fill="#d9c58d" stroke="#15201c" stroke-width="1"/><circle cx="108" cy="61" r="2" fill="#d9c58d" stroke="#15201c" stroke-width="1"/>
  </g>
    </g>
<g transform="translate(640 0)" clip-path="url(#frame-clip)">
      <g filter="url(#shadow)">
    <ellipse cx="64" cy="76" rx="51" ry="18" fill="#020605" stroke="#15231f" stroke-width="3"/>
    <path d="M10 53 L20 43 H108 L118 53 L110 68 H18Z" fill="url(#shell)" stroke="#13201c" stroke-width="2.4" stroke-linecap="round" stroke-linejoin="round"/>
    <path d="M18 55 H35.00 V70 H18Z M93.00 55 H110 V70 H93.00Z" fill="url(#body)" stroke="#d78562" stroke-width="2"/>
    <path d="M31.00 58 V67 M97.00 58 V67" stroke="#ffd0a8" stroke-width="1.5"/>
    <path d="M16 51 L27 44 M31 53 L42 44 M86 53 L97 44 M101 53 L112 48" stroke="#d6af61" stroke-width="3" opacity=".8"/>
    <circle cx="20" cy="61" r="2" fill="#d9c58d" stroke="#15201c" stroke-width="1"/><circle cx="108" cy="61" r="2" fill="#d9c58d" stroke="#15201c" stroke-width="1"/>
  </g>
    </g>
<g transform="translate(768 0)" clip-path="url(#frame-clip)">
      <g filter="url(#shadow)">
    <ellipse cx="64" cy="76" rx="51" ry="18" fill="#020605" stroke="#15231f" stroke-width="3"/>
    <path d="M10 53 L20 43 H108 L118 53 L110 68 H18Z" fill="url(#shell)" stroke="#13201c" stroke-width="2.4" stroke-linecap="round" stroke-linejoin="round"/>
    <path d="M18 55 H29.00 V70 H18Z M99.00 55 H110 V70 H99.00Z" fill="url(#body)" stroke="#d78562" stroke-width="2"/>
    <path d="M25.00 58 V67 M103.00 58 V67" stroke="#ffd0a8" stroke-width="1.5"/>
    <path d="M16 51 L27 44 M31 53 L42 44 M86 53 L97 44 M101 53 L112 48" stroke="#d6af61" stroke-width="3" opacity=".8"/>
    <circle cx="20" cy="61" r="2" fill="#d9c58d" stroke="#15201c" stroke-width="1"/><circle cx="108" cy="61" r="2" fill="#d9c58d" stroke="#15201c" stroke-width="1"/>
  </g>
    </g>
<g transform="translate(896 0)" clip-path="url(#frame-clip)">
      <g filter="url(#shadow)">
    <ellipse cx="64" cy="76" rx="51" ry="18" fill="#020605" stroke="#15231f" stroke-width="3"/>
    <path d="M10 53 L20 43 H108 L118 53 L110 68 H18Z" fill="url(#shell)" stroke="#13201c" stroke-width="2.4" stroke-linecap="round" stroke-linejoin="round"/>
    <path d="M18 55 H23.00 V70 H18Z M105.00 55 H110 V70 H105.00Z" fill="url(#body)" stroke="#d78562" stroke-width="2"/>
    <path d="M19.00 58 V67 M109.00 58 V67" stroke="#ffd0a8" stroke-width="1.5"/>
    <path d="M16 51 L27 44 M31 53 L42 44 M86 53 L97 44 M101 53 L112 48" stroke="#d6af61" stroke-width="3" opacity=".8"/>
    <circle cx="20" cy="61" r="2" fill="#d9c58d" stroke="#15201c" stroke-width="1"/><circle cx="108" cy="61" r="2" fill="#d9c58d" stroke="#15201c" stroke-width="1"/>
  </g>
    </g>
  </svg>
