<svg xmlns="http://www.w3.org/2000/svg"
    width="128" height="128"
    viewBox="0 0 128 128"
    role="img" aria-label="Refined walkway sprite sheet">
    <defs>
  <linearGradient id="body" x1="0" y1="0" x2="0.9" y2="1">
    <stop offset="0" stop-color="#aec5ba"/>
    <stop offset="0.48" stop-color="#58766a"/>
    <stop offset="1" stop-color="#263a33"/>
  </linearGradient>
  <linearGradient id="shell" x1="0.12" y1="0" x2="0.84" y2="1">
    <stop offset="0" stop-color="#aec5ba"/>
    <stop offset="0.22" stop-color="#58766a"/>
    <stop offset="0.7" stop-color="#263a33"/>
    <stop offset="1" stop-color="#111c1a"/>
  </linearGradient>
  <radialGradient id="glow">
    <stop offset="0" stop-color="#ffffff" stop-opacity="0.96"/>
    <stop offset="0.28" stop-color="#ffe6a1" stop-opacity="0.9"/>
    <stop offset="1" stop-color="#d6af61" stop-opacity="0"/>
  </radialGradient>
  <filter id="shadow" x="-40%" y="-40%" width="180%" height="190%">
    <feDropShadow dx="0" dy="2.5" stdDeviation="2.4" flood-color="#020908" flood-opacity="0.76"/>
  </filter>
  <filter id="soft-glow" x="-70%" y="-70%" width="240%" height="240%">
    <feGaussianBlur stdDeviation="2.2" result="blur"/>
    <feMerge><feMergeNode in="blur"/><feMergeNode in="SourceGraphic"/></feMerge>
  </filter>
  <clipPath id="frame-clip"><rect width="128" height="128"/></clipPath></defs>
    <g transform="translate(0 0)" clip-path="url(#frame-clip)">
      <g filter="url(#shadow)">
  <path d="M7 55 L17 45 H121 L111 55Z" fill="#a5bcb1" stroke="#13201c" stroke-width="2.4" stroke-linecap="round" stroke-linejoin="round"/>
  <path d="M7 55 H111 V82 H7Z" fill="url(#body)" stroke="#13201c" stroke-width="2.4" stroke-linecap="round" stroke-linejoin="round"/>
  <path d="M14 61 H104 V74 H14Z" fill="#1d312a" stroke="#718f82" stroke-width="1.3"/>
  <path d="M16 62 L34 74 L52 62 L70 74 L88 62 L103 72" fill="none" stroke="#9eb4aa" stroke-width="2" opacity=".72"/>
  <path d="M9 53 H113" stroke="#e2eee8" stroke-width="2" opacity=".58"/>
  <path d="M14 46 V20 M41 46 V25 M77 46 V25 M106 46 V20 M14 22 H106" fill="none" stroke="#658278" stroke-width="4"/>
  <path d="M14 22 H106" stroke="#c1d4cc" stroke-width="1.4" opacity=".8"/>
  <circle cx="15" cy="67" r="2" fill="#d9c58d" stroke="#15201c" stroke-width="1"/><circle cx="103" cy="67" r="2" fill="#d9c58d" stroke="#15201c" stroke-width="1"/>
  <path d="M13 84 H106" stroke="#050a08" stroke-width="5" opacity=".55"/>
</g>
    </g>
  </svg>
