<svg xmlns="http://www.w3.org/2000/svg"
    width="128" height="128"
    viewBox="0 0 128 128"
    role="img" aria-label="Site walkway sprite sheet">
    <defs>
  <linearGradient id="body" x1="0" y1="0" x2="0.9" y2="1">
    <stop offset="0" stop-color="#80949a"/>
    <stop offset="0.48" stop-color="#3f5964"/>
    <stop offset="1" stop-color="#192b32"/>
  </linearGradient>
  <linearGradient id="shell" x1="0.12" y1="0" x2="0.84" y2="1">
    <stop offset="0" stop-color="#80949a"/>
    <stop offset="0.22" stop-color="#3f5964"/>
    <stop offset="0.7" stop-color="#192b32"/>
    <stop offset="1" stop-color="#111c1a"/>
  </linearGradient>
  <radialGradient id="glow">
    <stop offset="0" stop-color="#ffffff" stop-opacity="0.96"/>
    <stop offset="0.28" stop-color="#d5996a" stop-opacity="0.9"/>
    <stop offset="1" stop-color="#b5664b" stop-opacity="0"/>
  </radialGradient>
  <filter id="shadow" x="-40%" y="-40%" width="180%" height="190%">
    <feDropShadow dx="0" dy="2.5" stdDeviation="2.4" flood-color="#020908" flood-opacity="0.76"/>
  </filter>
  <filter id="soft-glow" x="-70%" y="-70%" width="240%" height="240%">
    <feGaussianBlur stdDeviation="2.2" result="blur"/>
    <feMerge><feMergeNode in="blur"/><feMergeNode in="SourceGraphic"/></feMerge>
  </filter>
  <clipPath id="frame-clip"><rect width="128" height="128"/></clipPath></defs>
    <g transform="translate(0 0)" clip-path="url(#frame-clip)">
      <g filter="url(#shadow)">
  <path d="M7 55 L17 45 H121 L111 55Z" fill="#c3d2d3" stroke="#0b1215" stroke-width="2.4" stroke-linecap="round" stroke-linejoin="round"/>
  <path d="M7 55 H111 V82 H7Z" fill="url(#body)" stroke="#0b1215" stroke-width="2.4" stroke-linecap="round" stroke-linejoin="round"/>
  <path d="M14 61 H104 V74 H14Z" fill="#071115" stroke="#5d747c" stroke-width="1.3"/>
  <path d="M16 62 L34 74 L52 62 L70 74 L88 62 L103 72" fill="none" stroke="#5d747c" stroke-width="2" opacity=".82"/>
  <path d="M9 53 H113" stroke="#c3d2d3" stroke-width="2" opacity=".72"/>
  <path d="M14 46 V20 M41 46 V25 M77 46 V25 M106 46 V20 M14 22 H106" fill="none" stroke="#58727d" stroke-width="4"/>
  <path d="M14 22 H106" stroke="#c3d2d3" stroke-width="1.4" opacity=".86"/>
  <circle cx="15" cy="67" r="2" fill="#9c6048" stroke="#0b1215" stroke-width="1"/><circle cx="103" cy="67" r="2" fill="#9c6048" stroke="#0b1215" stroke-width="1"/>
  <path d="M13 84 H106" stroke="#020405" stroke-width="5" opacity=".62"/>
</g>
    </g>
  </svg>
