<svg xmlns="http://www.w3.org/2000/svg"
    width="1024" height="128"
    viewBox="0 0 1024 128"
    role="img" aria-label="Absorber column sprite sheet">
    <defs>
  <linearGradient id="body" x1="0" y1="0" x2="0.9" y2="1">
    <stop offset="0" stop-color="#9cc3e0"/>
    <stop offset="0.48" stop-color="#3f6c96"/>
    <stop offset="1" stop-color="#24435e"/>
  </linearGradient>
  <linearGradient id="shell" x1="0.12" y1="0" x2="0.84" y2="1">
    <stop offset="0" stop-color="#9cc3e0"/>
    <stop offset="0.22" stop-color="#3f6c96"/>
    <stop offset="0.7" stop-color="#24435e"/>
    <stop offset="1" stop-color="#111c1a"/>
  </linearGradient>
  <radialGradient id="glow">
    <stop offset="0" stop-color="#ffffff" stop-opacity="0.96"/>
    <stop offset="0.28" stop-color="#a9d9ff" stop-opacity="0.9"/>
    <stop offset="1" stop-color="#62aef5" stop-opacity="0"/>
  </radialGradient>
  <filter id="shadow" x="-40%" y="-40%" width="180%" height="190%">
    <feDropShadow dx="0" dy="2.5" stdDeviation="2.4" flood-color="#020908" flood-opacity="0.76"/>
  </filter>
  <filter id="soft-glow" x="-70%" y="-70%" width="240%" height="240%">
    <feGaussianBlur stdDeviation="2.2" result="blur"/>
    <feMerge><feMergeNode in="blur"/><feMergeNode in="SourceGraphic"/></feMerge>
  </filter>
  <clipPath id="frame-clip"><rect width="128" height="128"/></clipPath></defs>
    <g transform="translate(0 0)" clip-path="url(#frame-clip)">
      <g filter="url(#shadow)">
    <ellipse cx="64" cy="111" rx="46" ry="8" fill="#020706" opacity=".62"/>
  <path d="M27 101 L23 113 H37 L40 101 M88 101 L92 113 H106 L101 101" fill="#253b35" stroke="#14201d" stroke-width="2.4" stroke-linecap="round" stroke-linejoin="round"/>
  <path d="M19 103 H109 L103 112 H25Z" fill="#1c2d28" stroke="#14201d" stroke-width="2.4" stroke-linecap="round" stroke-linejoin="round"/>
  <path d="M27 105 H101" stroke="#62aef5" stroke-width="1.4" opacity=".58"/>
    <path d="M44 22 Q44 12 64 11 Q84 12 84 22 V96 Q81 104 73 105 H55 Q47 104 44 96Z" fill="url(#body)" stroke="#14201d" stroke-width="2.4" stroke-linecap="round" stroke-linejoin="round"/>
    <path d="M49 26 H79 V92 Q76 98 70 99 H58 Q52 98 49 92Z" fill="#0e1c2b" stroke="#62aef5" stroke-width="1.7"/>
    <path d="M49 38 H79 M49 50 H79 M49 62 H79 M49 74 H79" stroke="#33608c" stroke-width="2.4"/>
    <path d="M52 38 l3 3 M62 38 l3 3 M72 38 l3 3 M52 50 l3 3 M62 50 l3 3 M72 50 l3 3 M52 62 l3 3 M62 62 l3 3 M72 62 l3 3" stroke="#5b87b0" stroke-width="1.2" opacity=".7"/>
    <circle cx="52.00" cy="32.00" r="1.10" fill="#a9d9ff" opacity="0.85"/><circle cx="63.26" cy="45.00" r="1.28" fill="#a9d9ff" opacity="0.75"/><circle cx="73.36" cy="58.00" r="1.45" fill="#a9d9ff" opacity="0.65"/><circle cx="52.21" cy="71.00" r="1.63" fill="#a9d9ff" opacity="0.55"/><circle cx="60.86" cy="32.00" r="1.10" fill="#a9d9ff" opacity="0.85"/>
    <path d="M49 84.00 Q64 80.00 79 84.00 V92 Q76 98 70 99 H58 Q52 98 49 92Z" fill="#2c6ea8" opacity=".65"/>
    <path d="M44 30 H30 V58 H45 M84 78 H100 V96 H85" fill="none" stroke="#41586b" stroke-width="7"/>
    <path d="M44 30 H30 V58 H45 M84 78 H100 V96 H85" fill="none" stroke="#9dbdd4" stroke-width="1.3"/>
    <path d="M64 11 V4" stroke="#8fa4b5" stroke-width="5"/><path d="M64 11 V4" stroke="#2a3a48" stroke-width="1.8"/>
    <circle cx="49" cy="21" r="3" fill="#a5e1ff" stroke="#152331" stroke-width="1.4"/>
    <path d="M50 24 Q62 16 76 20" fill="none" stroke="#e2f3ff" stroke-width="2" opacity=".3"/>
  </g>
    </g>
<g transform="translate(128 0)" clip-path="url(#frame-clip)">
      <g filter="url(#shadow)">
    <ellipse cx="64" cy="111" rx="46" ry="8" fill="#020706" opacity=".62"/>
  <path d="M27 101 L23 113 H37 L40 101 M88 101 L92 113 H106 L101 101" fill="#253b35" stroke="#14201d" stroke-width="2.4" stroke-linecap="round" stroke-linejoin="round"/>
  <path d="M19 103 H109 L103 112 H25Z" fill="#1c2d28" stroke="#14201d" stroke-width="2.4" stroke-linecap="round" stroke-linejoin="round"/>
  <path d="M27 105 H101" stroke="#62aef5" stroke-width="1.4" opacity=".58"/>
    <path d="M44 22 Q44 12 64 11 Q84 12 84 22 V96 Q81 104 73 105 H55 Q47 104 44 96Z" fill="url(#body)" stroke="#14201d" stroke-width="2.4" stroke-linecap="round" stroke-linejoin="round"/>
    <path d="M49 26 H79 V92 Q76 98 70 99 H58 Q52 98 49 92Z" fill="#0e1c2b" stroke="#62aef5" stroke-width="1.7"/>
    <path d="M49 38 H79 M49 50 H79 M49 62 H79 M49 74 H79" stroke="#33608c" stroke-width="2.4"/>
    <path d="M52 38 l3 3 M62 38 l3 3 M72 38 l3 3 M52 50 l3 3 M62 50 l3 3 M72 50 l3 3 M52 62 l3 3 M62 62 l3 3 M72 62 l3 3" stroke="#5b87b0" stroke-width="1.2" opacity=".7"/>
    <circle cx="53.06" cy="38.50" r="1.19" fill="#a9d9ff" opacity="0.80"/><circle cx="63.47" cy="51.50" r="1.36" fill="#a9d9ff" opacity="0.70"/><circle cx="72.52" cy="64.50" r="1.54" fill="#a9d9ff" opacity="0.60"/><circle cx="51.10" cy="77.50" r="1.71" fill="#a9d9ff" opacity="0.50"/><circle cx="60.50" cy="38.50" r="1.19" fill="#a9d9ff" opacity="0.80"/>
    <path d="M49 85.13 Q64 78.87 79 85.13 V92 Q76 98 70 99 H58 Q52 98 49 92Z" fill="#2c6ea8" opacity=".65"/>
    <path d="M44 30 H30 V58 H45 M84 78 H100 V96 H85" fill="none" stroke="#41586b" stroke-width="7"/>
    <path d="M44 30 H30 V58 H45 M84 78 H100 V96 H85" fill="none" stroke="#9dbdd4" stroke-width="1.3"/>
    <path d="M64 11 V4" stroke="#8fa4b5" stroke-width="5"/><path d="M64 11 V4" stroke="#2a3a48" stroke-width="1.8"/>
    <circle cx="49" cy="21" r="3" fill="#a5e1ff" stroke="#152331" stroke-width="1.4"/>
    <path d="M50 24 Q62 16 76 20" fill="none" stroke="#e2f3ff" stroke-width="2" opacity=".3"/>
  </g>
    </g>
<g transform="translate(256 0)" clip-path="url(#frame-clip)">
      <g filter="url(#shadow)">
    <ellipse cx="64" cy="111" rx="46" ry="8" fill="#020706" opacity=".62"/>
  <path d="M27 101 L23 113 H37 L40 101 M88 101 L92 113 H106 L101 101" fill="#253b35" stroke="#14201d" stroke-width="2.4" stroke-linecap="round" stroke-linejoin="round"/>
  <path d="M19 103 H109 L103 112 H25Z" fill="#1c2d28" stroke="#14201d" stroke-width="2.4" stroke-linecap="round" stroke-linejoin="round"/>
  <path d="M27 105 H101" stroke="#62aef5" stroke-width="1.4" opacity=".58"/>
    <path d="M44 22 Q44 12 64 11 Q84 12 84 22 V96 Q81 104 73 105 H55 Q47 104 44 96Z" fill="url(#body)" stroke="#14201d" stroke-width="2.4" stroke-linecap="round" stroke-linejoin="round"/>
    <path d="M49 26 H79 V92 Q76 98 70 99 H58 Q52 98 49 92Z" fill="#0e1c2b" stroke="#62aef5" stroke-width="1.7"/>
    <path d="M49 38 H79 M49 50 H79 M49 62 H79 M49 74 H79" stroke="#33608c" stroke-width="2.4"/>
    <path d="M52 38 l3 3 M62 38 l3 3 M72 38 l3 3 M52 50 l3 3 M62 50 l3 3 M72 50 l3 3 M52 62 l3 3 M62 62 l3 3 M72 62 l3 3" stroke="#5b87b0" stroke-width="1.2" opacity=".7"/>
    <circle cx="53.50" cy="45.00" r="1.28" fill="#a9d9ff" opacity="0.75"/><circle cx="62.81" cy="58.00" r="1.45" fill="#a9d9ff" opacity="0.65"/><circle cx="71.38" cy="71.00" r="1.63" fill="#a9d9ff" opacity="0.55"/><circle cx="50.52" cy="32.00" r="1.10" fill="#a9d9ff" opacity="0.85"/><circle cx="61.02" cy="45.00" r="1.28" fill="#a9d9ff" opacity="0.75"/>
    <path d="M49 85.60 Q64 78.40 79 85.60 V92 Q76 98 70 99 H58 Q52 98 49 92Z" fill="#2c6ea8" opacity=".65"/>
    <path d="M44 30 H30 V58 H45 M84 78 H100 V96 H85" fill="none" stroke="#41586b" stroke-width="7"/>
    <path d="M44 30 H30 V58 H45 M84 78 H100 V96 H85" fill="none" stroke="#9dbdd4" stroke-width="1.3"/>
    <path d="M64 11 V4" stroke="#8fa4b5" stroke-width="5"/><path d="M64 11 V4" stroke="#2a3a48" stroke-width="1.8"/>
    <circle cx="49" cy="21" r="3" fill="#a5e1ff" stroke="#152331" stroke-width="1.4"/>
    <path d="M50 24 Q62 16 76 20" fill="none" stroke="#e2f3ff" stroke-width="2" opacity=".3"/>
  </g>
    </g>
<g transform="translate(384 0)" clip-path="url(#frame-clip)">
      <g filter="url(#shadow)">
    <ellipse cx="64" cy="111" rx="46" ry="8" fill="#020706" opacity=".62"/>
  <path d="M27 101 L23 113 H37 L40 101 M88 101 L92 113 H106 L101 101" fill="#253b35" stroke="#14201d" stroke-width="2.4" stroke-linecap="round" stroke-linejoin="round"/>
  <path d="M19 103 H109 L103 112 H25Z" fill="#1c2d28" stroke="#14201d" stroke-width="2.4" stroke-linecap="round" stroke-linejoin="round"/>
  <path d="M27 105 H101" stroke="#62aef5" stroke-width="1.4" opacity=".58"/>
    <path d="M44 22 Q44 12 64 11 Q84 12 84 22 V96 Q81 104 73 105 H55 Q47 104 44 96Z" fill="url(#body)" stroke="#14201d" stroke-width="2.4" stroke-linecap="round" stroke-linejoin="round"/>
    <path d="M49 26 H79 V92 Q76 98 70 99 H58 Q52 98 49 92Z" fill="#0e1c2b" stroke="#62aef5" stroke-width="1.7"/>
    <path d="M49 38 H79 M49 50 H79 M49 62 H79 M49 74 H79" stroke="#33608c" stroke-width="2.4"/>
    <path d="M52 38 l3 3 M62 38 l3 3 M72 38 l3 3 M52 50 l3 3 M62 50 l3 3 M72 50 l3 3 M52 62 l3 3 M62 62 l3 3 M72 62 l3 3" stroke="#5b87b0" stroke-width="1.2" opacity=".7"/>
    <circle cx="53.06" cy="51.50" r="1.36" fill="#a9d9ff" opacity="0.70"/><circle cx="61.68" cy="64.50" r="1.54" fill="#a9d9ff" opacity="0.60"/><circle cx="70.59" cy="77.50" r="1.71" fill="#a9d9ff" opacity="0.50"/><circle cx="50.80" cy="38.50" r="1.19" fill="#a9d9ff" opacity="0.80"/><circle cx="62.11" cy="51.50" r="1.36" fill="#a9d9ff" opacity="0.70"/>
    <path d="M49 85.13 Q64 78.87 79 85.13 V92 Q76 98 70 99 H58 Q52 98 49 92Z" fill="#2c6ea8" opacity=".65"/>
    <path d="M44 30 H30 V58 H45 M84 78 H100 V96 H85" fill="none" stroke="#41586b" stroke-width="7"/>
    <path d="M44 30 H30 V58 H45 M84 78 H100 V96 H85" fill="none" stroke="#9dbdd4" stroke-width="1.3"/>
    <path d="M64 11 V4" stroke="#8fa4b5" stroke-width="5"/><path d="M64 11 V4" stroke="#2a3a48" stroke-width="1.8"/>
    <circle cx="49" cy="21" r="3" fill="#a5e1ff" stroke="#152331" stroke-width="1.4"/>
    <path d="M50 24 Q62 16 76 20" fill="none" stroke="#e2f3ff" stroke-width="2" opacity=".3"/>
  </g>
    </g>
<g transform="translate(512 0)" clip-path="url(#frame-clip)">
      <g filter="url(#shadow)">
    <ellipse cx="64" cy="111" rx="46" ry="8" fill="#020706" opacity=".62"/>
  <path d="M27 101 L23 113 H37 L40 101 M88 101 L92 113 H106 L101 101" fill="#253b35" stroke="#14201d" stroke-width="2.4" stroke-linecap="round" stroke-linejoin="round"/>
  <path d="M19 103 H109 L103 112 H25Z" fill="#1c2d28" stroke="#14201d" stroke-width="2.4" stroke-linecap="round" stroke-linejoin="round"/>
  <path d="M27 105 H101" stroke="#62aef5" stroke-width="1.4" opacity=".58"/>
    <path d="M44 22 Q44 12 64 11 Q84 12 84 22 V96 Q81 104 73 105 H55 Q47 104 44 96Z" fill="url(#body)" stroke="#14201d" stroke-width="2.4" stroke-linecap="round" stroke-linejoin="round"/>
    <path d="M49 26 H79 V92 Q76 98 70 99 H58 Q52 98 49 92Z" fill="#0e1c2b" stroke="#62aef5" stroke-width="1.7"/>
    <path d="M49 38 H79 M49 50 H79 M49 62 H79 M49 74 H79" stroke="#33608c" stroke-width="2.4"/>
    <path d="M52 38 l3 3 M62 38 l3 3 M72 38 l3 3 M52 50 l3 3 M62 50 l3 3 M72 50 l3 3 M52 62 l3 3 M62 62 l3 3 M72 62 l3 3" stroke="#5b87b0" stroke-width="1.2" opacity=".7"/>
    <circle cx="52.00" cy="58.00" r="1.45" fill="#a9d9ff" opacity="0.65"/><circle cx="60.74" cy="71.00" r="1.63" fill="#a9d9ff" opacity="0.55"/><circle cx="70.64" cy="32.00" r="1.10" fill="#a9d9ff" opacity="0.85"/><circle cx="51.79" cy="45.00" r="1.28" fill="#a9d9ff" opacity="0.75"/><circle cx="63.14" cy="58.00" r="1.45" fill="#a9d9ff" opacity="0.65"/>
    <path d="M49 84.00 Q64 80.00 79 84.00 V92 Q76 98 70 99 H58 Q52 98 49 92Z" fill="#2c6ea8" opacity=".65"/>
    <path d="M44 30 H30 V58 H45 M84 78 H100 V96 H85" fill="none" stroke="#41586b" stroke-width="7"/>
    <path d="M44 30 H30 V58 H45 M84 78 H100 V96 H85" fill="none" stroke="#9dbdd4" stroke-width="1.3"/>
    <path d="M64 11 V4" stroke="#8fa4b5" stroke-width="5"/><path d="M64 11 V4" stroke="#2a3a48" stroke-width="1.8"/>
    <circle cx="49" cy="21" r="3" fill="#a5e1ff" stroke="#152331" stroke-width="1.4"/>
    <path d="M50 24 Q62 16 76 20" fill="none" stroke="#e2f3ff" stroke-width="2" opacity=".3"/>
  </g>
    </g>
<g transform="translate(640 0)" clip-path="url(#frame-clip)">
      <g filter="url(#shadow)">
    <ellipse cx="64" cy="111" rx="46" ry="8" fill="#020706" opacity=".62"/>
  <path d="M27 101 L23 113 H37 L40 101 M88 101 L92 113 H106 L101 101" fill="#253b35" stroke="#14201d" stroke-width="2.4" stroke-linecap="round" stroke-linejoin="round"/>
  <path d="M19 103 H109 L103 112 H25Z" fill="#1c2d28" stroke="#14201d" stroke-width="2.4" stroke-linecap="round" stroke-linejoin="round"/>
  <path d="M27 105 H101" stroke="#62aef5" stroke-width="1.4" opacity=".58"/>
    <path d="M44 22 Q44 12 64 11 Q84 12 84 22 V96 Q81 104 73 105 H55 Q47 104 44 96Z" fill="url(#body)" stroke="#14201d" stroke-width="2.4" stroke-linecap="round" stroke-linejoin="round"/>
    <path d="M49 26 H79 V92 Q76 98 70 99 H58 Q52 98 49 92Z" fill="#0e1c2b" stroke="#62aef5" stroke-width="1.7"/>
    <path d="M49 38 H79 M49 50 H79 M49 62 H79 M49 74 H79" stroke="#33608c" stroke-width="2.4"/>
    <path d="M52 38 l3 3 M62 38 l3 3 M72 38 l3 3 M52 50 l3 3 M62 50 l3 3 M72 50 l3 3 M52 62 l3 3 M62 62 l3 3 M72 62 l3 3" stroke="#5b87b0" stroke-width="1.2" opacity=".7"/>
    <circle cx="50.94" cy="64.50" r="1.54" fill="#a9d9ff" opacity="0.60"/><circle cx="60.53" cy="77.50" r="1.71" fill="#a9d9ff" opacity="0.50"/><circle cx="71.48" cy="38.50" r="1.19" fill="#a9d9ff" opacity="0.80"/><circle cx="52.90" cy="51.50" r="1.36" fill="#a9d9ff" opacity="0.70"/><circle cx="63.50" cy="64.50" r="1.54" fill="#a9d9ff" opacity="0.60"/>
    <path d="M49 82.87 Q64 81.13 79 82.87 V92 Q76 98 70 99 H58 Q52 98 49 92Z" fill="#2c6ea8" opacity=".65"/>
    <path d="M44 30 H30 V58 H45 M84 78 H100 V96 H85" fill="none" stroke="#41586b" stroke-width="7"/>
    <path d="M44 30 H30 V58 H45 M84 78 H100 V96 H85" fill="none" stroke="#9dbdd4" stroke-width="1.3"/>
    <path d="M64 11 V4" stroke="#8fa4b5" stroke-width="5"/><path d="M64 11 V4" stroke="#2a3a48" stroke-width="1.8"/>
    <circle cx="49" cy="21" r="3" fill="#a5e1ff" stroke="#152331" stroke-width="1.4"/>
    <path d="M50 24 Q62 16 76 20" fill="none" stroke="#e2f3ff" stroke-width="2" opacity=".3"/>
  </g>
    </g>
<g transform="translate(768 0)" clip-path="url(#frame-clip)">
      <g filter="url(#shadow)">
    <ellipse cx="64" cy="111" rx="46" ry="8" fill="#020706" opacity=".62"/>
  <path d="M27 101 L23 113 H37 L40 101 M88 101 L92 113 H106 L101 101" fill="#253b35" stroke="#14201d" stroke-width="2.4" stroke-linecap="round" stroke-linejoin="round"/>
  <path d="M19 103 H109 L103 112 H25Z" fill="#1c2d28" stroke="#14201d" stroke-width="2.4" stroke-linecap="round" stroke-linejoin="round"/>
  <path d="M27 105 H101" stroke="#62aef5" stroke-width="1.4" opacity=".58"/>
    <path d="M44 22 Q44 12 64 11 Q84 12 84 22 V96 Q81 104 73 105 H55 Q47 104 44 96Z" fill="url(#body)" stroke="#14201d" stroke-width="2.4" stroke-linecap="round" stroke-linejoin="round"/>
    <path d="M49 26 H79 V92 Q76 98 70 99 H58 Q52 98 49 92Z" fill="#0e1c2b" stroke="#62aef5" stroke-width="1.7"/>
    <path d="M49 38 H79 M49 50 H79 M49 62 H79 M49 74 H79" stroke="#33608c" stroke-width="2.4"/>
    <path d="M52 38 l3 3 M62 38 l3 3 M72 38 l3 3 M52 50 l3 3 M62 50 l3 3 M72 50 l3 3 M52 62 l3 3 M62 62 l3 3 M72 62 l3 3" stroke="#5b87b0" stroke-width="1.2" opacity=".7"/>
    <circle cx="50.50" cy="71.00" r="1.63" fill="#a9d9ff" opacity="0.55"/><circle cx="61.19" cy="32.00" r="1.10" fill="#a9d9ff" opacity="0.85"/><circle cx="72.62" cy="45.00" r="1.28" fill="#a9d9ff" opacity="0.75"/><circle cx="53.48" cy="58.00" r="1.45" fill="#a9d9ff" opacity="0.65"/><circle cx="62.98" cy="71.00" r="1.63" fill="#a9d9ff" opacity="0.55"/>
    <path d="M49 82.40 Q64 81.60 79 82.40 V92 Q76 98 70 99 H58 Q52 98 49 92Z" fill="#2c6ea8" opacity=".65"/>
    <path d="M44 30 H30 V58 H45 M84 78 H100 V96 H85" fill="none" stroke="#41586b" stroke-width="7"/>
    <path d="M44 30 H30 V58 H45 M84 78 H100 V96 H85" fill="none" stroke="#9dbdd4" stroke-width="1.3"/>
    <path d="M64 11 V4" stroke="#8fa4b5" stroke-width="5"/><path d="M64 11 V4" stroke="#2a3a48" stroke-width="1.8"/>
    <circle cx="49" cy="21" r="3" fill="#a5e1ff" stroke="#152331" stroke-width="1.4"/>
    <path d="M50 24 Q62 16 76 20" fill="none" stroke="#e2f3ff" stroke-width="2" opacity=".3"/>
  </g>
    </g>
<g transform="translate(896 0)" clip-path="url(#frame-clip)">
      <g filter="url(#shadow)">
    <ellipse cx="64" cy="111" rx="46" ry="8" fill="#020706" opacity=".62"/>
  <path d="M27 101 L23 113 H37 L40 101 M88 101 L92 113 H106 L101 101" fill="#253b35" stroke="#14201d" stroke-width="2.4" stroke-linecap="round" stroke-linejoin="round"/>
  <path d="M19 103 H109 L103 112 H25Z" fill="#1c2d28" stroke="#14201d" stroke-width="2.4" stroke-linecap="round" stroke-linejoin="round"/>
  <path d="M27 105 H101" stroke="#62aef5" stroke-width="1.4" opacity=".58"/>
    <path d="M44 22 Q44 12 64 11 Q84 12 84 22 V96 Q81 104 73 105 H55 Q47 104 44 96Z" fill="url(#body)" stroke="#14201d" stroke-width="2.4" stroke-linecap="round" stroke-linejoin="round"/>
    <path d="M49 26 H79 V92 Q76 98 70 99 H58 Q52 98 49 92Z" fill="#0e1c2b" stroke="#62aef5" stroke-width="1.7"/>
    <path d="M49 38 H79 M49 50 H79 M49 62 H79 M49 74 H79" stroke="#33608c" stroke-width="2.4"/>
    <path d="M52 38 l3 3 M62 38 l3 3 M72 38 l3 3 M52 50 l3 3 M62 50 l3 3 M72 50 l3 3 M52 62 l3 3 M62 62 l3 3 M72 62 l3 3" stroke="#5b87b0" stroke-width="1.2" opacity=".7"/>
    <circle cx="50.94" cy="77.50" r="1.71" fill="#a9d9ff" opacity="0.50"/><circle cx="62.32" cy="38.50" r="1.19" fill="#a9d9ff" opacity="0.80"/><circle cx="73.41" cy="51.50" r="1.36" fill="#a9d9ff" opacity="0.70"/><circle cx="53.20" cy="64.50" r="1.54" fill="#a9d9ff" opacity="0.60"/><circle cx="61.89" cy="77.50" r="1.71" fill="#a9d9ff" opacity="0.50"/>
    <path d="M49 82.87 Q64 81.13 79 82.87 V92 Q76 98 70 99 H58 Q52 98 49 92Z" fill="#2c6ea8" opacity=".65"/>
    <path d="M44 30 H30 V58 H45 M84 78 H100 V96 H85" fill="none" stroke="#41586b" stroke-width="7"/>
    <path d="M44 30 H30 V58 H45 M84 78 H100 V96 H85" fill="none" stroke="#9dbdd4" stroke-width="1.3"/>
    <path d="M64 11 V4" stroke="#8fa4b5" stroke-width="5"/><path d="M64 11 V4" stroke="#2a3a48" stroke-width="1.8"/>
    <circle cx="49" cy="21" r="3" fill="#a5e1ff" stroke="#152331" stroke-width="1.4"/>
    <path d="M50 24 Q62 16 76 20" fill="none" stroke="#e2f3ff" stroke-width="2" opacity=".3"/>
  </g>
    </g>
  </svg>
