<svg xmlns="http://www.w3.org/2000/svg"
    width="1024" height="128"
    viewBox="0 0 1024 128"
    role="img" aria-label="Catalytic burner sprite sheet">
    <defs>
  <linearGradient id="body" x1="0" y1="0" x2="0.9" y2="1">
    <stop offset="0" stop-color="#dc9a91"/>
    <stop offset="0.48" stop-color="#94413d"/>
    <stop offset="1" stop-color="#5c2626"/>
  </linearGradient>
  <linearGradient id="shell" x1="0.12" y1="0" x2="0.84" y2="1">
    <stop offset="0" stop-color="#dc9a91"/>
    <stop offset="0.22" stop-color="#94413d"/>
    <stop offset="0.7" stop-color="#5c2626"/>
    <stop offset="1" stop-color="#111c1a"/>
  </linearGradient>
  <radialGradient id="glow">
    <stop offset="0" stop-color="#ffffff" stop-opacity="0.96"/>
    <stop offset="0.28" stop-color="#ffb168" stop-opacity="0.9"/>
    <stop offset="1" stop-color="#f56262" stop-opacity="0"/>
  </radialGradient>
  <filter id="shadow" x="-40%" y="-40%" width="180%" height="190%">
    <feDropShadow dx="0" dy="2.5" stdDeviation="2.4" flood-color="#020908" flood-opacity="0.76"/>
  </filter>
  <filter id="soft-glow" x="-70%" y="-70%" width="240%" height="240%">
    <feGaussianBlur stdDeviation="2.2" result="blur"/>
    <feMerge><feMergeNode in="blur"/><feMergeNode in="SourceGraphic"/></feMerge>
  </filter>
  <clipPath id="frame-clip"><rect width="128" height="128"/></clipPath></defs>
    <g transform="translate(0 0)" clip-path="url(#frame-clip)">
      <g filter="url(#shadow)">
    <ellipse cx="64" cy="111" rx="46" ry="8" fill="#020706" opacity=".62"/>
  <path d="M27 101 L23 113 H37 L40 101 M88 101 L92 113 H106 L101 101" fill="#253b35" stroke="#14201d" stroke-width="2.4" stroke-linecap="round" stroke-linejoin="round"/>
  <path d="M19 103 H109 L103 112 H25Z" fill="#1c2d28" stroke="#14201d" stroke-width="2.4" stroke-linecap="round" stroke-linejoin="round"/>
  <path d="M27 105 H101" stroke="#f56262" stroke-width="1.4" opacity=".58"/>
    <path d="M34 96 L46 33 H82 L94 96 Q90 104 82 105 H46 Q38 104 34 96Z" fill="url(#body)" stroke="#14201d" stroke-width="2.4" stroke-linecap="round" stroke-linejoin="round"/>
    <path d="M46 40 H82 L88 90 H40Z" fill="#200d0d" stroke="#f56262" stroke-width="1.7"/>
    <path d="M44 52 H84 M43 62 H85" stroke="#95403c" stroke-width="1.6" opacity=".85"/>
    <path d="M42 47 H86" stroke="#ffd9a1" stroke-width="3.4" opacity="0.75" filter="url(#soft-glow)"/>
    <path d="M44 47 l4 -3 M52 47 l4 -3 M60 47 l4 -3 M68 47 l4 -3 M76 47 l4 -3 M84 47 l-2 -3" stroke="#f2b98a" stroke-width="1.2" opacity=".8"/>
    <path d="M50 78 Q50.00 66.00 50 58.00" fill="none" stroke="#ffb168" stroke-width="2.6" opacity="0.50"/><path d="M59 78 Q63.00 62.00 59 52.40" fill="none" stroke="#ffb168" stroke-width="2.6" opacity="0.74"/><path d="M68 78 Q67.77 65.77 68 57.67" fill="none" stroke="#ffb168" stroke-width="2.6" opacity="0.50"/><path d="M77 78 Q73.02 62.02 77 52.42" fill="none" stroke="#ffb168" stroke-width="2.6" opacity="0.74"/>
    <circle cx="64.00" cy="72.75" r="1.57" fill="#ffd9a1" opacity="0.61"/>
    <path d="M46 33 H82 V21 Q73 15 64 15 Q55 15 46 21Z" fill="#3a2020" stroke="#14201d" stroke-width="2.4" stroke-linecap="round" stroke-linejoin="round"/>
    <path d="M52 21 H76" stroke="#e59a9a" stroke-width="1.4" opacity=".7"/>
    <path d="M34 68 H21 V90 H36 M94 68 H107 V90 H92" fill="none" stroke="#6b4444" stroke-width="7"/>
    <path d="M34 68 H21 V90 H36 M94 68 H107 V90 H92" fill="none" stroke="#c99a9a" stroke-width="1.3"/>
    <circle cx="64" cy="26" r="3" fill="#ffd27f" stroke="#2a1616" stroke-width="1.4"/>
    <path d="M50 28 Q64 20 80 26" fill="none" stroke="#ffe9e0" stroke-width="2" opacity=".3"/>
  </g>
    </g>
<g transform="translate(128 0)" clip-path="url(#frame-clip)">
      <g filter="url(#shadow)">
    <ellipse cx="64" cy="111" rx="46" ry="8" fill="#020706" opacity=".62"/>
  <path d="M27 101 L23 113 H37 L40 101 M88 101 L92 113 H106 L101 101" fill="#253b35" stroke="#14201d" stroke-width="2.4" stroke-linecap="round" stroke-linejoin="round"/>
  <path d="M19 103 H109 L103 112 H25Z" fill="#1c2d28" stroke="#14201d" stroke-width="2.4" stroke-linecap="round" stroke-linejoin="round"/>
  <path d="M27 105 H101" stroke="#f56262" stroke-width="1.4" opacity=".58"/>
    <path d="M34 96 L46 33 H82 L94 96 Q90 104 82 105 H46 Q38 104 34 96Z" fill="url(#body)" stroke="#14201d" stroke-width="2.4" stroke-linecap="round" stroke-linejoin="round"/>
    <path d="M46 40 H82 L88 90 H40Z" fill="#200d0d" stroke="#f56262" stroke-width="1.7"/>
    <path d="M44 52 H84 M43 62 H85" stroke="#95403c" stroke-width="1.6" opacity=".85"/>
    <path d="M42 47 H86" stroke="#ffd9a1" stroke-width="3.4" opacity="0.95" filter="url(#soft-glow)"/>
    <path d="M44 47 l4 -3 M52 47 l4 -3 M60 47 l4 -3 M68 47 l4 -3 M76 47 l4 -3 M84 47 l-2 -3" stroke="#f2b98a" stroke-width="1.2" opacity=".8"/>
    <path d="M50 78 Q54.00 62.00 50 52.40" fill="none" stroke="#ffb168" stroke-width="2.6" opacity="0.50"/><path d="M59 78 Q58.88 65.88 59 57.84" fill="none" stroke="#ffb168" stroke-width="2.6" opacity="0.74"/><path d="M68 78 Q64.01 62.01 68 52.41" fill="none" stroke="#ffb168" stroke-width="2.6" opacity="0.50"/><path d="M77 78 Q77.35 65.65 77 57.51" fill="none" stroke="#ffb168" stroke-width="2.6" opacity="0.74"/>
    <circle cx="66.12" cy="69.00" r="1.70" fill="#ffd9a1" opacity="0.55"/>
    <path d="M46 33 H82 V21 Q73 15 64 15 Q55 15 46 21Z" fill="#3a2020" stroke="#14201d" stroke-width="2.4" stroke-linecap="round" stroke-linejoin="round"/>
    <path d="M52 21 H76" stroke="#e59a9a" stroke-width="1.4" opacity=".7"/>
    <path d="M34 68 H21 V90 H36 M94 68 H107 V90 H92" fill="none" stroke="#6b4444" stroke-width="7"/>
    <path d="M34 68 H21 V90 H36 M94 68 H107 V90 H92" fill="none" stroke="#c99a9a" stroke-width="1.3"/>
    <circle cx="64" cy="26" r="3" fill="#ffd27f" stroke="#2a1616" stroke-width="1.4"/>
    <path d="M50 28 Q64 20 80 26" fill="none" stroke="#ffe9e0" stroke-width="2" opacity=".3"/>
  </g>
    </g>
<g transform="translate(256 0)" clip-path="url(#frame-clip)">
      <g filter="url(#shadow)">
    <ellipse cx="64" cy="111" rx="46" ry="8" fill="#020706" opacity=".62"/>
  <path d="M27 101 L23 113 H37 L40 101 M88 101 L92 113 H106 L101 101" fill="#253b35" stroke="#14201d" stroke-width="2.4" stroke-linecap="round" stroke-linejoin="round"/>
  <path d="M19 103 H109 L103 112 H25Z" fill="#1c2d28" stroke="#14201d" stroke-width="2.4" stroke-linecap="round" stroke-linejoin="round"/>
  <path d="M27 105 H101" stroke="#f56262" stroke-width="1.4" opacity=".58"/>
    <path d="M34 96 L46 33 H82 L94 96 Q90 104 82 105 H46 Q38 104 34 96Z" fill="url(#body)" stroke="#14201d" stroke-width="2.4" stroke-linecap="round" stroke-linejoin="round"/>
    <path d="M46 40 H82 L88 90 H40Z" fill="#200d0d" stroke="#f56262" stroke-width="1.7"/>
    <path d="M44 52 H84 M43 62 H85" stroke="#95403c" stroke-width="1.6" opacity=".85"/>
    <path d="M42 47 H86" stroke="#ffd9a1" stroke-width="3.4" opacity="0.75" filter="url(#soft-glow)"/>
    <path d="M44 47 l4 -3 M52 47 l4 -3 M60 47 l4 -3 M68 47 l4 -3 M76 47 l4 -3 M84 47 l-2 -3" stroke="#f2b98a" stroke-width="1.2" opacity=".8"/>
    <path d="M50 78 Q50.00 66.00 50 58.00" fill="none" stroke="#ffb168" stroke-width="2.6" opacity="0.50"/><path d="M59 78 Q55.00 62.00 59 52.40" fill="none" stroke="#ffb168" stroke-width="2.6" opacity="0.74"/><path d="M68 78 Q68.23 65.77 68 57.67" fill="none" stroke="#ffb168" stroke-width="2.6" opacity="0.50"/><path d="M77 78 Q80.98 62.02 77 52.42" fill="none" stroke="#ffb168" stroke-width="2.6" opacity="0.74"/>
    <circle cx="67.00" cy="65.25" r="1.82" fill="#ffd9a1" opacity="0.49"/>
    <path d="M46 33 H82 V21 Q73 15 64 15 Q55 15 46 21Z" fill="#3a2020" stroke="#14201d" stroke-width="2.4" stroke-linecap="round" stroke-linejoin="round"/>
    <path d="M52 21 H76" stroke="#e59a9a" stroke-width="1.4" opacity=".7"/>
    <path d="M34 68 H21 V90 H36 M94 68 H107 V90 H92" fill="none" stroke="#6b4444" stroke-width="7"/>
    <path d="M34 68 H21 V90 H36 M94 68 H107 V90 H92" fill="none" stroke="#c99a9a" stroke-width="1.3"/>
    <circle cx="64" cy="26" r="3" fill="#ffd27f" stroke="#2a1616" stroke-width="1.4"/>
    <path d="M50 28 Q64 20 80 26" fill="none" stroke="#ffe9e0" stroke-width="2" opacity=".3"/>
  </g>
    </g>
<g transform="translate(384 0)" clip-path="url(#frame-clip)">
      <g filter="url(#shadow)">
    <ellipse cx="64" cy="111" rx="46" ry="8" fill="#020706" opacity=".62"/>
  <path d="M27 101 L23 113 H37 L40 101 M88 101 L92 113 H106 L101 101" fill="#253b35" stroke="#14201d" stroke-width="2.4" stroke-linecap="round" stroke-linejoin="round"/>
  <path d="M19 103 H109 L103 112 H25Z" fill="#1c2d28" stroke="#14201d" stroke-width="2.4" stroke-linecap="round" stroke-linejoin="round"/>
  <path d="M27 105 H101" stroke="#f56262" stroke-width="1.4" opacity=".58"/>
    <path d="M34 96 L46 33 H82 L94 96 Q90 104 82 105 H46 Q38 104 34 96Z" fill="url(#body)" stroke="#14201d" stroke-width="2.4" stroke-linecap="round" stroke-linejoin="round"/>
    <path d="M46 40 H82 L88 90 H40Z" fill="#200d0d" stroke="#f56262" stroke-width="1.7"/>
    <path d="M44 52 H84 M43 62 H85" stroke="#95403c" stroke-width="1.6" opacity=".85"/>
    <path d="M42 47 H86" stroke="#ffd9a1" stroke-width="3.4" opacity="0.55" filter="url(#soft-glow)"/>
    <path d="M44 47 l4 -3 M52 47 l4 -3 M60 47 l4 -3 M68 47 l4 -3 M76 47 l4 -3 M84 47 l-2 -3" stroke="#f2b98a" stroke-width="1.2" opacity=".8"/>
    <path d="M50 78 Q46.00 62.00 50 52.40" fill="none" stroke="#ffb168" stroke-width="2.6" opacity="0.50"/><path d="M59 78 Q59.12 65.88 59 57.84" fill="none" stroke="#ffb168" stroke-width="2.6" opacity="0.74"/><path d="M68 78 Q71.99 62.01 68 52.41" fill="none" stroke="#ffb168" stroke-width="2.6" opacity="0.50"/><path d="M77 78 Q76.65 65.65 77 57.51" fill="none" stroke="#ffb168" stroke-width="2.6" opacity="0.74"/>
    <circle cx="66.12" cy="61.50" r="1.95" fill="#ffd9a1" opacity="0.43"/>
    <path d="M46 33 H82 V21 Q73 15 64 15 Q55 15 46 21Z" fill="#3a2020" stroke="#14201d" stroke-width="2.4" stroke-linecap="round" stroke-linejoin="round"/>
    <path d="M52 21 H76" stroke="#e59a9a" stroke-width="1.4" opacity=".7"/>
    <path d="M34 68 H21 V90 H36 M94 68 H107 V90 H92" fill="none" stroke="#6b4444" stroke-width="7"/>
    <path d="M34 68 H21 V90 H36 M94 68 H107 V90 H92" fill="none" stroke="#c99a9a" stroke-width="1.3"/>
    <circle cx="64" cy="26" r="3" fill="#ffd27f" stroke="#2a1616" stroke-width="1.4"/>
    <path d="M50 28 Q64 20 80 26" fill="none" stroke="#ffe9e0" stroke-width="2" opacity=".3"/>
  </g>
    </g>
<g transform="translate(512 0)" clip-path="url(#frame-clip)">
      <g filter="url(#shadow)">
    <ellipse cx="64" cy="111" rx="46" ry="8" fill="#020706" opacity=".62"/>
  <path d="M27 101 L23 113 H37 L40 101 M88 101 L92 113 H106 L101 101" fill="#253b35" stroke="#14201d" stroke-width="2.4" stroke-linecap="round" stroke-linejoin="round"/>
  <path d="M19 103 H109 L103 112 H25Z" fill="#1c2d28" stroke="#14201d" stroke-width="2.4" stroke-linecap="round" stroke-linejoin="round"/>
  <path d="M27 105 H101" stroke="#f56262" stroke-width="1.4" opacity=".58"/>
    <path d="M34 96 L46 33 H82 L94 96 Q90 104 82 105 H46 Q38 104 34 96Z" fill="url(#body)" stroke="#14201d" stroke-width="2.4" stroke-linecap="round" stroke-linejoin="round"/>
    <path d="M46 40 H82 L88 90 H40Z" fill="#200d0d" stroke="#f56262" stroke-width="1.7"/>
    <path d="M44 52 H84 M43 62 H85" stroke="#95403c" stroke-width="1.6" opacity=".85"/>
    <path d="M42 47 H86" stroke="#ffd9a1" stroke-width="3.4" opacity="0.75" filter="url(#soft-glow)"/>
    <path d="M44 47 l4 -3 M52 47 l4 -3 M60 47 l4 -3 M68 47 l4 -3 M76 47 l4 -3 M84 47 l-2 -3" stroke="#f2b98a" stroke-width="1.2" opacity=".8"/>
    <path d="M50 78 Q50.00 66.00 50 58.00" fill="none" stroke="#ffb168" stroke-width="2.6" opacity="0.50"/><path d="M59 78 Q63.00 62.00 59 52.40" fill="none" stroke="#ffb168" stroke-width="2.6" opacity="0.74"/><path d="M68 78 Q67.77 65.77 68 57.67" fill="none" stroke="#ffb168" stroke-width="2.6" opacity="0.50"/><path d="M77 78 Q73.02 62.02 77 52.42" fill="none" stroke="#ffb168" stroke-width="2.6" opacity="0.74"/>
    <circle cx="64.00" cy="57.75" r="2.08" fill="#ffd9a1" opacity="0.36"/>
    <path d="M46 33 H82 V21 Q73 15 64 15 Q55 15 46 21Z" fill="#3a2020" stroke="#14201d" stroke-width="2.4" stroke-linecap="round" stroke-linejoin="round"/>
    <path d="M52 21 H76" stroke="#e59a9a" stroke-width="1.4" opacity=".7"/>
    <path d="M34 68 H21 V90 H36 M94 68 H107 V90 H92" fill="none" stroke="#6b4444" stroke-width="7"/>
    <path d="M34 68 H21 V90 H36 M94 68 H107 V90 H92" fill="none" stroke="#c99a9a" stroke-width="1.3"/>
    <circle cx="64" cy="26" r="3" fill="#ffd27f" stroke="#2a1616" stroke-width="1.4"/>
    <path d="M50 28 Q64 20 80 26" fill="none" stroke="#ffe9e0" stroke-width="2" opacity=".3"/>
  </g>
    </g>
<g transform="translate(640 0)" clip-path="url(#frame-clip)">
      <g filter="url(#shadow)">
    <ellipse cx="64" cy="111" rx="46" ry="8" fill="#020706" opacity=".62"/>
  <path d="M27 101 L23 113 H37 L40 101 M88 101 L92 113 H106 L101 101" fill="#253b35" stroke="#14201d" stroke-width="2.4" stroke-linecap="round" stroke-linejoin="round"/>
  <path d="M19 103 H109 L103 112 H25Z" fill="#1c2d28" stroke="#14201d" stroke-width="2.4" stroke-linecap="round" stroke-linejoin="round"/>
  <path d="M27 105 H101" stroke="#f56262" stroke-width="1.4" opacity=".58"/>
    <path d="M34 96 L46 33 H82 L94 96 Q90 104 82 105 H46 Q38 104 34 96Z" fill="url(#body)" stroke="#14201d" stroke-width="2.4" stroke-linecap="round" stroke-linejoin="round"/>
    <path d="M46 40 H82 L88 90 H40Z" fill="#200d0d" stroke="#f56262" stroke-width="1.7"/>
    <path d="M44 52 H84 M43 62 H85" stroke="#95403c" stroke-width="1.6" opacity=".85"/>
    <path d="M42 47 H86" stroke="#ffd9a1" stroke-width="3.4" opacity="0.95" filter="url(#soft-glow)"/>
    <path d="M44 47 l4 -3 M52 47 l4 -3 M60 47 l4 -3 M68 47 l4 -3 M76 47 l4 -3 M84 47 l-2 -3" stroke="#f2b98a" stroke-width="1.2" opacity=".8"/>
    <path d="M50 78 Q54.00 62.00 50 52.40" fill="none" stroke="#ffb168" stroke-width="2.6" opacity="0.50"/><path d="M59 78 Q58.88 65.88 59 57.84" fill="none" stroke="#ffb168" stroke-width="2.6" opacity="0.74"/><path d="M68 78 Q64.01 62.01 68 52.41" fill="none" stroke="#ffb168" stroke-width="2.6" opacity="0.50"/><path d="M77 78 Q77.35 65.65 77 57.51" fill="none" stroke="#ffb168" stroke-width="2.6" opacity="0.74"/>
    <circle cx="61.88" cy="84.00" r="1.20" fill="#ffd9a1" opacity="0.80"/>
    <path d="M46 33 H82 V21 Q73 15 64 15 Q55 15 46 21Z" fill="#3a2020" stroke="#14201d" stroke-width="2.4" stroke-linecap="round" stroke-linejoin="round"/>
    <path d="M52 21 H76" stroke="#e59a9a" stroke-width="1.4" opacity=".7"/>
    <path d="M34 68 H21 V90 H36 M94 68 H107 V90 H92" fill="none" stroke="#6b4444" stroke-width="7"/>
    <path d="M34 68 H21 V90 H36 M94 68 H107 V90 H92" fill="none" stroke="#c99a9a" stroke-width="1.3"/>
    <circle cx="64" cy="26" r="3" fill="#ffd27f" stroke="#2a1616" stroke-width="1.4"/>
    <path d="M50 28 Q64 20 80 26" fill="none" stroke="#ffe9e0" stroke-width="2" opacity=".3"/>
  </g>
    </g>
<g transform="translate(768 0)" clip-path="url(#frame-clip)">
      <g filter="url(#shadow)">
    <ellipse cx="64" cy="111" rx="46" ry="8" fill="#020706" opacity=".62"/>
  <path d="M27 101 L23 113 H37 L40 101 M88 101 L92 113 H106 L101 101" fill="#253b35" stroke="#14201d" stroke-width="2.4" stroke-linecap="round" stroke-linejoin="round"/>
  <path d="M19 103 H109 L103 112 H25Z" fill="#1c2d28" stroke="#14201d" stroke-width="2.4" stroke-linecap="round" stroke-linejoin="round"/>
  <path d="M27 105 H101" stroke="#f56262" stroke-width="1.4" opacity=".58"/>
    <path d="M34 96 L46 33 H82 L94 96 Q90 104 82 105 H46 Q38 104 34 96Z" fill="url(#body)" stroke="#14201d" stroke-width="2.4" stroke-linecap="round" stroke-linejoin="round"/>
    <path d="M46 40 H82 L88 90 H40Z" fill="#200d0d" stroke="#f56262" stroke-width="1.7"/>
    <path d="M44 52 H84 M43 62 H85" stroke="#95403c" stroke-width="1.6" opacity=".85"/>
    <path d="M42 47 H86" stroke="#ffd9a1" stroke-width="3.4" opacity="0.75" filter="url(#soft-glow)"/>
    <path d="M44 47 l4 -3 M52 47 l4 -3 M60 47 l4 -3 M68 47 l4 -3 M76 47 l4 -3 M84 47 l-2 -3" stroke="#f2b98a" stroke-width="1.2" opacity=".8"/>
    <path d="M50 78 Q50.00 66.00 50 58.00" fill="none" stroke="#ffb168" stroke-width="2.6" opacity="0.50"/><path d="M59 78 Q55.00 62.00 59 52.40" fill="none" stroke="#ffb168" stroke-width="2.6" opacity="0.74"/><path d="M68 78 Q68.23 65.77 68 57.67" fill="none" stroke="#ffb168" stroke-width="2.6" opacity="0.50"/><path d="M77 78 Q80.98 62.02 77 52.42" fill="none" stroke="#ffb168" stroke-width="2.6" opacity="0.74"/>
    <circle cx="61.00" cy="80.25" r="1.32" fill="#ffd9a1" opacity="0.74"/>
    <path d="M46 33 H82 V21 Q73 15 64 15 Q55 15 46 21Z" fill="#3a2020" stroke="#14201d" stroke-width="2.4" stroke-linecap="round" stroke-linejoin="round"/>
    <path d="M52 21 H76" stroke="#e59a9a" stroke-width="1.4" opacity=".7"/>
    <path d="M34 68 H21 V90 H36 M94 68 H107 V90 H92" fill="none" stroke="#6b4444" stroke-width="7"/>
    <path d="M34 68 H21 V90 H36 M94 68 H107 V90 H92" fill="none" stroke="#c99a9a" stroke-width="1.3"/>
    <circle cx="64" cy="26" r="3" fill="#ffd27f" stroke="#2a1616" stroke-width="1.4"/>
    <path d="M50 28 Q64 20 80 26" fill="none" stroke="#ffe9e0" stroke-width="2" opacity=".3"/>
  </g>
    </g>
<g transform="translate(896 0)" clip-path="url(#frame-clip)">
      <g filter="url(#shadow)">
    <ellipse cx="64" cy="111" rx="46" ry="8" fill="#020706" opacity=".62"/>
  <path d="M27 101 L23 113 H37 L40 101 M88 101 L92 113 H106 L101 101" fill="#253b35" stroke="#14201d" stroke-width="2.4" stroke-linecap="round" stroke-linejoin="round"/>
  <path d="M19 103 H109 L103 112 H25Z" fill="#1c2d28" stroke="#14201d" stroke-width="2.4" stroke-linecap="round" stroke-linejoin="round"/>
  <path d="M27 105 H101" stroke="#f56262" stroke-width="1.4" opacity=".58"/>
    <path d="M34 96 L46 33 H82 L94 96 Q90 104 82 105 H46 Q38 104 34 96Z" fill="url(#body)" stroke="#14201d" stroke-width="2.4" stroke-linecap="round" stroke-linejoin="round"/>
    <path d="M46 40 H82 L88 90 H40Z" fill="#200d0d" stroke="#f56262" stroke-width="1.7"/>
    <path d="M44 52 H84 M43 62 H85" stroke="#95403c" stroke-width="1.6" opacity=".85"/>
    <path d="M42 47 H86" stroke="#ffd9a1" stroke-width="3.4" opacity="0.55" filter="url(#soft-glow)"/>
    <path d="M44 47 l4 -3 M52 47 l4 -3 M60 47 l4 -3 M68 47 l4 -3 M76 47 l4 -3 M84 47 l-2 -3" stroke="#f2b98a" stroke-width="1.2" opacity=".8"/>
    <path d="M50 78 Q46.00 62.00 50 52.40" fill="none" stroke="#ffb168" stroke-width="2.6" opacity="0.50"/><path d="M59 78 Q59.12 65.88 59 57.84" fill="none" stroke="#ffb168" stroke-width="2.6" opacity="0.74"/><path d="M68 78 Q71.99 62.01 68 52.41" fill="none" stroke="#ffb168" stroke-width="2.6" opacity="0.50"/><path d="M77 78 Q76.65 65.65 77 57.51" fill="none" stroke="#ffb168" stroke-width="2.6" opacity="0.74"/>
    <circle cx="61.88" cy="76.50" r="1.45" fill="#ffd9a1" opacity="0.68"/>
    <path d="M46 33 H82 V21 Q73 15 64 15 Q55 15 46 21Z" fill="#3a2020" stroke="#14201d" stroke-width="2.4" stroke-linecap="round" stroke-linejoin="round"/>
    <path d="M52 21 H76" stroke="#e59a9a" stroke-width="1.4" opacity=".7"/>
    <path d="M34 68 H21 V90 H36 M94 68 H107 V90 H92" fill="none" stroke="#6b4444" stroke-width="7"/>
    <path d="M34 68 H21 V90 H36 M94 68 H107 V90 H92" fill="none" stroke="#c99a9a" stroke-width="1.3"/>
    <circle cx="64" cy="26" r="3" fill="#ffd27f" stroke="#2a1616" stroke-width="1.4"/>
    <path d="M50 28 Q64 20 80 26" fill="none" stroke="#ffe9e0" stroke-width="2" opacity=".3"/>
  </g>
    </g>
  </svg>
