<svg xmlns="http://www.w3.org/2000/svg"
    width="1024" height="128"
    viewBox="0 0 1024 128"
    role="img" aria-label="Gas agitator sprite sheet">
    <defs>
  <linearGradient id="body" x1="0" y1="0" x2="0.9" y2="1">
    <stop offset="0" stop-color="#a6c9bc"/>
    <stop offset="0.48" stop-color="#527c71"/>
    <stop offset="1" stop-color="#294c45"/>
  </linearGradient>
  <linearGradient id="shell" x1="0.12" y1="0" x2="0.84" y2="1">
    <stop offset="0" stop-color="#a6c9bc"/>
    <stop offset="0.22" stop-color="#527c71"/>
    <stop offset="0.7" stop-color="#294c45"/>
    <stop offset="1" stop-color="#111c1a"/>
  </linearGradient>
  <radialGradient id="glow">
    <stop offset="0" stop-color="#ffffff" stop-opacity="0.96"/>
    <stop offset="0.28" stop-color="#9efff3" stop-opacity="0.9"/>
    <stop offset="1" stop-color="#65cfc4" stop-opacity="0"/>
  </radialGradient>
  <filter id="shadow" x="-40%" y="-40%" width="180%" height="190%">
    <feDropShadow dx="0" dy="2.5" stdDeviation="2.4" flood-color="#020908" flood-opacity="0.76"/>
  </filter>
  <filter id="soft-glow" x="-70%" y="-70%" width="240%" height="240%">
    <feGaussianBlur stdDeviation="2.2" result="blur"/>
    <feMerge><feMergeNode in="blur"/><feMergeNode in="SourceGraphic"/></feMerge>
  </filter>
  <clipPath id="frame-clip"><rect width="128" height="128"/></clipPath></defs>
    <g transform="translate(0 0)" clip-path="url(#frame-clip)">
      <g filter="url(#shadow)">
    <ellipse cx="64" cy="111" rx="46" ry="8" fill="#020706" opacity=".62"/>
  <path d="M27 101 L23 113 H37 L40 101 M88 101 L92 113 H106 L101 101" fill="#253b35" stroke="#14201d" stroke-width="2.4" stroke-linecap="round" stroke-linejoin="round"/>
  <path d="M19 103 H109 L103 112 H25Z" fill="#1c2d28" stroke="#14201d" stroke-width="2.4" stroke-linecap="round" stroke-linejoin="round"/>
  <path d="M27 105 H101" stroke="#65cfc4" stroke-width="1.4" opacity=".58"/>
    <path d="M31 46 Q31 38 40 37 H88 Q97 38 97 46 V96 Q94 103 85 105 H43 Q34 103 31 96Z" fill="url(#body)" stroke="#14201d" stroke-width="2.4" stroke-linecap="round" stroke-linejoin="round"/>
    <path d="M36 51 H92 V92 Q89 98 82 99 H46 Q39 98 36 92Z" fill="#102a27" stroke="#6ecfc4" stroke-width="1.7"/>
    <path d="M39 80.00 Q51 75.00 64 80.00 T89 80.00 V94 H39Z" fill="#398f89" opacity=".5"/>
    <circle cx="64" cy="72" r="22" fill="#0a1816" stroke="#a5eee4" stroke-width="1.4" opacity=".95"/>
    <path d="M69.00,72.00 L82.26,77.25 L72.05,79.50Z" fill="#76ded2" opacity=".82"/><path d="M64.00,77.00 L58.75,90.26 L56.50,80.05Z" fill="#76ded2" opacity=".82"/><path d="M59.00,72.00 L45.74,66.75 L55.95,64.50Z" fill="#76ded2" opacity=".82"/><path d="M64.00,67.00 L69.25,53.74 L71.50,63.95Z" fill="#76ded2" opacity=".82"/><circle cx="64" cy="72" r="4.5" fill="#d7f8f3" stroke="#213c37" stroke-width="2"/>
    <path d="M64 49 V35" stroke="#a9bbb2" stroke-width="5"/><path d="M64 49 V35" stroke="#263c36" stroke-width="2.2"/>
    <rect x="46" y="18" width="36" height="20" rx="5" fill="#344c45" stroke="#14201d" stroke-width="2.4" stroke-linecap="round" stroke-linejoin="round"/>
    <path d="M51 22 H77 M51 27 H77 M51 32 H77" stroke="#8ba89c" stroke-width="1.3" opacity=".72"/>
    <circle cx="64" cy="28" r="7" fill="#172722" stroke="#65cfc4" stroke-width="1.4"/>
    <path d="M64 23 L68 29 L63 34 L59 28Z" fill="#9ef5eb" transform="rotate(0.00 64 28)"/>
    <path d="M97 57 H108 V84 H98" fill="none" stroke="#5d7c70" stroke-width="6"/><path d="M97 57 H108 V84 H98" fill="none" stroke="#a6bdb3" stroke-width="1.3"/>
    <circle cx="39" cy="44" r="3" fill="#caff85" stroke="#1b2824" stroke-width="1.4"/>
    <path d="M36 48 Q53 40 78 43" fill="none" stroke="#ddfff8" stroke-width="2" opacity=".34"/>
  </g>
    </g>
<g transform="translate(128 0)" clip-path="url(#frame-clip)">
      <g filter="url(#shadow)">
    <ellipse cx="64" cy="111" rx="46" ry="8" fill="#020706" opacity=".62"/>
  <path d="M27 101 L23 113 H37 L40 101 M88 101 L92 113 H106 L101 101" fill="#253b35" stroke="#14201d" stroke-width="2.4" stroke-linecap="round" stroke-linejoin="round"/>
  <path d="M19 103 H109 L103 112 H25Z" fill="#1c2d28" stroke="#14201d" stroke-width="2.4" stroke-linecap="round" stroke-linejoin="round"/>
  <path d="M27 105 H101" stroke="#65cfc4" stroke-width="1.4" opacity=".58"/>
    <path d="M31 46 Q31 38 40 37 H88 Q97 38 97 46 V96 Q94 103 85 105 H43 Q34 103 31 96Z" fill="url(#body)" stroke="#14201d" stroke-width="2.4" stroke-linecap="round" stroke-linejoin="round"/>
    <path d="M36 51 H92 V92 Q89 98 82 99 H46 Q39 98 36 92Z" fill="#102a27" stroke="#6ecfc4" stroke-width="1.7"/>
    <path d="M39 81.70 Q51 73.30 64 81.70 T89 81.70 V94 H39Z" fill="#398f89" opacity=".5"/>
    <circle cx="64" cy="72" r="22" fill="#0a1816" stroke="#a5eee4" stroke-width="1.4" opacity=".95"/>
    <path d="M67.54,75.54 L73.20,88.62 L64.39,82.99Z" fill="#76ded2" opacity=".82"/><path d="M60.46,75.54 L47.38,81.20 L53.01,72.39Z" fill="#76ded2" opacity=".82"/><path d="M60.46,68.46 L54.80,55.38 L63.61,61.01Z" fill="#76ded2" opacity=".82"/><path d="M67.54,68.46 L80.62,62.80 L74.99,71.61Z" fill="#76ded2" opacity=".82"/><circle cx="64" cy="72" r="4.5" fill="#d7f8f3" stroke="#213c37" stroke-width="2"/>
    <path d="M64 49 V35" stroke="#a9bbb2" stroke-width="5"/><path d="M64 49 V35" stroke="#263c36" stroke-width="2.2"/>
    <rect x="46" y="18" width="36" height="20" rx="5" fill="#344c45" stroke="#14201d" stroke-width="2.4" stroke-linecap="round" stroke-linejoin="round"/>
    <path d="M51 22 H77 M51 27 H77 M51 32 H77" stroke="#8ba89c" stroke-width="1.3" opacity=".72"/>
    <circle cx="64" cy="28" r="7" fill="#172722" stroke="#65cfc4" stroke-width="1.4"/>
    <path d="M64 23 L68 29 L63 34 L59 28Z" fill="#9ef5eb" transform="rotate(45.00 64 28)"/>
    <path d="M97 57 H108 V84 H98" fill="none" stroke="#5d7c70" stroke-width="6"/><path d="M97 57 H108 V84 H98" fill="none" stroke="#a6bdb3" stroke-width="1.3"/>
    <circle cx="39" cy="44" r="3" fill="#caff85" stroke="#1b2824" stroke-width="1.4"/>
    <path d="M36 48 Q53 40 78 43" fill="none" stroke="#ddfff8" stroke-width="2" opacity=".34"/>
  </g>
    </g>
<g transform="translate(256 0)" clip-path="url(#frame-clip)">
      <g filter="url(#shadow)">
    <ellipse cx="64" cy="111" rx="46" ry="8" fill="#020706" opacity=".62"/>
  <path d="M27 101 L23 113 H37 L40 101 M88 101 L92 113 H106 L101 101" fill="#253b35" stroke="#14201d" stroke-width="2.4" stroke-linecap="round" stroke-linejoin="round"/>
  <path d="M19 103 H109 L103 112 H25Z" fill="#1c2d28" stroke="#14201d" stroke-width="2.4" stroke-linecap="round" stroke-linejoin="round"/>
  <path d="M27 105 H101" stroke="#65cfc4" stroke-width="1.4" opacity=".58"/>
    <path d="M31 46 Q31 38 40 37 H88 Q97 38 97 46 V96 Q94 103 85 105 H43 Q34 103 31 96Z" fill="url(#body)" stroke="#14201d" stroke-width="2.4" stroke-linecap="round" stroke-linejoin="round"/>
    <path d="M36 51 H92 V92 Q89 98 82 99 H46 Q39 98 36 92Z" fill="#102a27" stroke="#6ecfc4" stroke-width="1.7"/>
    <path d="M39 82.40 Q51 72.60 64 82.40 T89 82.40 V94 H39Z" fill="#398f89" opacity=".5"/>
    <circle cx="64" cy="72" r="22" fill="#0a1816" stroke="#a5eee4" stroke-width="1.4" opacity=".95"/>
    <path d="M64.00,77.00 L58.75,90.26 L56.50,80.05Z" fill="#76ded2" opacity=".82"/><path d="M59.00,72.00 L45.74,66.75 L55.95,64.50Z" fill="#76ded2" opacity=".82"/><path d="M64.00,67.00 L69.25,53.74 L71.50,63.95Z" fill="#76ded2" opacity=".82"/><path d="M69.00,72.00 L82.26,77.25 L72.05,79.50Z" fill="#76ded2" opacity=".82"/><circle cx="64" cy="72" r="4.5" fill="#d7f8f3" stroke="#213c37" stroke-width="2"/>
    <path d="M64 49 V35" stroke="#a9bbb2" stroke-width="5"/><path d="M64 49 V35" stroke="#263c36" stroke-width="2.2"/>
    <rect x="46" y="18" width="36" height="20" rx="5" fill="#344c45" stroke="#14201d" stroke-width="2.4" stroke-linecap="round" stroke-linejoin="round"/>
    <path d="M51 22 H77 M51 27 H77 M51 32 H77" stroke="#8ba89c" stroke-width="1.3" opacity=".72"/>
    <circle cx="64" cy="28" r="7" fill="#172722" stroke="#65cfc4" stroke-width="1.4"/>
    <path d="M64 23 L68 29 L63 34 L59 28Z" fill="#9ef5eb" transform="rotate(90.00 64 28)"/>
    <path d="M97 57 H108 V84 H98" fill="none" stroke="#5d7c70" stroke-width="6"/><path d="M97 57 H108 V84 H98" fill="none" stroke="#a6bdb3" stroke-width="1.3"/>
    <circle cx="39" cy="44" r="3" fill="#caff85" stroke="#1b2824" stroke-width="1.4"/>
    <path d="M36 48 Q53 40 78 43" fill="none" stroke="#ddfff8" stroke-width="2" opacity=".34"/>
  </g>
    </g>
<g transform="translate(384 0)" clip-path="url(#frame-clip)">
      <g filter="url(#shadow)">
    <ellipse cx="64" cy="111" rx="46" ry="8" fill="#020706" opacity=".62"/>
  <path d="M27 101 L23 113 H37 L40 101 M88 101 L92 113 H106 L101 101" fill="#253b35" stroke="#14201d" stroke-width="2.4" stroke-linecap="round" stroke-linejoin="round"/>
  <path d="M19 103 H109 L103 112 H25Z" fill="#1c2d28" stroke="#14201d" stroke-width="2.4" stroke-linecap="round" stroke-linejoin="round"/>
  <path d="M27 105 H101" stroke="#65cfc4" stroke-width="1.4" opacity=".58"/>
    <path d="M31 46 Q31 38 40 37 H88 Q97 38 97 46 V96 Q94 103 85 105 H43 Q34 103 31 96Z" fill="url(#body)" stroke="#14201d" stroke-width="2.4" stroke-linecap="round" stroke-linejoin="round"/>
    <path d="M36 51 H92 V92 Q89 98 82 99 H46 Q39 98 36 92Z" fill="#102a27" stroke="#6ecfc4" stroke-width="1.7"/>
    <path d="M39 81.70 Q51 73.30 64 81.70 T89 81.70 V94 H39Z" fill="#398f89" opacity=".5"/>
    <circle cx="64" cy="72" r="22" fill="#0a1816" stroke="#a5eee4" stroke-width="1.4" opacity=".95"/>
    <path d="M60.46,75.54 L47.38,81.20 L53.01,72.39Z" fill="#76ded2" opacity=".82"/><path d="M60.46,68.46 L54.80,55.38 L63.61,61.01Z" fill="#76ded2" opacity=".82"/><path d="M67.54,68.46 L80.62,62.80 L74.99,71.61Z" fill="#76ded2" opacity=".82"/><path d="M67.54,75.54 L73.20,88.62 L64.39,82.99Z" fill="#76ded2" opacity=".82"/><circle cx="64" cy="72" r="4.5" fill="#d7f8f3" stroke="#213c37" stroke-width="2"/>
    <path d="M64 49 V35" stroke="#a9bbb2" stroke-width="5"/><path d="M64 49 V35" stroke="#263c36" stroke-width="2.2"/>
    <rect x="46" y="18" width="36" height="20" rx="5" fill="#344c45" stroke="#14201d" stroke-width="2.4" stroke-linecap="round" stroke-linejoin="round"/>
    <path d="M51 22 H77 M51 27 H77 M51 32 H77" stroke="#8ba89c" stroke-width="1.3" opacity=".72"/>
    <circle cx="64" cy="28" r="7" fill="#172722" stroke="#65cfc4" stroke-width="1.4"/>
    <path d="M64 23 L68 29 L63 34 L59 28Z" fill="#9ef5eb" transform="rotate(135.00 64 28)"/>
    <path d="M97 57 H108 V84 H98" fill="none" stroke="#5d7c70" stroke-width="6"/><path d="M97 57 H108 V84 H98" fill="none" stroke="#a6bdb3" stroke-width="1.3"/>
    <circle cx="39" cy="44" r="3" fill="#caff85" stroke="#1b2824" stroke-width="1.4"/>
    <path d="M36 48 Q53 40 78 43" fill="none" stroke="#ddfff8" stroke-width="2" opacity=".34"/>
  </g>
    </g>
<g transform="translate(512 0)" clip-path="url(#frame-clip)">
      <g filter="url(#shadow)">
    <ellipse cx="64" cy="111" rx="46" ry="8" fill="#020706" opacity=".62"/>
  <path d="M27 101 L23 113 H37 L40 101 M88 101 L92 113 H106 L101 101" fill="#253b35" stroke="#14201d" stroke-width="2.4" stroke-linecap="round" stroke-linejoin="round"/>
  <path d="M19 103 H109 L103 112 H25Z" fill="#1c2d28" stroke="#14201d" stroke-width="2.4" stroke-linecap="round" stroke-linejoin="round"/>
  <path d="M27 105 H101" stroke="#65cfc4" stroke-width="1.4" opacity=".58"/>
    <path d="M31 46 Q31 38 40 37 H88 Q97 38 97 46 V96 Q94 103 85 105 H43 Q34 103 31 96Z" fill="url(#body)" stroke="#14201d" stroke-width="2.4" stroke-linecap="round" stroke-linejoin="round"/>
    <path d="M36 51 H92 V92 Q89 98 82 99 H46 Q39 98 36 92Z" fill="#102a27" stroke="#6ecfc4" stroke-width="1.7"/>
    <path d="M39 80.00 Q51 75.00 64 80.00 T89 80.00 V94 H39Z" fill="#398f89" opacity=".5"/>
    <circle cx="64" cy="72" r="22" fill="#0a1816" stroke="#a5eee4" stroke-width="1.4" opacity=".95"/>
    <path d="M59.00,72.00 L45.74,66.75 L55.95,64.50Z" fill="#76ded2" opacity=".82"/><path d="M64.00,67.00 L69.25,53.74 L71.50,63.95Z" fill="#76ded2" opacity=".82"/><path d="M69.00,72.00 L82.26,77.25 L72.05,79.50Z" fill="#76ded2" opacity=".82"/><path d="M64.00,77.00 L58.75,90.26 L56.50,80.05Z" fill="#76ded2" opacity=".82"/><circle cx="64" cy="72" r="4.5" fill="#d7f8f3" stroke="#213c37" stroke-width="2"/>
    <path d="M64 49 V35" stroke="#a9bbb2" stroke-width="5"/><path d="M64 49 V35" stroke="#263c36" stroke-width="2.2"/>
    <rect x="46" y="18" width="36" height="20" rx="5" fill="#344c45" stroke="#14201d" stroke-width="2.4" stroke-linecap="round" stroke-linejoin="round"/>
    <path d="M51 22 H77 M51 27 H77 M51 32 H77" stroke="#8ba89c" stroke-width="1.3" opacity=".72"/>
    <circle cx="64" cy="28" r="7" fill="#172722" stroke="#65cfc4" stroke-width="1.4"/>
    <path d="M64 23 L68 29 L63 34 L59 28Z" fill="#9ef5eb" transform="rotate(180.00 64 28)"/>
    <path d="M97 57 H108 V84 H98" fill="none" stroke="#5d7c70" stroke-width="6"/><path d="M97 57 H108 V84 H98" fill="none" stroke="#a6bdb3" stroke-width="1.3"/>
    <circle cx="39" cy="44" r="3" fill="#caff85" stroke="#1b2824" stroke-width="1.4"/>
    <path d="M36 48 Q53 40 78 43" fill="none" stroke="#ddfff8" stroke-width="2" opacity=".34"/>
  </g>
    </g>
<g transform="translate(640 0)" clip-path="url(#frame-clip)">
      <g filter="url(#shadow)">
    <ellipse cx="64" cy="111" rx="46" ry="8" fill="#020706" opacity=".62"/>
  <path d="M27 101 L23 113 H37 L40 101 M88 101 L92 113 H106 L101 101" fill="#253b35" stroke="#14201d" stroke-width="2.4" stroke-linecap="round" stroke-linejoin="round"/>
  <path d="M19 103 H109 L103 112 H25Z" fill="#1c2d28" stroke="#14201d" stroke-width="2.4" stroke-linecap="round" stroke-linejoin="round"/>
  <path d="M27 105 H101" stroke="#65cfc4" stroke-width="1.4" opacity=".58"/>
    <path d="M31 46 Q31 38 40 37 H88 Q97 38 97 46 V96 Q94 103 85 105 H43 Q34 103 31 96Z" fill="url(#body)" stroke="#14201d" stroke-width="2.4" stroke-linecap="round" stroke-linejoin="round"/>
    <path d="M36 51 H92 V92 Q89 98 82 99 H46 Q39 98 36 92Z" fill="#102a27" stroke="#6ecfc4" stroke-width="1.7"/>
    <path d="M39 78.30 Q51 76.70 64 78.30 T89 78.30 V94 H39Z" fill="#398f89" opacity=".5"/>
    <circle cx="64" cy="72" r="22" fill="#0a1816" stroke="#a5eee4" stroke-width="1.4" opacity=".95"/>
    <path d="M60.46,68.46 L54.80,55.38 L63.61,61.01Z" fill="#76ded2" opacity=".82"/><path d="M67.54,68.46 L80.62,62.80 L74.99,71.61Z" fill="#76ded2" opacity=".82"/><path d="M67.54,75.54 L73.20,88.62 L64.39,82.99Z" fill="#76ded2" opacity=".82"/><path d="M60.46,75.54 L47.38,81.20 L53.01,72.39Z" fill="#76ded2" opacity=".82"/><circle cx="64" cy="72" r="4.5" fill="#d7f8f3" stroke="#213c37" stroke-width="2"/>
    <path d="M64 49 V35" stroke="#a9bbb2" stroke-width="5"/><path d="M64 49 V35" stroke="#263c36" stroke-width="2.2"/>
    <rect x="46" y="18" width="36" height="20" rx="5" fill="#344c45" stroke="#14201d" stroke-width="2.4" stroke-linecap="round" stroke-linejoin="round"/>
    <path d="M51 22 H77 M51 27 H77 M51 32 H77" stroke="#8ba89c" stroke-width="1.3" opacity=".72"/>
    <circle cx="64" cy="28" r="7" fill="#172722" stroke="#65cfc4" stroke-width="1.4"/>
    <path d="M64 23 L68 29 L63 34 L59 28Z" fill="#9ef5eb" transform="rotate(225.00 64 28)"/>
    <path d="M97 57 H108 V84 H98" fill="none" stroke="#5d7c70" stroke-width="6"/><path d="M97 57 H108 V84 H98" fill="none" stroke="#a6bdb3" stroke-width="1.3"/>
    <circle cx="39" cy="44" r="3" fill="#caff85" stroke="#1b2824" stroke-width="1.4"/>
    <path d="M36 48 Q53 40 78 43" fill="none" stroke="#ddfff8" stroke-width="2" opacity=".34"/>
  </g>
    </g>
<g transform="translate(768 0)" clip-path="url(#frame-clip)">
      <g filter="url(#shadow)">
    <ellipse cx="64" cy="111" rx="46" ry="8" fill="#020706" opacity=".62"/>
  <path d="M27 101 L23 113 H37 L40 101 M88 101 L92 113 H106 L101 101" fill="#253b35" stroke="#14201d" stroke-width="2.4" stroke-linecap="round" stroke-linejoin="round"/>
  <path d="M19 103 H109 L103 112 H25Z" fill="#1c2d28" stroke="#14201d" stroke-width="2.4" stroke-linecap="round" stroke-linejoin="round"/>
  <path d="M27 105 H101" stroke="#65cfc4" stroke-width="1.4" opacity=".58"/>
    <path d="M31 46 Q31 38 40 37 H88 Q97 38 97 46 V96 Q94 103 85 105 H43 Q34 103 31 96Z" fill="url(#body)" stroke="#14201d" stroke-width="2.4" stroke-linecap="round" stroke-linejoin="round"/>
    <path d="M36 51 H92 V92 Q89 98 82 99 H46 Q39 98 36 92Z" fill="#102a27" stroke="#6ecfc4" stroke-width="1.7"/>
    <path d="M39 77.60 Q51 77.40 64 77.60 T89 77.60 V94 H39Z" fill="#398f89" opacity=".5"/>
    <circle cx="64" cy="72" r="22" fill="#0a1816" stroke="#a5eee4" stroke-width="1.4" opacity=".95"/>
    <path d="M64.00,67.00 L69.25,53.74 L71.50,63.95Z" fill="#76ded2" opacity=".82"/><path d="M69.00,72.00 L82.26,77.25 L72.05,79.50Z" fill="#76ded2" opacity=".82"/><path d="M64.00,77.00 L58.75,90.26 L56.50,80.05Z" fill="#76ded2" opacity=".82"/><path d="M59.00,72.00 L45.74,66.75 L55.95,64.50Z" fill="#76ded2" opacity=".82"/><circle cx="64" cy="72" r="4.5" fill="#d7f8f3" stroke="#213c37" stroke-width="2"/>
    <path d="M64 49 V35" stroke="#a9bbb2" stroke-width="5"/><path d="M64 49 V35" stroke="#263c36" stroke-width="2.2"/>
    <rect x="46" y="18" width="36" height="20" rx="5" fill="#344c45" stroke="#14201d" stroke-width="2.4" stroke-linecap="round" stroke-linejoin="round"/>
    <path d="M51 22 H77 M51 27 H77 M51 32 H77" stroke="#8ba89c" stroke-width="1.3" opacity=".72"/>
    <circle cx="64" cy="28" r="7" fill="#172722" stroke="#65cfc4" stroke-width="1.4"/>
    <path d="M64 23 L68 29 L63 34 L59 28Z" fill="#9ef5eb" transform="rotate(270.00 64 28)"/>
    <path d="M97 57 H108 V84 H98" fill="none" stroke="#5d7c70" stroke-width="6"/><path d="M97 57 H108 V84 H98" fill="none" stroke="#a6bdb3" stroke-width="1.3"/>
    <circle cx="39" cy="44" r="3" fill="#caff85" stroke="#1b2824" stroke-width="1.4"/>
    <path d="M36 48 Q53 40 78 43" fill="none" stroke="#ddfff8" stroke-width="2" opacity=".34"/>
  </g>
    </g>
<g transform="translate(896 0)" clip-path="url(#frame-clip)">
      <g filter="url(#shadow)">
    <ellipse cx="64" cy="111" rx="46" ry="8" fill="#020706" opacity=".62"/>
  <path d="M27 101 L23 113 H37 L40 101 M88 101 L92 113 H106 L101 101" fill="#253b35" stroke="#14201d" stroke-width="2.4" stroke-linecap="round" stroke-linejoin="round"/>
  <path d="M19 103 H109 L103 112 H25Z" fill="#1c2d28" stroke="#14201d" stroke-width="2.4" stroke-linecap="round" stroke-linejoin="round"/>
  <path d="M27 105 H101" stroke="#65cfc4" stroke-width="1.4" opacity=".58"/>
    <path d="M31 46 Q31 38 40 37 H88 Q97 38 97 46 V96 Q94 103 85 105 H43 Q34 103 31 96Z" fill="url(#body)" stroke="#14201d" stroke-width="2.4" stroke-linecap="round" stroke-linejoin="round"/>
    <path d="M36 51 H92 V92 Q89 98 82 99 H46 Q39 98 36 92Z" fill="#102a27" stroke="#6ecfc4" stroke-width="1.7"/>
    <path d="M39 78.30 Q51 76.70 64 78.30 T89 78.30 V94 H39Z" fill="#398f89" opacity=".5"/>
    <circle cx="64" cy="72" r="22" fill="#0a1816" stroke="#a5eee4" stroke-width="1.4" opacity=".95"/>
    <path d="M67.54,68.46 L80.62,62.80 L74.99,71.61Z" fill="#76ded2" opacity=".82"/><path d="M67.54,75.54 L73.20,88.62 L64.39,82.99Z" fill="#76ded2" opacity=".82"/><path d="M60.46,75.54 L47.38,81.20 L53.01,72.39Z" fill="#76ded2" opacity=".82"/><path d="M60.46,68.46 L54.80,55.38 L63.61,61.01Z" fill="#76ded2" opacity=".82"/><circle cx="64" cy="72" r="4.5" fill="#d7f8f3" stroke="#213c37" stroke-width="2"/>
    <path d="M64 49 V35" stroke="#a9bbb2" stroke-width="5"/><path d="M64 49 V35" stroke="#263c36" stroke-width="2.2"/>
    <rect x="46" y="18" width="36" height="20" rx="5" fill="#344c45" stroke="#14201d" stroke-width="2.4" stroke-linecap="round" stroke-linejoin="round"/>
    <path d="M51 22 H77 M51 27 H77 M51 32 H77" stroke="#8ba89c" stroke-width="1.3" opacity=".72"/>
    <circle cx="64" cy="28" r="7" fill="#172722" stroke="#65cfc4" stroke-width="1.4"/>
    <path d="M64 23 L68 29 L63 34 L59 28Z" fill="#9ef5eb" transform="rotate(315.00 64 28)"/>
    <path d="M97 57 H108 V84 H98" fill="none" stroke="#5d7c70" stroke-width="6"/><path d="M97 57 H108 V84 H98" fill="none" stroke="#a6bdb3" stroke-width="1.3"/>
    <circle cx="39" cy="44" r="3" fill="#caff85" stroke="#1b2824" stroke-width="1.4"/>
    <path d="M36 48 Q53 40 78 43" fill="none" stroke="#ddfff8" stroke-width="2" opacity=".34"/>
  </g>
    </g>
  </svg>
