<svg xmlns="http://www.w3.org/2000/svg"
    width="1024" height="128"
    viewBox="0 0 1024 128"
    role="img" aria-label="Packed bed sprite sheet">
    <defs>
  <linearGradient id="body" x1="0" y1="0" x2="0.9" y2="1">
    <stop offset="0" stop-color="#cbb282"/>
    <stop offset="0.48" stop-color="#7c6136"/>
    <stop offset="1" stop-color="#4c3a1f"/>
  </linearGradient>
  <linearGradient id="shell" x1="0.12" y1="0" x2="0.84" y2="1">
    <stop offset="0" stop-color="#cbb282"/>
    <stop offset="0.22" stop-color="#7c6136"/>
    <stop offset="0.7" stop-color="#4c3a1f"/>
    <stop offset="1" stop-color="#111c1a"/>
  </linearGradient>
  <radialGradient id="glow">
    <stop offset="0" stop-color="#ffffff" stop-opacity="0.96"/>
    <stop offset="0.28" stop-color="#e8d3a8" stop-opacity="0.9"/>
    <stop offset="1" stop-color="#b0854a" stop-opacity="0"/>
  </radialGradient>
  <filter id="shadow" x="-40%" y="-40%" width="180%" height="190%">
    <feDropShadow dx="0" dy="2.5" stdDeviation="2.4" flood-color="#020908" flood-opacity="0.76"/>
  </filter>
  <filter id="soft-glow" x="-70%" y="-70%" width="240%" height="240%">
    <feGaussianBlur stdDeviation="2.2" result="blur"/>
    <feMerge><feMergeNode in="blur"/><feMergeNode in="SourceGraphic"/></feMerge>
  </filter>
  <clipPath id="frame-clip"><rect width="128" height="128"/></clipPath></defs>
    <g transform="translate(0 0)" clip-path="url(#frame-clip)">
      <g filter="url(#shadow)">
    <ellipse cx="64" cy="111" rx="46" ry="8" fill="#020706" opacity=".62"/>
  <path d="M27 101 L23 113 H37 L40 101 M88 101 L92 113 H106 L101 101" fill="#253b35" stroke="#14201d" stroke-width="2.4" stroke-linecap="round" stroke-linejoin="round"/>
  <path d="M19 103 H109 L103 112 H25Z" fill="#1c2d28" stroke="#14201d" stroke-width="2.4" stroke-linecap="round" stroke-linejoin="round"/>
  <path d="M27 105 H101" stroke="#b0854a" stroke-width="1.4" opacity=".58"/>
    <path d="M27 40 L36 30 H92 L101 40 V97 Q97 105 89 105 H39 Q30 104 27 97Z" fill="url(#body)" stroke="#14201d" stroke-width="2.4" stroke-linecap="round" stroke-linejoin="round"/>
    <path d="M33 45 H95 V92 Q92 98 86 99 H42 Q36 98 33 92Z" fill="#1c1710" stroke="#b0854a" stroke-width="1.7"/>
    <path d="M33 50 H95 M33 87 H95" stroke="#6d5430" stroke-width="2.4"/>
    <circle cx="39" cy="55" r="4.2" fill="#7a5a33" stroke="#3f2d18" stroke-width="1.3"/><circle cx="37.6" cy="53.6" r="1.3" fill="#b0854a" opacity=".8"/><circle cx="49" cy="55" r="4.2" fill="#7a5a33" stroke="#3f2d18" stroke-width="1.3"/><circle cx="47.6" cy="53.6" r="1.3" fill="#b0854a" opacity=".8"/><circle cx="59" cy="55" r="4.2" fill="#7a5a33" stroke="#3f2d18" stroke-width="1.3"/><circle cx="57.6" cy="53.6" r="1.3" fill="#b0854a" opacity=".8"/><circle cx="69" cy="55" r="4.2" fill="#7a5a33" stroke="#3f2d18" stroke-width="1.3"/><circle cx="67.6" cy="53.6" r="1.3" fill="#b0854a" opacity=".8"/><circle cx="79" cy="55" r="4.2" fill="#7a5a33" stroke="#3f2d18" stroke-width="1.3"/><circle cx="77.6" cy="53.6" r="1.3" fill="#b0854a" opacity=".8"/><circle cx="89" cy="55" r="4.2" fill="#7a5a33" stroke="#3f2d18" stroke-width="1.3"/><circle cx="87.6" cy="53.6" r="1.3" fill="#b0854a" opacity=".8"/><circle cx="44" cy="67" r="4.2" fill="#7a5a33" stroke="#3f2d18" stroke-width="1.3"/><circle cx="42.6" cy="65.6" r="1.3" fill="#b0854a" opacity=".8"/><circle cx="54" cy="67" r="4.2" fill="#7a5a33" stroke="#3f2d18" stroke-width="1.3"/><circle cx="52.6" cy="65.6" r="1.3" fill="#b0854a" opacity=".8"/><circle cx="64" cy="67" r="4.2" fill="#7a5a33" stroke="#3f2d18" stroke-width="1.3"/><circle cx="62.6" cy="65.6" r="1.3" fill="#b0854a" opacity=".8"/><circle cx="74" cy="67" r="4.2" fill="#7a5a33" stroke="#3f2d18" stroke-width="1.3"/><circle cx="72.6" cy="65.6" r="1.3" fill="#b0854a" opacity=".8"/><circle cx="84" cy="67" r="4.2" fill="#7a5a33" stroke="#3f2d18" stroke-width="1.3"/><circle cx="82.6" cy="65.6" r="1.3" fill="#b0854a" opacity=".8"/><circle cx="94" cy="67" r="4.2" fill="#7a5a33" stroke="#3f2d18" stroke-width="1.3"/><circle cx="92.6" cy="65.6" r="1.3" fill="#b0854a" opacity=".8"/><circle cx="39" cy="79" r="4.2" fill="#7a5a33" stroke="#3f2d18" stroke-width="1.3"/><circle cx="37.6" cy="77.6" r="1.3" fill="#b0854a" opacity=".8"/><circle cx="49" cy="79" r="4.2" fill="#7a5a33" stroke="#3f2d18" stroke-width="1.3"/><circle cx="47.6" cy="77.6" r="1.3" fill="#b0854a" opacity=".8"/><circle cx="59" cy="79" r="4.2" fill="#7a5a33" stroke="#3f2d18" stroke-width="1.3"/><circle cx="57.6" cy="77.6" r="1.3" fill="#b0854a" opacity=".8"/><circle cx="69" cy="79" r="4.2" fill="#7a5a33" stroke="#3f2d18" stroke-width="1.3"/><circle cx="67.6" cy="77.6" r="1.3" fill="#b0854a" opacity=".8"/><circle cx="79" cy="79" r="4.2" fill="#7a5a33" stroke="#3f2d18" stroke-width="1.3"/><circle cx="77.6" cy="77.6" r="1.3" fill="#b0854a" opacity=".8"/><circle cx="89" cy="79" r="4.2" fill="#7a5a33" stroke="#3f2d18" stroke-width="1.3"/><circle cx="87.6" cy="77.6" r="1.3" fill="#b0854a" opacity=".8"/><path d="M40.00 92.00 v-5" stroke="#e8d3a8" stroke-width="1.6" opacity="0.55"/><path d="M55.35 80.00 v-5" stroke="#e8d3a8" stroke-width="1.6" opacity="0.45"/><path d="M69.45 68.00 v-5" stroke="#e8d3a8" stroke-width="1.6" opacity="0.35"/><path d="M82.23 56.00 v-5" stroke="#e8d3a8" stroke-width="1.6" opacity="0.25"/>
    <path d="M27 58 H15 V86 H28 M101 52 H113 V80 H100" fill="none" stroke="#5f5138" stroke-width="7"/>
    <path d="M27 58 H15 V86 H28 M101 52 H113 V80 H100" fill="none" stroke="#bda887" stroke-width="1.3"/>
    <rect x="48" y="20" width="32" height="10" rx="3" fill="#33291a" stroke="#14201d" stroke-width="2.4" stroke-linecap="round" stroke-linejoin="round"/>
    <path d="M52 25 H76" stroke="#c8ad82" stroke-width="1.4" opacity=".75"/>
    <circle cx="38" cy="37" r="3" fill="#e9d27f" stroke="#231b10" stroke-width="1.4"/>
    <path d="M36 42 Q54 33 78 35" fill="none" stroke="#f6ecd8" stroke-width="2" opacity=".3"/>
  </g>
    </g>
<g transform="translate(128 0)" clip-path="url(#frame-clip)">
      <g filter="url(#shadow)">
    <ellipse cx="64" cy="111" rx="46" ry="8" fill="#020706" opacity=".62"/>
  <path d="M27 101 L23 113 H37 L40 101 M88 101 L92 113 H106 L101 101" fill="#253b35" stroke="#14201d" stroke-width="2.4" stroke-linecap="round" stroke-linejoin="round"/>
  <path d="M19 103 H109 L103 112 H25Z" fill="#1c2d28" stroke="#14201d" stroke-width="2.4" stroke-linecap="round" stroke-linejoin="round"/>
  <path d="M27 105 H101" stroke="#b0854a" stroke-width="1.4" opacity=".58"/>
    <path d="M27 40 L36 30 H92 L101 40 V97 Q97 105 89 105 H39 Q30 104 27 97Z" fill="url(#body)" stroke="#14201d" stroke-width="2.4" stroke-linecap="round" stroke-linejoin="round"/>
    <path d="M33 45 H95 V92 Q92 98 86 99 H42 Q36 98 33 92Z" fill="#1c1710" stroke="#b0854a" stroke-width="1.7"/>
    <path d="M33 50 H95 M33 87 H95" stroke="#6d5430" stroke-width="2.4"/>
    <circle cx="39" cy="55" r="4.2" fill="#7a5a33" stroke="#3f2d18" stroke-width="1.3"/><circle cx="37.6" cy="53.6" r="1.3" fill="#b0854a" opacity=".8"/><circle cx="49" cy="55" r="4.2" fill="#7a5a33" stroke="#3f2d18" stroke-width="1.3"/><circle cx="47.6" cy="53.6" r="1.3" fill="#b0854a" opacity=".8"/><circle cx="59" cy="55" r="4.2" fill="#7a5a33" stroke="#3f2d18" stroke-width="1.3"/><circle cx="57.6" cy="53.6" r="1.3" fill="#b0854a" opacity=".8"/><circle cx="69" cy="55" r="4.2" fill="#7a5a33" stroke="#3f2d18" stroke-width="1.3"/><circle cx="67.6" cy="53.6" r="1.3" fill="#b0854a" opacity=".8"/><circle cx="79" cy="55" r="4.2" fill="#7a5a33" stroke="#3f2d18" stroke-width="1.3"/><circle cx="77.6" cy="53.6" r="1.3" fill="#b0854a" opacity=".8"/><circle cx="89" cy="55" r="4.2" fill="#7a5a33" stroke="#3f2d18" stroke-width="1.3"/><circle cx="87.6" cy="53.6" r="1.3" fill="#b0854a" opacity=".8"/><circle cx="44" cy="67" r="4.2" fill="#7a5a33" stroke="#3f2d18" stroke-width="1.3"/><circle cx="42.6" cy="65.6" r="1.3" fill="#b0854a" opacity=".8"/><circle cx="54" cy="67" r="4.2" fill="#7a5a33" stroke="#3f2d18" stroke-width="1.3"/><circle cx="52.6" cy="65.6" r="1.3" fill="#b0854a" opacity=".8"/><circle cx="64" cy="67" r="4.2" fill="#7a5a33" stroke="#3f2d18" stroke-width="1.3"/><circle cx="62.6" cy="65.6" r="1.3" fill="#b0854a" opacity=".8"/><circle cx="74" cy="67" r="4.2" fill="#7a5a33" stroke="#3f2d18" stroke-width="1.3"/><circle cx="72.6" cy="65.6" r="1.3" fill="#b0854a" opacity=".8"/><circle cx="84" cy="67" r="4.2" fill="#7a5a33" stroke="#3f2d18" stroke-width="1.3"/><circle cx="82.6" cy="65.6" r="1.3" fill="#b0854a" opacity=".8"/><circle cx="94" cy="67" r="4.2" fill="#7a5a33" stroke="#3f2d18" stroke-width="1.3"/><circle cx="92.6" cy="65.6" r="1.3" fill="#b0854a" opacity=".8"/><circle cx="39" cy="79" r="4.2" fill="#7a5a33" stroke="#3f2d18" stroke-width="1.3"/><circle cx="37.6" cy="77.6" r="1.3" fill="#b0854a" opacity=".8"/><circle cx="49" cy="79" r="4.2" fill="#7a5a33" stroke="#3f2d18" stroke-width="1.3"/><circle cx="47.6" cy="77.6" r="1.3" fill="#b0854a" opacity=".8"/><circle cx="59" cy="79" r="4.2" fill="#7a5a33" stroke="#3f2d18" stroke-width="1.3"/><circle cx="57.6" cy="77.6" r="1.3" fill="#b0854a" opacity=".8"/><circle cx="69" cy="79" r="4.2" fill="#7a5a33" stroke="#3f2d18" stroke-width="1.3"/><circle cx="67.6" cy="77.6" r="1.3" fill="#b0854a" opacity=".8"/><circle cx="79" cy="79" r="4.2" fill="#7a5a33" stroke="#3f2d18" stroke-width="1.3"/><circle cx="77.6" cy="77.6" r="1.3" fill="#b0854a" opacity=".8"/><circle cx="89" cy="79" r="4.2" fill="#7a5a33" stroke="#3f2d18" stroke-width="1.3"/><circle cx="87.6" cy="77.6" r="1.3" fill="#b0854a" opacity=".8"/><path d="M41.13 86.00 v-5" stroke="#e8d3a8" stroke-width="1.6" opacity="0.50"/><path d="M55.56 74.00 v-5" stroke="#e8d3a8" stroke-width="1.6" opacity="0.40"/><path d="M68.56 62.00 v-5" stroke="#e8d3a8" stroke-width="1.6" opacity="0.30"/><path d="M81.04 50.00 v-5" stroke="#e8d3a8" stroke-width="1.6" opacity="0.20"/>
    <path d="M27 58 H15 V86 H28 M101 52 H113 V80 H100" fill="none" stroke="#5f5138" stroke-width="7"/>
    <path d="M27 58 H15 V86 H28 M101 52 H113 V80 H100" fill="none" stroke="#bda887" stroke-width="1.3"/>
    <rect x="48" y="20" width="32" height="10" rx="3" fill="#33291a" stroke="#14201d" stroke-width="2.4" stroke-linecap="round" stroke-linejoin="round"/>
    <path d="M52 25 H76" stroke="#c8ad82" stroke-width="1.4" opacity=".75"/>
    <circle cx="38" cy="37" r="3" fill="#e9d27f" stroke="#231b10" stroke-width="1.4"/>
    <path d="M36 42 Q54 33 78 35" fill="none" stroke="#f6ecd8" stroke-width="2" opacity=".3"/>
  </g>
    </g>
<g transform="translate(256 0)" clip-path="url(#frame-clip)">
      <g filter="url(#shadow)">
    <ellipse cx="64" cy="111" rx="46" ry="8" fill="#020706" opacity=".62"/>
  <path d="M27 101 L23 113 H37 L40 101 M88 101 L92 113 H106 L101 101" fill="#253b35" stroke="#14201d" stroke-width="2.4" stroke-linecap="round" stroke-linejoin="round"/>
  <path d="M19 103 H109 L103 112 H25Z" fill="#1c2d28" stroke="#14201d" stroke-width="2.4" stroke-linecap="round" stroke-linejoin="round"/>
  <path d="M27 105 H101" stroke="#b0854a" stroke-width="1.4" opacity=".58"/>
    <path d="M27 40 L36 30 H92 L101 40 V97 Q97 105 89 105 H39 Q30 104 27 97Z" fill="url(#body)" stroke="#14201d" stroke-width="2.4" stroke-linecap="round" stroke-linejoin="round"/>
    <path d="M33 45 H95 V92 Q92 98 86 99 H42 Q36 98 33 92Z" fill="#1c1710" stroke="#b0854a" stroke-width="1.7"/>
    <path d="M33 50 H95 M33 87 H95" stroke="#6d5430" stroke-width="2.4"/>
    <circle cx="39" cy="55" r="4.2" fill="#7a5a33" stroke="#3f2d18" stroke-width="1.3"/><circle cx="37.6" cy="53.6" r="1.3" fill="#b0854a" opacity=".8"/><circle cx="49" cy="55" r="4.2" fill="#7a5a33" stroke="#3f2d18" stroke-width="1.3"/><circle cx="47.6" cy="53.6" r="1.3" fill="#b0854a" opacity=".8"/><circle cx="59" cy="55" r="4.2" fill="#7a5a33" stroke="#3f2d18" stroke-width="1.3"/><circle cx="57.6" cy="53.6" r="1.3" fill="#b0854a" opacity=".8"/><circle cx="69" cy="55" r="4.2" fill="#7a5a33" stroke="#3f2d18" stroke-width="1.3"/><circle cx="67.6" cy="53.6" r="1.3" fill="#b0854a" opacity=".8"/><circle cx="79" cy="55" r="4.2" fill="#7a5a33" stroke="#3f2d18" stroke-width="1.3"/><circle cx="77.6" cy="53.6" r="1.3" fill="#b0854a" opacity=".8"/><circle cx="89" cy="55" r="4.2" fill="#7a5a33" stroke="#3f2d18" stroke-width="1.3"/><circle cx="87.6" cy="53.6" r="1.3" fill="#b0854a" opacity=".8"/><circle cx="44" cy="67" r="4.2" fill="#7a5a33" stroke="#3f2d18" stroke-width="1.3"/><circle cx="42.6" cy="65.6" r="1.3" fill="#b0854a" opacity=".8"/><circle cx="54" cy="67" r="4.2" fill="#7a5a33" stroke="#3f2d18" stroke-width="1.3"/><circle cx="52.6" cy="65.6" r="1.3" fill="#b0854a" opacity=".8"/><circle cx="64" cy="67" r="4.2" fill="#7a5a33" stroke="#3f2d18" stroke-width="1.3"/><circle cx="62.6" cy="65.6" r="1.3" fill="#b0854a" opacity=".8"/><circle cx="74" cy="67" r="4.2" fill="#7a5a33" stroke="#3f2d18" stroke-width="1.3"/><circle cx="72.6" cy="65.6" r="1.3" fill="#b0854a" opacity=".8"/><circle cx="84" cy="67" r="4.2" fill="#7a5a33" stroke="#3f2d18" stroke-width="1.3"/><circle cx="82.6" cy="65.6" r="1.3" fill="#b0854a" opacity=".8"/><circle cx="94" cy="67" r="4.2" fill="#7a5a33" stroke="#3f2d18" stroke-width="1.3"/><circle cx="92.6" cy="65.6" r="1.3" fill="#b0854a" opacity=".8"/><circle cx="39" cy="79" r="4.2" fill="#7a5a33" stroke="#3f2d18" stroke-width="1.3"/><circle cx="37.6" cy="77.6" r="1.3" fill="#b0854a" opacity=".8"/><circle cx="49" cy="79" r="4.2" fill="#7a5a33" stroke="#3f2d18" stroke-width="1.3"/><circle cx="47.6" cy="77.6" r="1.3" fill="#b0854a" opacity=".8"/><circle cx="59" cy="79" r="4.2" fill="#7a5a33" stroke="#3f2d18" stroke-width="1.3"/><circle cx="57.6" cy="77.6" r="1.3" fill="#b0854a" opacity=".8"/><circle cx="69" cy="79" r="4.2" fill="#7a5a33" stroke="#3f2d18" stroke-width="1.3"/><circle cx="67.6" cy="77.6" r="1.3" fill="#b0854a" opacity=".8"/><circle cx="79" cy="79" r="4.2" fill="#7a5a33" stroke="#3f2d18" stroke-width="1.3"/><circle cx="77.6" cy="77.6" r="1.3" fill="#b0854a" opacity=".8"/><circle cx="89" cy="79" r="4.2" fill="#7a5a33" stroke="#3f2d18" stroke-width="1.3"/><circle cx="87.6" cy="77.6" r="1.3" fill="#b0854a" opacity=".8"/><path d="M41.60 80.00 v-5" stroke="#e8d3a8" stroke-width="1.6" opacity="0.45"/><path d="M54.86 68.00 v-5" stroke="#e8d3a8" stroke-width="1.6" opacity="0.35"/><path d="M67.33 56.00 v-5" stroke="#e8d3a8" stroke-width="1.6" opacity="0.25"/><path d="M80.42 92.00 v-5" stroke="#e8d3a8" stroke-width="1.6" opacity="0.55"/>
    <path d="M27 58 H15 V86 H28 M101 52 H113 V80 H100" fill="none" stroke="#5f5138" stroke-width="7"/>
    <path d="M27 58 H15 V86 H28 M101 52 H113 V80 H100" fill="none" stroke="#bda887" stroke-width="1.3"/>
    <rect x="48" y="20" width="32" height="10" rx="3" fill="#33291a" stroke="#14201d" stroke-width="2.4" stroke-linecap="round" stroke-linejoin="round"/>
    <path d="M52 25 H76" stroke="#c8ad82" stroke-width="1.4" opacity=".75"/>
    <circle cx="38" cy="37" r="3" fill="#e9d27f" stroke="#231b10" stroke-width="1.4"/>
    <path d="M36 42 Q54 33 78 35" fill="none" stroke="#f6ecd8" stroke-width="2" opacity=".3"/>
  </g>
    </g>
<g transform="translate(384 0)" clip-path="url(#frame-clip)">
      <g filter="url(#shadow)">
    <ellipse cx="64" cy="111" rx="46" ry="8" fill="#020706" opacity=".62"/>
  <path d="M27 101 L23 113 H37 L40 101 M88 101 L92 113 H106 L101 101" fill="#253b35" stroke="#14201d" stroke-width="2.4" stroke-linecap="round" stroke-linejoin="round"/>
  <path d="M19 103 H109 L103 112 H25Z" fill="#1c2d28" stroke="#14201d" stroke-width="2.4" stroke-linecap="round" stroke-linejoin="round"/>
  <path d="M27 105 H101" stroke="#b0854a" stroke-width="1.4" opacity=".58"/>
    <path d="M27 40 L36 30 H92 L101 40 V97 Q97 105 89 105 H39 Q30 104 27 97Z" fill="url(#body)" stroke="#14201d" stroke-width="2.4" stroke-linecap="round" stroke-linejoin="round"/>
    <path d="M33 45 H95 V92 Q92 98 86 99 H42 Q36 98 33 92Z" fill="#1c1710" stroke="#b0854a" stroke-width="1.7"/>
    <path d="M33 50 H95 M33 87 H95" stroke="#6d5430" stroke-width="2.4"/>
    <circle cx="39" cy="55" r="4.2" fill="#7a5a33" stroke="#3f2d18" stroke-width="1.3"/><circle cx="37.6" cy="53.6" r="1.3" fill="#b0854a" opacity=".8"/><circle cx="49" cy="55" r="4.2" fill="#7a5a33" stroke="#3f2d18" stroke-width="1.3"/><circle cx="47.6" cy="53.6" r="1.3" fill="#b0854a" opacity=".8"/><circle cx="59" cy="55" r="4.2" fill="#7a5a33" stroke="#3f2d18" stroke-width="1.3"/><circle cx="57.6" cy="53.6" r="1.3" fill="#b0854a" opacity=".8"/><circle cx="69" cy="55" r="4.2" fill="#7a5a33" stroke="#3f2d18" stroke-width="1.3"/><circle cx="67.6" cy="53.6" r="1.3" fill="#b0854a" opacity=".8"/><circle cx="79" cy="55" r="4.2" fill="#7a5a33" stroke="#3f2d18" stroke-width="1.3"/><circle cx="77.6" cy="53.6" r="1.3" fill="#b0854a" opacity=".8"/><circle cx="89" cy="55" r="4.2" fill="#7a5a33" stroke="#3f2d18" stroke-width="1.3"/><circle cx="87.6" cy="53.6" r="1.3" fill="#b0854a" opacity=".8"/><circle cx="44" cy="67" r="4.2" fill="#7a5a33" stroke="#3f2d18" stroke-width="1.3"/><circle cx="42.6" cy="65.6" r="1.3" fill="#b0854a" opacity=".8"/><circle cx="54" cy="67" r="4.2" fill="#7a5a33" stroke="#3f2d18" stroke-width="1.3"/><circle cx="52.6" cy="65.6" r="1.3" fill="#b0854a" opacity=".8"/><circle cx="64" cy="67" r="4.2" fill="#7a5a33" stroke="#3f2d18" stroke-width="1.3"/><circle cx="62.6" cy="65.6" r="1.3" fill="#b0854a" opacity=".8"/><circle cx="74" cy="67" r="4.2" fill="#7a5a33" stroke="#3f2d18" stroke-width="1.3"/><circle cx="72.6" cy="65.6" r="1.3" fill="#b0854a" opacity=".8"/><circle cx="84" cy="67" r="4.2" fill="#7a5a33" stroke="#3f2d18" stroke-width="1.3"/><circle cx="82.6" cy="65.6" r="1.3" fill="#b0854a" opacity=".8"/><circle cx="94" cy="67" r="4.2" fill="#7a5a33" stroke="#3f2d18" stroke-width="1.3"/><circle cx="92.6" cy="65.6" r="1.3" fill="#b0854a" opacity=".8"/><circle cx="39" cy="79" r="4.2" fill="#7a5a33" stroke="#3f2d18" stroke-width="1.3"/><circle cx="37.6" cy="77.6" r="1.3" fill="#b0854a" opacity=".8"/><circle cx="49" cy="79" r="4.2" fill="#7a5a33" stroke="#3f2d18" stroke-width="1.3"/><circle cx="47.6" cy="77.6" r="1.3" fill="#b0854a" opacity=".8"/><circle cx="59" cy="79" r="4.2" fill="#7a5a33" stroke="#3f2d18" stroke-width="1.3"/><circle cx="57.6" cy="77.6" r="1.3" fill="#b0854a" opacity=".8"/><circle cx="69" cy="79" r="4.2" fill="#7a5a33" stroke="#3f2d18" stroke-width="1.3"/><circle cx="67.6" cy="77.6" r="1.3" fill="#b0854a" opacity=".8"/><circle cx="79" cy="79" r="4.2" fill="#7a5a33" stroke="#3f2d18" stroke-width="1.3"/><circle cx="77.6" cy="77.6" r="1.3" fill="#b0854a" opacity=".8"/><circle cx="89" cy="79" r="4.2" fill="#7a5a33" stroke="#3f2d18" stroke-width="1.3"/><circle cx="87.6" cy="77.6" r="1.3" fill="#b0854a" opacity=".8"/><path d="M41.13 74.00 v-5" stroke="#e8d3a8" stroke-width="1.6" opacity="0.40"/><path d="M53.66 62.00 v-5" stroke="#e8d3a8" stroke-width="1.6" opacity="0.30"/><path d="M66.50 50.00 v-5" stroke="#e8d3a8" stroke-width="1.6" opacity="0.20"/><path d="M80.72 86.00 v-5" stroke="#e8d3a8" stroke-width="1.6" opacity="0.50"/>
    <path d="M27 58 H15 V86 H28 M101 52 H113 V80 H100" fill="none" stroke="#5f5138" stroke-width="7"/>
    <path d="M27 58 H15 V86 H28 M101 52 H113 V80 H100" fill="none" stroke="#bda887" stroke-width="1.3"/>
    <rect x="48" y="20" width="32" height="10" rx="3" fill="#33291a" stroke="#14201d" stroke-width="2.4" stroke-linecap="round" stroke-linejoin="round"/>
    <path d="M52 25 H76" stroke="#c8ad82" stroke-width="1.4" opacity=".75"/>
    <circle cx="38" cy="37" r="3" fill="#e9d27f" stroke="#231b10" stroke-width="1.4"/>
    <path d="M36 42 Q54 33 78 35" fill="none" stroke="#f6ecd8" stroke-width="2" opacity=".3"/>
  </g>
    </g>
<g transform="translate(512 0)" clip-path="url(#frame-clip)">
      <g filter="url(#shadow)">
    <ellipse cx="64" cy="111" rx="46" ry="8" fill="#020706" opacity=".62"/>
  <path d="M27 101 L23 113 H37 L40 101 M88 101 L92 113 H106 L101 101" fill="#253b35" stroke="#14201d" stroke-width="2.4" stroke-linecap="round" stroke-linejoin="round"/>
  <path d="M19 103 H109 L103 112 H25Z" fill="#1c2d28" stroke="#14201d" stroke-width="2.4" stroke-linecap="round" stroke-linejoin="round"/>
  <path d="M27 105 H101" stroke="#b0854a" stroke-width="1.4" opacity=".58"/>
    <path d="M27 40 L36 30 H92 L101 40 V97 Q97 105 89 105 H39 Q30 104 27 97Z" fill="url(#body)" stroke="#14201d" stroke-width="2.4" stroke-linecap="round" stroke-linejoin="round"/>
    <path d="M33 45 H95 V92 Q92 98 86 99 H42 Q36 98 33 92Z" fill="#1c1710" stroke="#b0854a" stroke-width="1.7"/>
    <path d="M33 50 H95 M33 87 H95" stroke="#6d5430" stroke-width="2.4"/>
    <circle cx="39" cy="55" r="4.2" fill="#7a5a33" stroke="#3f2d18" stroke-width="1.3"/><circle cx="37.6" cy="53.6" r="1.3" fill="#b0854a" opacity=".8"/><circle cx="49" cy="55" r="4.2" fill="#7a5a33" stroke="#3f2d18" stroke-width="1.3"/><circle cx="47.6" cy="53.6" r="1.3" fill="#b0854a" opacity=".8"/><circle cx="59" cy="55" r="4.2" fill="#7a5a33" stroke="#3f2d18" stroke-width="1.3"/><circle cx="57.6" cy="53.6" r="1.3" fill="#b0854a" opacity=".8"/><circle cx="69" cy="55" r="4.2" fill="#7a5a33" stroke="#3f2d18" stroke-width="1.3"/><circle cx="67.6" cy="53.6" r="1.3" fill="#b0854a" opacity=".8"/><circle cx="79" cy="55" r="4.2" fill="#7a5a33" stroke="#3f2d18" stroke-width="1.3"/><circle cx="77.6" cy="53.6" r="1.3" fill="#b0854a" opacity=".8"/><circle cx="89" cy="55" r="4.2" fill="#7a5a33" stroke="#3f2d18" stroke-width="1.3"/><circle cx="87.6" cy="53.6" r="1.3" fill="#b0854a" opacity=".8"/><circle cx="44" cy="67" r="4.2" fill="#7a5a33" stroke="#3f2d18" stroke-width="1.3"/><circle cx="42.6" cy="65.6" r="1.3" fill="#b0854a" opacity=".8"/><circle cx="54" cy="67" r="4.2" fill="#7a5a33" stroke="#3f2d18" stroke-width="1.3"/><circle cx="52.6" cy="65.6" r="1.3" fill="#b0854a" opacity=".8"/><circle cx="64" cy="67" r="4.2" fill="#7a5a33" stroke="#3f2d18" stroke-width="1.3"/><circle cx="62.6" cy="65.6" r="1.3" fill="#b0854a" opacity=".8"/><circle cx="74" cy="67" r="4.2" fill="#7a5a33" stroke="#3f2d18" stroke-width="1.3"/><circle cx="72.6" cy="65.6" r="1.3" fill="#b0854a" opacity=".8"/><circle cx="84" cy="67" r="4.2" fill="#7a5a33" stroke="#3f2d18" stroke-width="1.3"/><circle cx="82.6" cy="65.6" r="1.3" fill="#b0854a" opacity=".8"/><circle cx="94" cy="67" r="4.2" fill="#7a5a33" stroke="#3f2d18" stroke-width="1.3"/><circle cx="92.6" cy="65.6" r="1.3" fill="#b0854a" opacity=".8"/><circle cx="39" cy="79" r="4.2" fill="#7a5a33" stroke="#3f2d18" stroke-width="1.3"/><circle cx="37.6" cy="77.6" r="1.3" fill="#b0854a" opacity=".8"/><circle cx="49" cy="79" r="4.2" fill="#7a5a33" stroke="#3f2d18" stroke-width="1.3"/><circle cx="47.6" cy="77.6" r="1.3" fill="#b0854a" opacity=".8"/><circle cx="59" cy="79" r="4.2" fill="#7a5a33" stroke="#3f2d18" stroke-width="1.3"/><circle cx="57.6" cy="77.6" r="1.3" fill="#b0854a" opacity=".8"/><circle cx="69" cy="79" r="4.2" fill="#7a5a33" stroke="#3f2d18" stroke-width="1.3"/><circle cx="67.6" cy="77.6" r="1.3" fill="#b0854a" opacity=".8"/><circle cx="79" cy="79" r="4.2" fill="#7a5a33" stroke="#3f2d18" stroke-width="1.3"/><circle cx="77.6" cy="77.6" r="1.3" fill="#b0854a" opacity=".8"/><circle cx="89" cy="79" r="4.2" fill="#7a5a33" stroke="#3f2d18" stroke-width="1.3"/><circle cx="87.6" cy="77.6" r="1.3" fill="#b0854a" opacity=".8"/><path d="M40.00 68.00 v-5" stroke="#e8d3a8" stroke-width="1.6" opacity="0.35"/><path d="M52.65 56.00 v-5" stroke="#e8d3a8" stroke-width="1.6" opacity="0.25"/><path d="M66.55 92.00 v-5" stroke="#e8d3a8" stroke-width="1.6" opacity="0.55"/><path d="M81.77 80.00 v-5" stroke="#e8d3a8" stroke-width="1.6" opacity="0.45"/>
    <path d="M27 58 H15 V86 H28 M101 52 H113 V80 H100" fill="none" stroke="#5f5138" stroke-width="7"/>
    <path d="M27 58 H15 V86 H28 M101 52 H113 V80 H100" fill="none" stroke="#bda887" stroke-width="1.3"/>
    <rect x="48" y="20" width="32" height="10" rx="3" fill="#33291a" stroke="#14201d" stroke-width="2.4" stroke-linecap="round" stroke-linejoin="round"/>
    <path d="M52 25 H76" stroke="#c8ad82" stroke-width="1.4" opacity=".75"/>
    <circle cx="38" cy="37" r="3" fill="#e9d27f" stroke="#231b10" stroke-width="1.4"/>
    <path d="M36 42 Q54 33 78 35" fill="none" stroke="#f6ecd8" stroke-width="2" opacity=".3"/>
  </g>
    </g>
<g transform="translate(640 0)" clip-path="url(#frame-clip)">
      <g filter="url(#shadow)">
    <ellipse cx="64" cy="111" rx="46" ry="8" fill="#020706" opacity=".62"/>
  <path d="M27 101 L23 113 H37 L40 101 M88 101 L92 113 H106 L101 101" fill="#253b35" stroke="#14201d" stroke-width="2.4" stroke-linecap="round" stroke-linejoin="round"/>
  <path d="M19 103 H109 L103 112 H25Z" fill="#1c2d28" stroke="#14201d" stroke-width="2.4" stroke-linecap="round" stroke-linejoin="round"/>
  <path d="M27 105 H101" stroke="#b0854a" stroke-width="1.4" opacity=".58"/>
    <path d="M27 40 L36 30 H92 L101 40 V97 Q97 105 89 105 H39 Q30 104 27 97Z" fill="url(#body)" stroke="#14201d" stroke-width="2.4" stroke-linecap="round" stroke-linejoin="round"/>
    <path d="M33 45 H95 V92 Q92 98 86 99 H42 Q36 98 33 92Z" fill="#1c1710" stroke="#b0854a" stroke-width="1.7"/>
    <path d="M33 50 H95 M33 87 H95" stroke="#6d5430" stroke-width="2.4"/>
    <circle cx="39" cy="55" r="4.2" fill="#7a5a33" stroke="#3f2d18" stroke-width="1.3"/><circle cx="37.6" cy="53.6" r="1.3" fill="#b0854a" opacity=".8"/><circle cx="49" cy="55" r="4.2" fill="#7a5a33" stroke="#3f2d18" stroke-width="1.3"/><circle cx="47.6" cy="53.6" r="1.3" fill="#b0854a" opacity=".8"/><circle cx="59" cy="55" r="4.2" fill="#7a5a33" stroke="#3f2d18" stroke-width="1.3"/><circle cx="57.6" cy="53.6" r="1.3" fill="#b0854a" opacity=".8"/><circle cx="69" cy="55" r="4.2" fill="#7a5a33" stroke="#3f2d18" stroke-width="1.3"/><circle cx="67.6" cy="53.6" r="1.3" fill="#b0854a" opacity=".8"/><circle cx="79" cy="55" r="4.2" fill="#7a5a33" stroke="#3f2d18" stroke-width="1.3"/><circle cx="77.6" cy="53.6" r="1.3" fill="#b0854a" opacity=".8"/><circle cx="89" cy="55" r="4.2" fill="#7a5a33" stroke="#3f2d18" stroke-width="1.3"/><circle cx="87.6" cy="53.6" r="1.3" fill="#b0854a" opacity=".8"/><circle cx="44" cy="67" r="4.2" fill="#7a5a33" stroke="#3f2d18" stroke-width="1.3"/><circle cx="42.6" cy="65.6" r="1.3" fill="#b0854a" opacity=".8"/><circle cx="54" cy="67" r="4.2" fill="#7a5a33" stroke="#3f2d18" stroke-width="1.3"/><circle cx="52.6" cy="65.6" r="1.3" fill="#b0854a" opacity=".8"/><circle cx="64" cy="67" r="4.2" fill="#7a5a33" stroke="#3f2d18" stroke-width="1.3"/><circle cx="62.6" cy="65.6" r="1.3" fill="#b0854a" opacity=".8"/><circle cx="74" cy="67" r="4.2" fill="#7a5a33" stroke="#3f2d18" stroke-width="1.3"/><circle cx="72.6" cy="65.6" r="1.3" fill="#b0854a" opacity=".8"/><circle cx="84" cy="67" r="4.2" fill="#7a5a33" stroke="#3f2d18" stroke-width="1.3"/><circle cx="82.6" cy="65.6" r="1.3" fill="#b0854a" opacity=".8"/><circle cx="94" cy="67" r="4.2" fill="#7a5a33" stroke="#3f2d18" stroke-width="1.3"/><circle cx="92.6" cy="65.6" r="1.3" fill="#b0854a" opacity=".8"/><circle cx="39" cy="79" r="4.2" fill="#7a5a33" stroke="#3f2d18" stroke-width="1.3"/><circle cx="37.6" cy="77.6" r="1.3" fill="#b0854a" opacity=".8"/><circle cx="49" cy="79" r="4.2" fill="#7a5a33" stroke="#3f2d18" stroke-width="1.3"/><circle cx="47.6" cy="77.6" r="1.3" fill="#b0854a" opacity=".8"/><circle cx="59" cy="79" r="4.2" fill="#7a5a33" stroke="#3f2d18" stroke-width="1.3"/><circle cx="57.6" cy="77.6" r="1.3" fill="#b0854a" opacity=".8"/><circle cx="69" cy="79" r="4.2" fill="#7a5a33" stroke="#3f2d18" stroke-width="1.3"/><circle cx="67.6" cy="77.6" r="1.3" fill="#b0854a" opacity=".8"/><circle cx="79" cy="79" r="4.2" fill="#7a5a33" stroke="#3f2d18" stroke-width="1.3"/><circle cx="77.6" cy="77.6" r="1.3" fill="#b0854a" opacity=".8"/><circle cx="89" cy="79" r="4.2" fill="#7a5a33" stroke="#3f2d18" stroke-width="1.3"/><circle cx="87.6" cy="77.6" r="1.3" fill="#b0854a" opacity=".8"/><path d="M38.87 62.00 v-5" stroke="#e8d3a8" stroke-width="1.6" opacity="0.30"/><path d="M52.44 50.00 v-5" stroke="#e8d3a8" stroke-width="1.6" opacity="0.20"/><path d="M67.44 86.00 v-5" stroke="#e8d3a8" stroke-width="1.6" opacity="0.50"/><path d="M82.96 74.00 v-5" stroke="#e8d3a8" stroke-width="1.6" opacity="0.40"/>
    <path d="M27 58 H15 V86 H28 M101 52 H113 V80 H100" fill="none" stroke="#5f5138" stroke-width="7"/>
    <path d="M27 58 H15 V86 H28 M101 52 H113 V80 H100" fill="none" stroke="#bda887" stroke-width="1.3"/>
    <rect x="48" y="20" width="32" height="10" rx="3" fill="#33291a" stroke="#14201d" stroke-width="2.4" stroke-linecap="round" stroke-linejoin="round"/>
    <path d="M52 25 H76" stroke="#c8ad82" stroke-width="1.4" opacity=".75"/>
    <circle cx="38" cy="37" r="3" fill="#e9d27f" stroke="#231b10" stroke-width="1.4"/>
    <path d="M36 42 Q54 33 78 35" fill="none" stroke="#f6ecd8" stroke-width="2" opacity=".3"/>
  </g>
    </g>
<g transform="translate(768 0)" clip-path="url(#frame-clip)">
      <g filter="url(#shadow)">
    <ellipse cx="64" cy="111" rx="46" ry="8" fill="#020706" opacity=".62"/>
  <path d="M27 101 L23 113 H37 L40 101 M88 101 L92 113 H106 L101 101" fill="#253b35" stroke="#14201d" stroke-width="2.4" stroke-linecap="round" stroke-linejoin="round"/>
  <path d="M19 103 H109 L103 112 H25Z" fill="#1c2d28" stroke="#14201d" stroke-width="2.4" stroke-linecap="round" stroke-linejoin="round"/>
  <path d="M27 105 H101" stroke="#b0854a" stroke-width="1.4" opacity=".58"/>
    <path d="M27 40 L36 30 H92 L101 40 V97 Q97 105 89 105 H39 Q30 104 27 97Z" fill="url(#body)" stroke="#14201d" stroke-width="2.4" stroke-linecap="round" stroke-linejoin="round"/>
    <path d="M33 45 H95 V92 Q92 98 86 99 H42 Q36 98 33 92Z" fill="#1c1710" stroke="#b0854a" stroke-width="1.7"/>
    <path d="M33 50 H95 M33 87 H95" stroke="#6d5430" stroke-width="2.4"/>
    <circle cx="39" cy="55" r="4.2" fill="#7a5a33" stroke="#3f2d18" stroke-width="1.3"/><circle cx="37.6" cy="53.6" r="1.3" fill="#b0854a" opacity=".8"/><circle cx="49" cy="55" r="4.2" fill="#7a5a33" stroke="#3f2d18" stroke-width="1.3"/><circle cx="47.6" cy="53.6" r="1.3" fill="#b0854a" opacity=".8"/><circle cx="59" cy="55" r="4.2" fill="#7a5a33" stroke="#3f2d18" stroke-width="1.3"/><circle cx="57.6" cy="53.6" r="1.3" fill="#b0854a" opacity=".8"/><circle cx="69" cy="55" r="4.2" fill="#7a5a33" stroke="#3f2d18" stroke-width="1.3"/><circle cx="67.6" cy="53.6" r="1.3" fill="#b0854a" opacity=".8"/><circle cx="79" cy="55" r="4.2" fill="#7a5a33" stroke="#3f2d18" stroke-width="1.3"/><circle cx="77.6" cy="53.6" r="1.3" fill="#b0854a" opacity=".8"/><circle cx="89" cy="55" r="4.2" fill="#7a5a33" stroke="#3f2d18" stroke-width="1.3"/><circle cx="87.6" cy="53.6" r="1.3" fill="#b0854a" opacity=".8"/><circle cx="44" cy="67" r="4.2" fill="#7a5a33" stroke="#3f2d18" stroke-width="1.3"/><circle cx="42.6" cy="65.6" r="1.3" fill="#b0854a" opacity=".8"/><circle cx="54" cy="67" r="4.2" fill="#7a5a33" stroke="#3f2d18" stroke-width="1.3"/><circle cx="52.6" cy="65.6" r="1.3" fill="#b0854a" opacity=".8"/><circle cx="64" cy="67" r="4.2" fill="#7a5a33" stroke="#3f2d18" stroke-width="1.3"/><circle cx="62.6" cy="65.6" r="1.3" fill="#b0854a" opacity=".8"/><circle cx="74" cy="67" r="4.2" fill="#7a5a33" stroke="#3f2d18" stroke-width="1.3"/><circle cx="72.6" cy="65.6" r="1.3" fill="#b0854a" opacity=".8"/><circle cx="84" cy="67" r="4.2" fill="#7a5a33" stroke="#3f2d18" stroke-width="1.3"/><circle cx="82.6" cy="65.6" r="1.3" fill="#b0854a" opacity=".8"/><circle cx="94" cy="67" r="4.2" fill="#7a5a33" stroke="#3f2d18" stroke-width="1.3"/><circle cx="92.6" cy="65.6" r="1.3" fill="#b0854a" opacity=".8"/><circle cx="39" cy="79" r="4.2" fill="#7a5a33" stroke="#3f2d18" stroke-width="1.3"/><circle cx="37.6" cy="77.6" r="1.3" fill="#b0854a" opacity=".8"/><circle cx="49" cy="79" r="4.2" fill="#7a5a33" stroke="#3f2d18" stroke-width="1.3"/><circle cx="47.6" cy="77.6" r="1.3" fill="#b0854a" opacity=".8"/><circle cx="59" cy="79" r="4.2" fill="#7a5a33" stroke="#3f2d18" stroke-width="1.3"/><circle cx="57.6" cy="77.6" r="1.3" fill="#b0854a" opacity=".8"/><circle cx="69" cy="79" r="4.2" fill="#7a5a33" stroke="#3f2d18" stroke-width="1.3"/><circle cx="67.6" cy="77.6" r="1.3" fill="#b0854a" opacity=".8"/><circle cx="79" cy="79" r="4.2" fill="#7a5a33" stroke="#3f2d18" stroke-width="1.3"/><circle cx="77.6" cy="77.6" r="1.3" fill="#b0854a" opacity=".8"/><circle cx="89" cy="79" r="4.2" fill="#7a5a33" stroke="#3f2d18" stroke-width="1.3"/><circle cx="87.6" cy="77.6" r="1.3" fill="#b0854a" opacity=".8"/><path d="M38.40 56.00 v-5" stroke="#e8d3a8" stroke-width="1.6" opacity="0.25"/><path d="M53.14 92.00 v-5" stroke="#e8d3a8" stroke-width="1.6" opacity="0.55"/><path d="M68.67 80.00 v-5" stroke="#e8d3a8" stroke-width="1.6" opacity="0.45"/><path d="M83.58 68.00 v-5" stroke="#e8d3a8" stroke-width="1.6" opacity="0.35"/>
    <path d="M27 58 H15 V86 H28 M101 52 H113 V80 H100" fill="none" stroke="#5f5138" stroke-width="7"/>
    <path d="M27 58 H15 V86 H28 M101 52 H113 V80 H100" fill="none" stroke="#bda887" stroke-width="1.3"/>
    <rect x="48" y="20" width="32" height="10" rx="3" fill="#33291a" stroke="#14201d" stroke-width="2.4" stroke-linecap="round" stroke-linejoin="round"/>
    <path d="M52 25 H76" stroke="#c8ad82" stroke-width="1.4" opacity=".75"/>
    <circle cx="38" cy="37" r="3" fill="#e9d27f" stroke="#231b10" stroke-width="1.4"/>
    <path d="M36 42 Q54 33 78 35" fill="none" stroke="#f6ecd8" stroke-width="2" opacity=".3"/>
  </g>
    </g>
<g transform="translate(896 0)" clip-path="url(#frame-clip)">
      <g filter="url(#shadow)">
    <ellipse cx="64" cy="111" rx="46" ry="8" fill="#020706" opacity=".62"/>
  <path d="M27 101 L23 113 H37 L40 101 M88 101 L92 113 H106 L101 101" fill="#253b35" stroke="#14201d" stroke-width="2.4" stroke-linecap="round" stroke-linejoin="round"/>
  <path d="M19 103 H109 L103 112 H25Z" fill="#1c2d28" stroke="#14201d" stroke-width="2.4" stroke-linecap="round" stroke-linejoin="round"/>
  <path d="M27 105 H101" stroke="#b0854a" stroke-width="1.4" opacity=".58"/>
    <path d="M27 40 L36 30 H92 L101 40 V97 Q97 105 89 105 H39 Q30 104 27 97Z" fill="url(#body)" stroke="#14201d" stroke-width="2.4" stroke-linecap="round" stroke-linejoin="round"/>
    <path d="M33 45 H95 V92 Q92 98 86 99 H42 Q36 98 33 92Z" fill="#1c1710" stroke="#b0854a" stroke-width="1.7"/>
    <path d="M33 50 H95 M33 87 H95" stroke="#6d5430" stroke-width="2.4"/>
    <circle cx="39" cy="55" r="4.2" fill="#7a5a33" stroke="#3f2d18" stroke-width="1.3"/><circle cx="37.6" cy="53.6" r="1.3" fill="#b0854a" opacity=".8"/><circle cx="49" cy="55" r="4.2" fill="#7a5a33" stroke="#3f2d18" stroke-width="1.3"/><circle cx="47.6" cy="53.6" r="1.3" fill="#b0854a" opacity=".8"/><circle cx="59" cy="55" r="4.2" fill="#7a5a33" stroke="#3f2d18" stroke-width="1.3"/><circle cx="57.6" cy="53.6" r="1.3" fill="#b0854a" opacity=".8"/><circle cx="69" cy="55" r="4.2" fill="#7a5a33" stroke="#3f2d18" stroke-width="1.3"/><circle cx="67.6" cy="53.6" r="1.3" fill="#b0854a" opacity=".8"/><circle cx="79" cy="55" r="4.2" fill="#7a5a33" stroke="#3f2d18" stroke-width="1.3"/><circle cx="77.6" cy="53.6" r="1.3" fill="#b0854a" opacity=".8"/><circle cx="89" cy="55" r="4.2" fill="#7a5a33" stroke="#3f2d18" stroke-width="1.3"/><circle cx="87.6" cy="53.6" r="1.3" fill="#b0854a" opacity=".8"/><circle cx="44" cy="67" r="4.2" fill="#7a5a33" stroke="#3f2d18" stroke-width="1.3"/><circle cx="42.6" cy="65.6" r="1.3" fill="#b0854a" opacity=".8"/><circle cx="54" cy="67" r="4.2" fill="#7a5a33" stroke="#3f2d18" stroke-width="1.3"/><circle cx="52.6" cy="65.6" r="1.3" fill="#b0854a" opacity=".8"/><circle cx="64" cy="67" r="4.2" fill="#7a5a33" stroke="#3f2d18" stroke-width="1.3"/><circle cx="62.6" cy="65.6" r="1.3" fill="#b0854a" opacity=".8"/><circle cx="74" cy="67" r="4.2" fill="#7a5a33" stroke="#3f2d18" stroke-width="1.3"/><circle cx="72.6" cy="65.6" r="1.3" fill="#b0854a" opacity=".8"/><circle cx="84" cy="67" r="4.2" fill="#7a5a33" stroke="#3f2d18" stroke-width="1.3"/><circle cx="82.6" cy="65.6" r="1.3" fill="#b0854a" opacity=".8"/><circle cx="94" cy="67" r="4.2" fill="#7a5a33" stroke="#3f2d18" stroke-width="1.3"/><circle cx="92.6" cy="65.6" r="1.3" fill="#b0854a" opacity=".8"/><circle cx="39" cy="79" r="4.2" fill="#7a5a33" stroke="#3f2d18" stroke-width="1.3"/><circle cx="37.6" cy="77.6" r="1.3" fill="#b0854a" opacity=".8"/><circle cx="49" cy="79" r="4.2" fill="#7a5a33" stroke="#3f2d18" stroke-width="1.3"/><circle cx="47.6" cy="77.6" r="1.3" fill="#b0854a" opacity=".8"/><circle cx="59" cy="79" r="4.2" fill="#7a5a33" stroke="#3f2d18" stroke-width="1.3"/><circle cx="57.6" cy="77.6" r="1.3" fill="#b0854a" opacity=".8"/><circle cx="69" cy="79" r="4.2" fill="#7a5a33" stroke="#3f2d18" stroke-width="1.3"/><circle cx="67.6" cy="77.6" r="1.3" fill="#b0854a" opacity=".8"/><circle cx="79" cy="79" r="4.2" fill="#7a5a33" stroke="#3f2d18" stroke-width="1.3"/><circle cx="77.6" cy="77.6" r="1.3" fill="#b0854a" opacity=".8"/><circle cx="89" cy="79" r="4.2" fill="#7a5a33" stroke="#3f2d18" stroke-width="1.3"/><circle cx="87.6" cy="77.6" r="1.3" fill="#b0854a" opacity=".8"/><path d="M38.87 50.00 v-5" stroke="#e8d3a8" stroke-width="1.6" opacity="0.20"/><path d="M54.34 86.00 v-5" stroke="#e8d3a8" stroke-width="1.6" opacity="0.50"/><path d="M69.50 74.00 v-5" stroke="#e8d3a8" stroke-width="1.6" opacity="0.40"/><path d="M83.28 62.00 v-5" stroke="#e8d3a8" stroke-width="1.6" opacity="0.30"/>
    <path d="M27 58 H15 V86 H28 M101 52 H113 V80 H100" fill="none" stroke="#5f5138" stroke-width="7"/>
    <path d="M27 58 H15 V86 H28 M101 52 H113 V80 H100" fill="none" stroke="#bda887" stroke-width="1.3"/>
    <rect x="48" y="20" width="32" height="10" rx="3" fill="#33291a" stroke="#14201d" stroke-width="2.4" stroke-linecap="round" stroke-linejoin="round"/>
    <path d="M52 25 H76" stroke="#c8ad82" stroke-width="1.4" opacity=".75"/>
    <circle cx="38" cy="37" r="3" fill="#e9d27f" stroke="#231b10" stroke-width="1.4"/>
    <path d="M36 42 Q54 33 78 35" fill="none" stroke="#f6ecd8" stroke-width="2" opacity=".3"/>
  </g>
    </g>
  </svg>
