<svg xmlns="http://www.w3.org/2000/svg"
    width="1024" height="128"
    viewBox="0 0 1024 128"
    role="img" aria-label="Thermal coil sprite sheet">
    <defs>
  <linearGradient id="body" x1="0" y1="0" x2="0.9" y2="1">
    <stop offset="0" stop-color="#d9a16f"/>
    <stop offset="0.48" stop-color="#a56338"/>
    <stop offset="1" stop-color="#67402b"/>
  </linearGradient>
  <linearGradient id="shell" x1="0.12" y1="0" x2="0.84" y2="1">
    <stop offset="0" stop-color="#d9a16f"/>
    <stop offset="0.22" stop-color="#a56338"/>
    <stop offset="0.7" stop-color="#67402b"/>
    <stop offset="1" stop-color="#111c1a"/>
  </linearGradient>
  <radialGradient id="glow">
    <stop offset="0" stop-color="#ffffff" stop-opacity="0.96"/>
    <stop offset="0.28" stop-color="#ffc070" stop-opacity="0.9"/>
    <stop offset="1" stop-color="#f58844" stop-opacity="0"/>
  </radialGradient>
  <filter id="shadow" x="-40%" y="-40%" width="180%" height="190%">
    <feDropShadow dx="0" dy="2.5" stdDeviation="2.4" flood-color="#020908" flood-opacity="0.76"/>
  </filter>
  <filter id="soft-glow" x="-70%" y="-70%" width="240%" height="240%">
    <feGaussianBlur stdDeviation="2.2" result="blur"/>
    <feMerge><feMergeNode in="blur"/><feMergeNode in="SourceGraphic"/></feMerge>
  </filter>
  <clipPath id="frame-clip"><rect width="128" height="128"/></clipPath></defs>
    <g transform="translate(0 0)" clip-path="url(#frame-clip)">
      <g filter="url(#shadow)">
    <ellipse cx="64" cy="111" rx="46" ry="8" fill="#020706" opacity=".62"/>
  <path d="M27 101 L23 113 H37 L40 101 M88 101 L92 113 H106 L101 101" fill="#253b35" stroke="#14201d" stroke-width="2.4" stroke-linecap="round" stroke-linejoin="round"/>
  <path d="M19 103 H109 L103 112 H25Z" fill="#1c2d28" stroke="#14201d" stroke-width="2.4" stroke-linecap="round" stroke-linejoin="round"/>
  <path d="M27 105 H101" stroke="#f58844" stroke-width="1.4" opacity=".58"/><path d="M47 35 Q47.00 27 47.00 19" fill="none" stroke="#ffc070" stroke-width="1.7" opacity="0.24"/><path d="M60 35 Q62.15 27 57.85 19" fill="none" stroke="#ffc070" stroke-width="1.7" opacity="0.32"/><path d="M73 35 Q76.00 27 70.00 19" fill="none" stroke="#ffc070" stroke-width="1.7" opacity="0.40"/>
    <path d="M22 37 L31 27 H97 L106 37 V99 Q101 106 94 106 H34 Q26 105 22 99Z" fill="url(#body)" stroke="#14201d" stroke-width="2.4" stroke-linecap="round" stroke-linejoin="round"/>
    <rect x="31" y="42" width="66" height="51" rx="4" fill="#211711" stroke="#c86d35" stroke-width="2"/>
    <rect x="37" y="48" width="54" height="39" rx="3" fill="#120d0a" stroke="#7e4d31" stroke-width="1.3"/>
    <path d="M42 54 H84 L45 63 L84 72 L45 82 H86" fill="none" stroke="#f58844" stroke-width="5" opacity="0.76" filter="url(#soft-glow)"/>
    <path d="M42 54 H84 L45 63 L84 72 L45 82 H86" fill="none" stroke="#ffd18c" stroke-width="1.6" opacity=".94"/>
    <circle cx="97" cy="67" r="16" fill="#293b35" stroke="#14201d" stroke-width="2.4" stroke-linecap="round" stroke-linejoin="round"/>
    <g transform="rotate(0.00 97 67)"><path d="M97 52 Q105 58 101 66 Q94 62 97 52Z M112 67 Q106 75 98 71 Q102 64 112 67Z M97 82 Q89 76 93 68 Q100 72 97 82Z M82 67 Q88 59 96 63 Q92 70 82 67Z" fill="#c46d3c"/></g>
    <circle cx="97" cy="67" r="3.5" fill="#ffcf8b"/>
    <circle cx="43" cy="35" r="9" fill="#1c2d28" stroke="#8aa094" stroke-width="1.5"/>
    <path d="M43 35 L39.47 30.15" stroke="#ff9a4d" stroke-width="1.8"/>
    <path d="M59 30 H92" stroke="#c7d6cf" stroke-width="2" opacity=".35"/>
    <circle cx="29" cy="42" r="3" fill="#d8ff81" stroke="#17221f" stroke-width="1.4"/>
  </g>
    </g>
<g transform="translate(128 0)" clip-path="url(#frame-clip)">
      <g filter="url(#shadow)">
    <ellipse cx="64" cy="111" rx="46" ry="8" fill="#020706" opacity=".62"/>
  <path d="M27 101 L23 113 H37 L40 101 M88 101 L92 113 H106 L101 101" fill="#253b35" stroke="#14201d" stroke-width="2.4" stroke-linecap="round" stroke-linejoin="round"/>
  <path d="M19 103 H109 L103 112 H25Z" fill="#1c2d28" stroke="#14201d" stroke-width="2.4" stroke-linecap="round" stroke-linejoin="round"/>
  <path d="M27 105 H101" stroke="#f58844" stroke-width="1.4" opacity=".58"/><path d="M47 35 Q49.12 27 44.88 19" fill="none" stroke="#ffc070" stroke-width="1.7" opacity="0.24"/><path d="M60 35 Q63.00 27 57.00 19" fill="none" stroke="#ffc070" stroke-width="1.7" opacity="0.32"/><path d="M73 35 Q75.06 27 70.94 19" fill="none" stroke="#ffc070" stroke-width="1.7" opacity="0.40"/>
    <path d="M22 37 L31 27 H97 L106 37 V99 Q101 106 94 106 H34 Q26 105 22 99Z" fill="url(#body)" stroke="#14201d" stroke-width="2.4" stroke-linecap="round" stroke-linejoin="round"/>
    <rect x="31" y="42" width="66" height="51" rx="4" fill="#211711" stroke="#c86d35" stroke-width="2"/>
    <rect x="37" y="48" width="54" height="39" rx="3" fill="#120d0a" stroke="#7e4d31" stroke-width="1.3"/>
    <path d="M42 54 H84 L45 63 L84 72 L45 82 H86" fill="none" stroke="#f58844" stroke-width="5" opacity="0.86" filter="url(#soft-glow)"/>
    <path d="M42 54 H84 L45 63 L84 72 L45 82 H86" fill="none" stroke="#ffd18c" stroke-width="1.6" opacity=".94"/>
    <circle cx="97" cy="67" r="16" fill="#293b35" stroke="#14201d" stroke-width="2.4" stroke-linecap="round" stroke-linejoin="round"/>
    <g transform="rotate(45.00 97 67)"><path d="M97 52 Q105 58 101 66 Q94 62 97 52Z M112 67 Q106 75 98 71 Q102 64 112 67Z M97 82 Q89 76 93 68 Q100 72 97 82Z M82 67 Q88 59 96 63 Q92 70 82 67Z" fill="#c46d3c"/></g>
    <circle cx="97" cy="67" r="3.5" fill="#ffcf8b"/>
    <circle cx="43" cy="35" r="9" fill="#1c2d28" stroke="#8aa094" stroke-width="1.5"/>
    <path d="M43 35 L43.93 29.07" stroke="#ff9a4d" stroke-width="1.8"/>
    <path d="M59 30 H92" stroke="#c7d6cf" stroke-width="2" opacity=".35"/>
    <circle cx="29" cy="42" r="3" fill="#d8ff81" stroke="#17221f" stroke-width="1.4"/>
  </g>
    </g>
<g transform="translate(256 0)" clip-path="url(#frame-clip)">
      <g filter="url(#shadow)">
    <ellipse cx="64" cy="111" rx="46" ry="8" fill="#020706" opacity=".62"/>
  <path d="M27 101 L23 113 H37 L40 101 M88 101 L92 113 H106 L101 101" fill="#253b35" stroke="#14201d" stroke-width="2.4" stroke-linecap="round" stroke-linejoin="round"/>
  <path d="M19 103 H109 L103 112 H25Z" fill="#1c2d28" stroke="#14201d" stroke-width="2.4" stroke-linecap="round" stroke-linejoin="round"/>
  <path d="M27 105 H101" stroke="#f58844" stroke-width="1.4" opacity=".58"/><path d="M47 35 Q50.00 27 44.00 19" fill="none" stroke="#ffc070" stroke-width="1.7" opacity="0.24"/><path d="M60 35 Q62.09 27 57.91 19" fill="none" stroke="#ffc070" stroke-width="1.7" opacity="0.32"/><path d="M73 35 Q72.91 27 73.09 19" fill="none" stroke="#ffc070" stroke-width="1.7" opacity="0.40"/>
    <path d="M22 37 L31 27 H97 L106 37 V99 Q101 106 94 106 H34 Q26 105 22 99Z" fill="url(#body)" stroke="#14201d" stroke-width="2.4" stroke-linecap="round" stroke-linejoin="round"/>
    <rect x="31" y="42" width="66" height="51" rx="4" fill="#211711" stroke="#c86d35" stroke-width="2"/>
    <rect x="37" y="48" width="54" height="39" rx="3" fill="#120d0a" stroke="#7e4d31" stroke-width="1.3"/>
    <path d="M42 54 H84 L45 63 L84 72 L45 82 H86" fill="none" stroke="#f58844" stroke-width="5" opacity="0.90" filter="url(#soft-glow)"/>
    <path d="M42 54 H84 L45 63 L84 72 L45 82 H86" fill="none" stroke="#ffd18c" stroke-width="1.6" opacity=".94"/>
    <circle cx="97" cy="67" r="16" fill="#293b35" stroke="#14201d" stroke-width="2.4" stroke-linecap="round" stroke-linejoin="round"/>
    <g transform="rotate(90.00 97 67)"><path d="M97 52 Q105 58 101 66 Q94 62 97 52Z M112 67 Q106 75 98 71 Q102 64 112 67Z M97 82 Q89 76 93 68 Q100 72 97 82Z M82 67 Q88 59 96 63 Q92 70 82 67Z" fill="#c46d3c"/></g>
    <circle cx="97" cy="67" r="3.5" fill="#ffcf8b"/>
    <circle cx="43" cy="35" r="9" fill="#1c2d28" stroke="#8aa094" stroke-width="1.5"/>
    <path d="M43 35 L47.85 31.47" stroke="#ff9a4d" stroke-width="1.8"/>
    <path d="M59 30 H92" stroke="#c7d6cf" stroke-width="2" opacity=".35"/>
    <circle cx="29" cy="42" r="3" fill="#d8ff81" stroke="#17221f" stroke-width="1.4"/>
  </g>
    </g>
<g transform="translate(384 0)" clip-path="url(#frame-clip)">
      <g filter="url(#shadow)">
    <ellipse cx="64" cy="111" rx="46" ry="8" fill="#020706" opacity=".62"/>
  <path d="M27 101 L23 113 H37 L40 101 M88 101 L92 113 H106 L101 101" fill="#253b35" stroke="#14201d" stroke-width="2.4" stroke-linecap="round" stroke-linejoin="round"/>
  <path d="M19 103 H109 L103 112 H25Z" fill="#1c2d28" stroke="#14201d" stroke-width="2.4" stroke-linecap="round" stroke-linejoin="round"/>
  <path d="M27 105 H101" stroke="#f58844" stroke-width="1.4" opacity=".58"/><path d="M47 35 Q49.12 27 44.88 19" fill="none" stroke="#ffc070" stroke-width="1.7" opacity="0.24"/><path d="M60 35 Q59.96 27 60.04 19" fill="none" stroke="#ffc070" stroke-width="1.7" opacity="0.32"/><path d="M73 35 Q70.82 27 75.18 19" fill="none" stroke="#ffc070" stroke-width="1.7" opacity="0.40"/>
    <path d="M22 37 L31 27 H97 L106 37 V99 Q101 106 94 106 H34 Q26 105 22 99Z" fill="url(#body)" stroke="#14201d" stroke-width="2.4" stroke-linecap="round" stroke-linejoin="round"/>
    <rect x="31" y="42" width="66" height="51" rx="4" fill="#211711" stroke="#c86d35" stroke-width="2"/>
    <rect x="37" y="48" width="54" height="39" rx="3" fill="#120d0a" stroke="#7e4d31" stroke-width="1.3"/>
    <path d="M42 54 H84 L45 63 L84 72 L45 82 H86" fill="none" stroke="#f58844" stroke-width="5" opacity="0.86" filter="url(#soft-glow)"/>
    <path d="M42 54 H84 L45 63 L84 72 L45 82 H86" fill="none" stroke="#ffd18c" stroke-width="1.6" opacity=".94"/>
    <circle cx="97" cy="67" r="16" fill="#293b35" stroke="#14201d" stroke-width="2.4" stroke-linecap="round" stroke-linejoin="round"/>
    <g transform="rotate(135.00 97 67)"><path d="M97 52 Q105 58 101 66 Q94 62 97 52Z M112 67 Q106 75 98 71 Q102 64 112 67Z M97 82 Q89 76 93 68 Q100 72 97 82Z M82 67 Q88 59 96 63 Q92 70 82 67Z" fill="#c46d3c"/></g>
    <circle cx="97" cy="67" r="3.5" fill="#ffcf8b"/>
    <circle cx="43" cy="35" r="9" fill="#1c2d28" stroke="#8aa094" stroke-width="1.5"/>
    <path d="M43 35 L48.93 35.93" stroke="#ff9a4d" stroke-width="1.8"/>
    <path d="M59 30 H92" stroke="#c7d6cf" stroke-width="2" opacity=".35"/>
    <circle cx="29" cy="42" r="3" fill="#d8ff81" stroke="#17221f" stroke-width="1.4"/>
  </g>
    </g>
<g transform="translate(512 0)" clip-path="url(#frame-clip)">
      <g filter="url(#shadow)">
    <ellipse cx="64" cy="111" rx="46" ry="8" fill="#020706" opacity=".62"/>
  <path d="M27 101 L23 113 H37 L40 101 M88 101 L92 113 H106 L101 101" fill="#253b35" stroke="#14201d" stroke-width="2.4" stroke-linecap="round" stroke-linejoin="round"/>
  <path d="M19 103 H109 L103 112 H25Z" fill="#1c2d28" stroke="#14201d" stroke-width="2.4" stroke-linecap="round" stroke-linejoin="round"/>
  <path d="M27 105 H101" stroke="#f58844" stroke-width="1.4" opacity=".58"/><path d="M47 35 Q47.00 27 47.00 19" fill="none" stroke="#ffc070" stroke-width="1.7" opacity="0.24"/><path d="M60 35 Q57.85 27 62.15 19" fill="none" stroke="#ffc070" stroke-width="1.7" opacity="0.32"/><path d="M73 35 Q70.00 27 76.00 19" fill="none" stroke="#ffc070" stroke-width="1.7" opacity="0.40"/>
    <path d="M22 37 L31 27 H97 L106 37 V99 Q101 106 94 106 H34 Q26 105 22 99Z" fill="url(#body)" stroke="#14201d" stroke-width="2.4" stroke-linecap="round" stroke-linejoin="round"/>
    <rect x="31" y="42" width="66" height="51" rx="4" fill="#211711" stroke="#c86d35" stroke-width="2"/>
    <rect x="37" y="48" width="54" height="39" rx="3" fill="#120d0a" stroke="#7e4d31" stroke-width="1.3"/>
    <path d="M42 54 H84 L45 63 L84 72 L45 82 H86" fill="none" stroke="#f58844" stroke-width="5" opacity="0.76" filter="url(#soft-glow)"/>
    <path d="M42 54 H84 L45 63 L84 72 L45 82 H86" fill="none" stroke="#ffd18c" stroke-width="1.6" opacity=".94"/>
    <circle cx="97" cy="67" r="16" fill="#293b35" stroke="#14201d" stroke-width="2.4" stroke-linecap="round" stroke-linejoin="round"/>
    <g transform="rotate(180.00 97 67)"><path d="M97 52 Q105 58 101 66 Q94 62 97 52Z M112 67 Q106 75 98 71 Q102 64 112 67Z M97 82 Q89 76 93 68 Q100 72 97 82Z M82 67 Q88 59 96 63 Q92 70 82 67Z" fill="#c46d3c"/></g>
    <circle cx="97" cy="67" r="3.5" fill="#ffcf8b"/>
    <circle cx="43" cy="35" r="9" fill="#1c2d28" stroke="#8aa094" stroke-width="1.5"/>
    <path d="M43 35 L46.53 39.85" stroke="#ff9a4d" stroke-width="1.8"/>
    <path d="M59 30 H92" stroke="#c7d6cf" stroke-width="2" opacity=".35"/>
    <circle cx="29" cy="42" r="3" fill="#d8ff81" stroke="#17221f" stroke-width="1.4"/>
  </g>
    </g>
<g transform="translate(640 0)" clip-path="url(#frame-clip)">
      <g filter="url(#shadow)">
    <ellipse cx="64" cy="111" rx="46" ry="8" fill="#020706" opacity=".62"/>
  <path d="M27 101 L23 113 H37 L40 101 M88 101 L92 113 H106 L101 101" fill="#253b35" stroke="#14201d" stroke-width="2.4" stroke-linecap="round" stroke-linejoin="round"/>
  <path d="M19 103 H109 L103 112 H25Z" fill="#1c2d28" stroke="#14201d" stroke-width="2.4" stroke-linecap="round" stroke-linejoin="round"/>
  <path d="M27 105 H101" stroke="#f58844" stroke-width="1.4" opacity=".58"/><path d="M47 35 Q44.88 27 49.12 19" fill="none" stroke="#ffc070" stroke-width="1.7" opacity="0.24"/><path d="M60 35 Q57.00 27 63.00 19" fill="none" stroke="#ffc070" stroke-width="1.7" opacity="0.32"/><path d="M73 35 Q70.94 27 75.06 19" fill="none" stroke="#ffc070" stroke-width="1.7" opacity="0.40"/>
    <path d="M22 37 L31 27 H97 L106 37 V99 Q101 106 94 106 H34 Q26 105 22 99Z" fill="url(#body)" stroke="#14201d" stroke-width="2.4" stroke-linecap="round" stroke-linejoin="round"/>
    <rect x="31" y="42" width="66" height="51" rx="4" fill="#211711" stroke="#c86d35" stroke-width="2"/>
    <rect x="37" y="48" width="54" height="39" rx="3" fill="#120d0a" stroke="#7e4d31" stroke-width="1.3"/>
    <path d="M42 54 H84 L45 63 L84 72 L45 82 H86" fill="none" stroke="#f58844" stroke-width="5" opacity="0.66" filter="url(#soft-glow)"/>
    <path d="M42 54 H84 L45 63 L84 72 L45 82 H86" fill="none" stroke="#ffd18c" stroke-width="1.6" opacity=".94"/>
    <circle cx="97" cy="67" r="16" fill="#293b35" stroke="#14201d" stroke-width="2.4" stroke-linecap="round" stroke-linejoin="round"/>
    <g transform="rotate(225.00 97 67)"><path d="M97 52 Q105 58 101 66 Q94 62 97 52Z M112 67 Q106 75 98 71 Q102 64 112 67Z M97 82 Q89 76 93 68 Q100 72 97 82Z M82 67 Q88 59 96 63 Q92 70 82 67Z" fill="#c46d3c"/></g>
    <circle cx="97" cy="67" r="3.5" fill="#ffcf8b"/>
    <circle cx="43" cy="35" r="9" fill="#1c2d28" stroke="#8aa094" stroke-width="1.5"/>
    <path d="M43 35 L42.07 40.93" stroke="#ff9a4d" stroke-width="1.8"/>
    <path d="M59 30 H92" stroke="#c7d6cf" stroke-width="2" opacity=".35"/>
    <circle cx="29" cy="42" r="3" fill="#d8ff81" stroke="#17221f" stroke-width="1.4"/>
  </g>
    </g>
<g transform="translate(768 0)" clip-path="url(#frame-clip)">
      <g filter="url(#shadow)">
    <ellipse cx="64" cy="111" rx="46" ry="8" fill="#020706" opacity=".62"/>
  <path d="M27 101 L23 113 H37 L40 101 M88 101 L92 113 H106 L101 101" fill="#253b35" stroke="#14201d" stroke-width="2.4" stroke-linecap="round" stroke-linejoin="round"/>
  <path d="M19 103 H109 L103 112 H25Z" fill="#1c2d28" stroke="#14201d" stroke-width="2.4" stroke-linecap="round" stroke-linejoin="round"/>
  <path d="M27 105 H101" stroke="#f58844" stroke-width="1.4" opacity=".58"/><path d="M47 35 Q44.00 27 50.00 19" fill="none" stroke="#ffc070" stroke-width="1.7" opacity="0.24"/><path d="M60 35 Q57.91 27 62.09 19" fill="none" stroke="#ffc070" stroke-width="1.7" opacity="0.32"/><path d="M73 35 Q73.09 27 72.91 19" fill="none" stroke="#ffc070" stroke-width="1.7" opacity="0.40"/>
    <path d="M22 37 L31 27 H97 L106 37 V99 Q101 106 94 106 H34 Q26 105 22 99Z" fill="url(#body)" stroke="#14201d" stroke-width="2.4" stroke-linecap="round" stroke-linejoin="round"/>
    <rect x="31" y="42" width="66" height="51" rx="4" fill="#211711" stroke="#c86d35" stroke-width="2"/>
    <rect x="37" y="48" width="54" height="39" rx="3" fill="#120d0a" stroke="#7e4d31" stroke-width="1.3"/>
    <path d="M42 54 H84 L45 63 L84 72 L45 82 H86" fill="none" stroke="#f58844" stroke-width="5" opacity="0.62" filter="url(#soft-glow)"/>
    <path d="M42 54 H84 L45 63 L84 72 L45 82 H86" fill="none" stroke="#ffd18c" stroke-width="1.6" opacity=".94"/>
    <circle cx="97" cy="67" r="16" fill="#293b35" stroke="#14201d" stroke-width="2.4" stroke-linecap="round" stroke-linejoin="round"/>
    <g transform="rotate(270.00 97 67)"><path d="M97 52 Q105 58 101 66 Q94 62 97 52Z M112 67 Q106 75 98 71 Q102 64 112 67Z M97 82 Q89 76 93 68 Q100 72 97 82Z M82 67 Q88 59 96 63 Q92 70 82 67Z" fill="#c46d3c"/></g>
    <circle cx="97" cy="67" r="3.5" fill="#ffcf8b"/>
    <circle cx="43" cy="35" r="9" fill="#1c2d28" stroke="#8aa094" stroke-width="1.5"/>
    <path d="M43 35 L38.15 38.53" stroke="#ff9a4d" stroke-width="1.8"/>
    <path d="M59 30 H92" stroke="#c7d6cf" stroke-width="2" opacity=".35"/>
    <circle cx="29" cy="42" r="3" fill="#d8ff81" stroke="#17221f" stroke-width="1.4"/>
  </g>
    </g>
<g transform="translate(896 0)" clip-path="url(#frame-clip)">
      <g filter="url(#shadow)">
    <ellipse cx="64" cy="111" rx="46" ry="8" fill="#020706" opacity=".62"/>
  <path d="M27 101 L23 113 H37 L40 101 M88 101 L92 113 H106 L101 101" fill="#253b35" stroke="#14201d" stroke-width="2.4" stroke-linecap="round" stroke-linejoin="round"/>
  <path d="M19 103 H109 L103 112 H25Z" fill="#1c2d28" stroke="#14201d" stroke-width="2.4" stroke-linecap="round" stroke-linejoin="round"/>
  <path d="M27 105 H101" stroke="#f58844" stroke-width="1.4" opacity=".58"/><path d="M47 35 Q44.88 27 49.12 19" fill="none" stroke="#ffc070" stroke-width="1.7" opacity="0.24"/><path d="M60 35 Q60.04 27 59.96 19" fill="none" stroke="#ffc070" stroke-width="1.7" opacity="0.32"/><path d="M73 35 Q75.18 27 70.82 19" fill="none" stroke="#ffc070" stroke-width="1.7" opacity="0.40"/>
    <path d="M22 37 L31 27 H97 L106 37 V99 Q101 106 94 106 H34 Q26 105 22 99Z" fill="url(#body)" stroke="#14201d" stroke-width="2.4" stroke-linecap="round" stroke-linejoin="round"/>
    <rect x="31" y="42" width="66" height="51" rx="4" fill="#211711" stroke="#c86d35" stroke-width="2"/>
    <rect x="37" y="48" width="54" height="39" rx="3" fill="#120d0a" stroke="#7e4d31" stroke-width="1.3"/>
    <path d="M42 54 H84 L45 63 L84 72 L45 82 H86" fill="none" stroke="#f58844" stroke-width="5" opacity="0.66" filter="url(#soft-glow)"/>
    <path d="M42 54 H84 L45 63 L84 72 L45 82 H86" fill="none" stroke="#ffd18c" stroke-width="1.6" opacity=".94"/>
    <circle cx="97" cy="67" r="16" fill="#293b35" stroke="#14201d" stroke-width="2.4" stroke-linecap="round" stroke-linejoin="round"/>
    <g transform="rotate(315.00 97 67)"><path d="M97 52 Q105 58 101 66 Q94 62 97 52Z M112 67 Q106 75 98 71 Q102 64 112 67Z M97 82 Q89 76 93 68 Q100 72 97 82Z M82 67 Q88 59 96 63 Q92 70 82 67Z" fill="#c46d3c"/></g>
    <circle cx="97" cy="67" r="3.5" fill="#ffcf8b"/>
    <circle cx="43" cy="35" r="9" fill="#1c2d28" stroke="#8aa094" stroke-width="1.5"/>
    <path d="M43 35 L37.07 34.07" stroke="#ff9a4d" stroke-width="1.8"/>
    <path d="M59 30 H92" stroke="#c7d6cf" stroke-width="2" opacity=".35"/>
    <circle cx="29" cy="42" r="3" fill="#d8ff81" stroke="#17221f" stroke-width="1.4"/>
  </g>
    </g>
  </svg>
