<svg xmlns="http://www.w3.org/2000/svg"
    width="768" height="96"
    viewBox="0 0 768 96"
    role="img" aria-label="Anchor sprite sheet">
    <defs>
  <linearGradient id="body" x1="0" y1="0" x2="0.9" y2="1">
    <stop offset="0" stop-color="#a9eee5"/>
    <stop offset="0.48" stop-color="#55bbb4"/>
    <stop offset="1" stop-color="#2d7472"/>
  </linearGradient>
  <linearGradient id="shell" x1="0.12" y1="0" x2="0.84" y2="1">
    <stop offset="0" stop-color="#a9eee5"/>
    <stop offset="0.22" stop-color="#55bbb4"/>
    <stop offset="0.7" stop-color="#2d7472"/>
    <stop offset="1" stop-color="#111c1a"/>
  </linearGradient>
  <radialGradient id="glow">
    <stop offset="0" stop-color="#ffffff" stop-opacity="0.96"/>
    <stop offset="0.28" stop-color="#a9fff4" stop-opacity="0.9"/>
    <stop offset="1" stop-color="#58d4ca" stop-opacity="0"/>
  </radialGradient>
  <filter id="shadow" x="-40%" y="-40%" width="180%" height="190%">
    <feDropShadow dx="0" dy="2.5" stdDeviation="2.4" flood-color="#020908" flood-opacity="0.76"/>
  </filter>
  <filter id="soft-glow" x="-70%" y="-70%" width="240%" height="240%">
    <feGaussianBlur stdDeviation="2.2" result="blur"/>
    <feMerge><feMergeNode in="blur"/><feMergeNode in="SourceGraphic"/></feMerge>
  </filter>
  <clipPath id="frame-clip"><rect width="96" height="96"/></clipPath></defs>
    <g transform="translate(0 0)" clip-path="url(#frame-clip)">
      <g filter="url(#shadow)">
    <circle cx="48" cy="48" r="32.50" fill="none" stroke="#8fffea" stroke-width="1.2" opacity="0.25" filter="url(#soft-glow)"/>
    <g transform="rotate(0.00 48 48)"><path d="M64.00,48.00 L76.00,48.00" stroke="#3c8f8b" stroke-width="5" stroke-linecap="round"/><circle cx="77.00" cy="48.00" r="4" fill="#7be1d6" stroke="#173a38" stroke-width="1.5"/><path d="M56.00,59.26 L62.00,69.65" stroke="#3c8f8b" stroke-width="5" stroke-linecap="round"/><circle cx="62.50" cy="70.52" r="4" fill="#7be1d6" stroke="#173a38" stroke-width="1.5"/><path d="M40.00,59.26 L34.00,69.65" stroke="#3c8f8b" stroke-width="5" stroke-linecap="round"/><circle cx="33.50" cy="70.52" r="4" fill="#7be1d6" stroke="#173a38" stroke-width="1.5"/><path d="M32.00,48.00 L20.00,48.00" stroke="#3c8f8b" stroke-width="5" stroke-linecap="round"/><circle cx="19.00" cy="48.00" r="4" fill="#7be1d6" stroke="#173a38" stroke-width="1.5"/><path d="M40.00,36.74 L34.00,26.35" stroke="#3c8f8b" stroke-width="5" stroke-linecap="round"/><circle cx="33.50" cy="25.48" r="4" fill="#7be1d6" stroke="#173a38" stroke-width="1.5"/><path d="M56.00,36.74 L62.00,26.35" stroke="#3c8f8b" stroke-width="5" stroke-linecap="round"/><circle cx="62.50" cy="25.48" r="4" fill="#7be1d6" stroke="#173a38" stroke-width="1.5"/></g>
    <path d="M48 24 L65 34 L68 53 L56 69 L37 67 L27 52 L31 33Z" fill="url(#body)" stroke="#17221f" stroke-width="2" stroke-linecap="round" stroke-linejoin="round"/>
    <path d="M48 28 L60 37 L61 51 L52 61 L39 59 L34 49 L36 36Z" fill="#173f3e" stroke="#90e7de" stroke-width="1.5"/>
    <path d="M48 33 L56 45 L48 58 L40 45Z" fill="url(#glow)" stroke="#bffef5" stroke-width="1.3" filter="url(#soft-glow)"/>
    <path d="M38 32 L48 27 L57 33" fill="none" stroke="#d7fff8" stroke-width="1.5" opacity=".65"/>
    <circle cx="48" cy="45" r="2.2" fill="#f7ffff"/>
  </g>
    </g>
<g transform="translate(96 0)" clip-path="url(#frame-clip)">
      <g filter="url(#shadow)">
    <circle cx="48" cy="48" r="33.56" fill="none" stroke="#8fffea" stroke-width="1.2" opacity="0.34" filter="url(#soft-glow)"/>
    <g transform="rotate(1.00 48 48)"><path d="M63.99,48.41 L75.99,48.79" stroke="#3c8f8b" stroke-width="5" stroke-linecap="round"/><circle cx="76.99" cy="48.82" r="4" fill="#7be1d6" stroke="#173a38" stroke-width="1.5"/><path d="M55.56,59.46 L61.23,70.03" stroke="#3c8f8b" stroke-width="5" stroke-linecap="round"/><circle cx="61.70" cy="70.91" r="4" fill="#7be1d6" stroke="#173a38" stroke-width="1.5"/><path d="M39.57,59.05 L33.25,69.25" stroke="#3c8f8b" stroke-width="5" stroke-linecap="round"/><circle cx="32.72" cy="70.10" r="4" fill="#7be1d6" stroke="#173a38" stroke-width="1.5"/><path d="M32.01,47.59 L20.01,47.21" stroke="#3c8f8b" stroke-width="5" stroke-linecap="round"/><circle cx="19.01" cy="47.18" r="4" fill="#7be1d6" stroke="#173a38" stroke-width="1.5"/><path d="M40.44,36.54 L34.77,25.97" stroke="#3c8f8b" stroke-width="5" stroke-linecap="round"/><circle cx="34.30" cy="25.09" r="4" fill="#7be1d6" stroke="#173a38" stroke-width="1.5"/><path d="M56.43,36.95 L62.75,26.75" stroke="#3c8f8b" stroke-width="5" stroke-linecap="round"/><circle cx="63.28" cy="25.90" r="4" fill="#7be1d6" stroke="#173a38" stroke-width="1.5"/></g>
    <path d="M48 24 L65 34 L68 53 L56 69 L37 67 L27 52 L31 33Z" fill="url(#body)" stroke="#17221f" stroke-width="2" stroke-linecap="round" stroke-linejoin="round"/>
    <path d="M48 28 L60 37 L61 51 L52 61 L39 59 L34 49 L36 36Z" fill="#173f3e" stroke="#90e7de" stroke-width="1.5"/>
    <path d="M48 33 L56 45 L48 58 L40 45Z" fill="url(#glow)" stroke="#bffef5" stroke-width="1.3" filter="url(#soft-glow)"/>
    <path d="M38 32 L48 27 L57 33" fill="none" stroke="#d7fff8" stroke-width="1.5" opacity=".65"/>
    <circle cx="48" cy="45" r="2.2" fill="#f7ffff"/>
  </g>
    </g>
<g transform="translate(192 0)" clip-path="url(#frame-clip)">
      <g filter="url(#shadow)">
    <circle cx="48" cy="48" r="34.00" fill="none" stroke="#8fffea" stroke-width="1.2" opacity="0.38" filter="url(#soft-glow)"/>
    <g transform="rotate(2.00 48 48)"><path d="M63.97,48.82 L75.94,49.57" stroke="#3c8f8b" stroke-width="5" stroke-linecap="round"/><circle cx="76.94" cy="49.63" r="4" fill="#7be1d6" stroke="#173a38" stroke-width="1.5"/><path d="M55.11,59.64 L60.45,70.39" stroke="#3c8f8b" stroke-width="5" stroke-linecap="round"/><circle cx="60.89" cy="71.29" r="4" fill="#7be1d6" stroke="#173a38" stroke-width="1.5"/><path d="M39.15,58.83 L32.51,68.82" stroke="#3c8f8b" stroke-width="5" stroke-linecap="round"/><circle cx="31.95" cy="69.66" r="4" fill="#7be1d6" stroke="#173a38" stroke-width="1.5"/><path d="M32.03,47.18 L20.06,46.43" stroke="#3c8f8b" stroke-width="5" stroke-linecap="round"/><circle cx="19.06" cy="46.37" r="4" fill="#7be1d6" stroke="#173a38" stroke-width="1.5"/><path d="M40.89,36.36 L35.55,25.61" stroke="#3c8f8b" stroke-width="5" stroke-linecap="round"/><circle cx="35.11" cy="24.71" r="4" fill="#7be1d6" stroke="#173a38" stroke-width="1.5"/><path d="M56.85,37.17 L63.49,27.18" stroke="#3c8f8b" stroke-width="5" stroke-linecap="round"/><circle cx="64.05" cy="26.34" r="4" fill="#7be1d6" stroke="#173a38" stroke-width="1.5"/></g>
    <path d="M48 24 L65 34 L68 53 L56 69 L37 67 L27 52 L31 33Z" fill="url(#body)" stroke="#17221f" stroke-width="2" stroke-linecap="round" stroke-linejoin="round"/>
    <path d="M48 28 L60 37 L61 51 L52 61 L39 59 L34 49 L36 36Z" fill="#173f3e" stroke="#90e7de" stroke-width="1.5"/>
    <path d="M48 33 L56 45 L48 58 L40 45Z" fill="url(#glow)" stroke="#bffef5" stroke-width="1.3" filter="url(#soft-glow)"/>
    <path d="M38 32 L48 27 L57 33" fill="none" stroke="#d7fff8" stroke-width="1.5" opacity=".65"/>
    <circle cx="48" cy="45" r="2.2" fill="#f7ffff"/>
  </g>
    </g>
<g transform="translate(288 0)" clip-path="url(#frame-clip)">
      <g filter="url(#shadow)">
    <circle cx="48" cy="48" r="33.56" fill="none" stroke="#8fffea" stroke-width="1.2" opacity="0.34" filter="url(#soft-glow)"/>
    <g transform="rotate(3.00 48 48)"><path d="M63.93,49.22 L75.88,50.35" stroke="#3c8f8b" stroke-width="5" stroke-linecap="round"/><circle cx="76.87" cy="50.45" r="4" fill="#7be1d6" stroke="#173a38" stroke-width="1.5"/><path d="M54.66,59.82 L59.66,70.73" stroke="#3c8f8b" stroke-width="5" stroke-linecap="round"/><circle cx="60.07" cy="71.64" r="4" fill="#7be1d6" stroke="#173a38" stroke-width="1.5"/><path d="M38.73,58.60 L31.78,68.38" stroke="#3c8f8b" stroke-width="5" stroke-linecap="round"/><circle cx="31.20" cy="69.19" r="4" fill="#7be1d6" stroke="#173a38" stroke-width="1.5"/><path d="M32.07,46.78 L20.12,45.65" stroke="#3c8f8b" stroke-width="5" stroke-linecap="round"/><circle cx="19.13" cy="45.55" r="4" fill="#7be1d6" stroke="#173a38" stroke-width="1.5"/><path d="M41.34,36.18 L36.34,25.27" stroke="#3c8f8b" stroke-width="5" stroke-linecap="round"/><circle cx="35.93" cy="24.36" r="4" fill="#7be1d6" stroke="#173a38" stroke-width="1.5"/><path d="M57.27,37.40 L64.22,27.62" stroke="#3c8f8b" stroke-width="5" stroke-linecap="round"/><circle cx="64.80" cy="26.81" r="4" fill="#7be1d6" stroke="#173a38" stroke-width="1.5"/></g>
    <path d="M48 24 L65 34 L68 53 L56 69 L37 67 L27 52 L31 33Z" fill="url(#body)" stroke="#17221f" stroke-width="2" stroke-linecap="round" stroke-linejoin="round"/>
    <path d="M48 28 L60 37 L61 51 L52 61 L39 59 L34 49 L36 36Z" fill="#173f3e" stroke="#90e7de" stroke-width="1.5"/>
    <path d="M48 33 L56 45 L48 58 L40 45Z" fill="url(#glow)" stroke="#bffef5" stroke-width="1.3" filter="url(#soft-glow)"/>
    <path d="M38 32 L48 27 L57 33" fill="none" stroke="#d7fff8" stroke-width="1.5" opacity=".65"/>
    <circle cx="48" cy="45" r="2.2" fill="#f7ffff"/>
  </g>
    </g>
<g transform="translate(384 0)" clip-path="url(#frame-clip)">
      <g filter="url(#shadow)">
    <circle cx="48" cy="48" r="32.50" fill="none" stroke="#8fffea" stroke-width="1.2" opacity="0.25" filter="url(#soft-glow)"/>
    <g transform="rotate(4.00 48 48)"><path d="M63.87,49.63 L75.78,51.13" stroke="#3c8f8b" stroke-width="5" stroke-linecap="round"/><circle cx="76.77" cy="51.26" r="4" fill="#7be1d6" stroke="#173a38" stroke-width="1.5"/><path d="M54.20,59.98 L58.85,71.05" stroke="#3c8f8b" stroke-width="5" stroke-linecap="round"/><circle cx="59.24" cy="71.97" r="4" fill="#7be1d6" stroke="#173a38" stroke-width="1.5"/><path d="M38.33,58.35 L31.07,67.91" stroke="#3c8f8b" stroke-width="5" stroke-linecap="round"/><circle cx="30.47" cy="68.71" r="4" fill="#7be1d6" stroke="#173a38" stroke-width="1.5"/><path d="M32.13,46.37 L20.22,44.87" stroke="#3c8f8b" stroke-width="5" stroke-linecap="round"/><circle cx="19.23" cy="44.74" r="4" fill="#7be1d6" stroke="#173a38" stroke-width="1.5"/><path d="M41.80,36.02 L37.15,24.95" stroke="#3c8f8b" stroke-width="5" stroke-linecap="round"/><circle cx="36.76" cy="24.03" r="4" fill="#7be1d6" stroke="#173a38" stroke-width="1.5"/><path d="M57.67,37.65 L64.93,28.09" stroke="#3c8f8b" stroke-width="5" stroke-linecap="round"/><circle cx="65.53" cy="27.29" r="4" fill="#7be1d6" stroke="#173a38" stroke-width="1.5"/></g>
    <path d="M48 24 L65 34 L68 53 L56 69 L37 67 L27 52 L31 33Z" fill="url(#body)" stroke="#17221f" stroke-width="2" stroke-linecap="round" stroke-linejoin="round"/>
    <path d="M48 28 L60 37 L61 51 L52 61 L39 59 L34 49 L36 36Z" fill="#173f3e" stroke="#90e7de" stroke-width="1.5"/>
    <path d="M48 33 L56 45 L48 58 L40 45Z" fill="url(#glow)" stroke="#bffef5" stroke-width="1.3" filter="url(#soft-glow)"/>
    <path d="M38 32 L48 27 L57 33" fill="none" stroke="#d7fff8" stroke-width="1.5" opacity=".65"/>
    <circle cx="48" cy="45" r="2.2" fill="#f7ffff"/>
  </g>
    </g>
<g transform="translate(480 0)" clip-path="url(#frame-clip)">
      <g filter="url(#shadow)">
    <circle cx="48" cy="48" r="31.44" fill="none" stroke="#8fffea" stroke-width="1.2" opacity="0.16" filter="url(#soft-glow)"/>
    <g transform="rotate(5.00 48 48)"><path d="M63.80,50.03 L75.66,51.91" stroke="#3c8f8b" stroke-width="5" stroke-linecap="round"/><circle cx="76.64" cy="52.07" r="4" fill="#7be1d6" stroke="#173a38" stroke-width="1.5"/><path d="M53.73,60.14 L58.03,71.34" stroke="#3c8f8b" stroke-width="5" stroke-linecap="round"/><circle cx="58.39" cy="72.27" r="4" fill="#7be1d6" stroke="#173a38" stroke-width="1.5"/><path d="M37.93,58.10 L30.38,67.43" stroke="#3c8f8b" stroke-width="5" stroke-linecap="round"/><circle cx="29.75" cy="68.21" r="4" fill="#7be1d6" stroke="#173a38" stroke-width="1.5"/><path d="M32.20,45.97 L20.34,44.09" stroke="#3c8f8b" stroke-width="5" stroke-linecap="round"/><circle cx="19.36" cy="43.93" r="4" fill="#7be1d6" stroke="#173a38" stroke-width="1.5"/><path d="M42.27,35.86 L37.97,24.66" stroke="#3c8f8b" stroke-width="5" stroke-linecap="round"/><circle cx="37.61" cy="23.73" r="4" fill="#7be1d6" stroke="#173a38" stroke-width="1.5"/><path d="M58.07,37.90 L65.62,28.57" stroke="#3c8f8b" stroke-width="5" stroke-linecap="round"/><circle cx="66.25" cy="27.79" r="4" fill="#7be1d6" stroke="#173a38" stroke-width="1.5"/></g>
    <path d="M48 24 L65 34 L68 53 L56 69 L37 67 L27 52 L31 33Z" fill="url(#body)" stroke="#17221f" stroke-width="2" stroke-linecap="round" stroke-linejoin="round"/>
    <path d="M48 28 L60 37 L61 51 L52 61 L39 59 L34 49 L36 36Z" fill="#173f3e" stroke="#90e7de" stroke-width="1.5"/>
    <path d="M48 33 L56 45 L48 58 L40 45Z" fill="url(#glow)" stroke="#bffef5" stroke-width="1.3" filter="url(#soft-glow)"/>
    <path d="M38 32 L48 27 L57 33" fill="none" stroke="#d7fff8" stroke-width="1.5" opacity=".65"/>
    <circle cx="48" cy="45" r="2.2" fill="#f7ffff"/>
  </g>
    </g>
<g transform="translate(576 0)" clip-path="url(#frame-clip)">
      <g filter="url(#shadow)">
    <circle cx="48" cy="48" r="31.00" fill="none" stroke="#8fffea" stroke-width="1.2" opacity="0.12" filter="url(#soft-glow)"/>
    <g transform="rotate(6.00 48 48)"><path d="M63.72,50.44 L75.50,52.68" stroke="#3c8f8b" stroke-width="5" stroke-linecap="round"/><circle cx="76.49" cy="52.87" r="4" fill="#7be1d6" stroke="#173a38" stroke-width="1.5"/><path d="M53.26,60.28 L57.21,71.61" stroke="#3c8f8b" stroke-width="5" stroke-linecap="round"/><circle cx="57.54" cy="72.55" r="4" fill="#7be1d6" stroke="#173a38" stroke-width="1.5"/><path d="M37.55,57.84 L29.70,66.92" stroke="#3c8f8b" stroke-width="5" stroke-linecap="round"/><circle cx="29.05" cy="67.68" r="4" fill="#7be1d6" stroke="#173a38" stroke-width="1.5"/><path d="M32.28,45.56 L20.50,43.32" stroke="#3c8f8b" stroke-width="5" stroke-linecap="round"/><circle cx="19.51" cy="43.13" r="4" fill="#7be1d6" stroke="#173a38" stroke-width="1.5"/><path d="M42.74,35.72 L38.79,24.39" stroke="#3c8f8b" stroke-width="5" stroke-linecap="round"/><circle cx="38.46" cy="23.45" r="4" fill="#7be1d6" stroke="#173a38" stroke-width="1.5"/><path d="M58.45,38.16 L66.30,29.08" stroke="#3c8f8b" stroke-width="5" stroke-linecap="round"/><circle cx="66.95" cy="28.32" r="4" fill="#7be1d6" stroke="#173a38" stroke-width="1.5"/></g>
    <path d="M48 24 L65 34 L68 53 L56 69 L37 67 L27 52 L31 33Z" fill="url(#body)" stroke="#17221f" stroke-width="2" stroke-linecap="round" stroke-linejoin="round"/>
    <path d="M48 28 L60 37 L61 51 L52 61 L39 59 L34 49 L36 36Z" fill="#173f3e" stroke="#90e7de" stroke-width="1.5"/>
    <path d="M48 33 L56 45 L48 58 L40 45Z" fill="url(#glow)" stroke="#bffef5" stroke-width="1.3" filter="url(#soft-glow)"/>
    <path d="M38 32 L48 27 L57 33" fill="none" stroke="#d7fff8" stroke-width="1.5" opacity=".65"/>
    <circle cx="48" cy="45" r="2.2" fill="#f7ffff"/>
  </g>
    </g>
<g transform="translate(672 0)" clip-path="url(#frame-clip)">
      <g filter="url(#shadow)">
    <circle cx="48" cy="48" r="31.44" fill="none" stroke="#8fffea" stroke-width="1.2" opacity="0.16" filter="url(#soft-glow)"/>
    <g transform="rotate(7.00 48 48)"><path d="M63.61,50.84 L75.33,53.45" stroke="#3c8f8b" stroke-width="5" stroke-linecap="round"/><circle cx="76.30" cy="53.67" r="4" fill="#7be1d6" stroke="#173a38" stroke-width="1.5"/><path d="M52.78,60.41 L56.37,71.86" stroke="#3c8f8b" stroke-width="5" stroke-linecap="round"/><circle cx="56.67" cy="72.81" r="4" fill="#7be1d6" stroke="#173a38" stroke-width="1.5"/><path d="M37.17,57.57 L29.05,66.40" stroke="#3c8f8b" stroke-width="5" stroke-linecap="round"/><circle cx="28.37" cy="67.14" r="4" fill="#7be1d6" stroke="#173a38" stroke-width="1.5"/><path d="M32.39,45.16 L20.67,42.55" stroke="#3c8f8b" stroke-width="5" stroke-linecap="round"/><circle cx="19.70" cy="42.33" r="4" fill="#7be1d6" stroke="#173a38" stroke-width="1.5"/><path d="M43.22,35.59 L39.63,24.14" stroke="#3c8f8b" stroke-width="5" stroke-linecap="round"/><circle cx="39.33" cy="23.19" r="4" fill="#7be1d6" stroke="#173a38" stroke-width="1.5"/><path d="M58.83,38.43 L66.95,29.60" stroke="#3c8f8b" stroke-width="5" stroke-linecap="round"/><circle cx="67.63" cy="28.86" r="4" fill="#7be1d6" stroke="#173a38" stroke-width="1.5"/></g>
    <path d="M48 24 L65 34 L68 53 L56 69 L37 67 L27 52 L31 33Z" fill="url(#body)" stroke="#17221f" stroke-width="2" stroke-linecap="round" stroke-linejoin="round"/>
    <path d="M48 28 L60 37 L61 51 L52 61 L39 59 L34 49 L36 36Z" fill="#173f3e" stroke="#90e7de" stroke-width="1.5"/>
    <path d="M48 33 L56 45 L48 58 L40 45Z" fill="url(#glow)" stroke="#bffef5" stroke-width="1.3" filter="url(#soft-glow)"/>
    <path d="M38 32 L48 27 L57 33" fill="none" stroke="#d7fff8" stroke-width="1.5" opacity=".65"/>
    <circle cx="48" cy="45" r="2.2" fill="#f7ffff"/>
  </g>
    </g>
  </svg>
