<svg xmlns="http://www.w3.org/2000/svg"
    width="768" height="96"
    viewBox="0 0 768 96"
    role="img" aria-label="Deckmouth sprite sheet">
    <defs>
  <linearGradient id="body" x1="0" y1="0" x2="0.9" y2="1">
    <stop offset="0" stop-color="#f3df9b"/>
    <stop offset="0.48" stop-color="#c3a351"/>
    <stop offset="1" stop-color="#715a2f"/>
  </linearGradient>
  <linearGradient id="shell" x1="0.12" y1="0" x2="0.84" y2="1">
    <stop offset="0" stop-color="#f3df9b"/>
    <stop offset="0.22" stop-color="#c3a351"/>
    <stop offset="0.7" stop-color="#715a2f"/>
    <stop offset="1" stop-color="#111c1a"/>
  </linearGradient>
  <radialGradient id="glow">
    <stop offset="0" stop-color="#ffffff" stop-opacity="0.96"/>
    <stop offset="0.28" stop-color="#ffc76c" stop-opacity="0.9"/>
    <stop offset="1" stop-color="#b85f37" stop-opacity="0"/>
  </radialGradient>
  <filter id="shadow" x="-40%" y="-40%" width="180%" height="190%">
    <feDropShadow dx="0" dy="2.5" stdDeviation="2.4" flood-color="#020908" flood-opacity="0.76"/>
  </filter>
  <filter id="soft-glow" x="-70%" y="-70%" width="240%" height="240%">
    <feGaussianBlur stdDeviation="2.2" result="blur"/>
    <feMerge><feMergeNode in="blur"/><feMergeNode in="SourceGraphic"/></feMerge>
  </filter>
  <clipPath id="frame-clip"><rect width="96" height="96"/></clipPath></defs>
    <g transform="translate(0 0)" clip-path="url(#frame-clip)">
      <g transform="translate(0 0.00)" filter="url(#shadow)">
    <g fill="none" stroke="#17221f" stroke-width="2" stroke-linecap="round" stroke-linejoin="round">
      <path d="M31 57 Q22.00 67 18.00 76"/>
      <path d="M39 60 Q34.00 71 30.00 80"/>
      <path d="M50 59 Q48.00 72 52.00 79"/>
      <path d="M57 55 Q63.00 67 68.00 73"/>
    </g>
    <path d="M20 53 C20 36 32 27 50 29 C62 30 70 38 69 51 C68 63 56 70 39 67 C27 66 20 61 20 53Z" fill="url(#body)" stroke="#17221f" stroke-width="2" stroke-linecap="round" stroke-linejoin="round"/>
    <path d="M25 43 C31 32 46 30 57 35 C50 37 45 42 42 49 C35 47 30 46 25 43Z" fill="#f2dda0" opacity=".38"/>
    <path d="M29 35 Q38 27 47 31 L44 44 Q36 42 27 47Z" fill="#c5a855" stroke="#17221f" stroke-width="2" stroke-linecap="round" stroke-linejoin="round"/>
    <path d="M45 31 Q57 30 64 39 L55 48 Q50 42 42 42Z" fill="#a98a42" stroke="#17221f" stroke-width="2" stroke-linecap="round" stroke-linejoin="round"/>
    <path d="M31 36 Q38 32 43 34" fill="none" stroke="#fff2bd" stroke-width="1.4" opacity=".7"/>
    <g transform="translate(66 48) scale(1 1.00)">
      <path d="M-5 -12 C8 -16 18 -8 18 2 C18 13 7 18 -4 13 C-12 9 -13 -5 -5 -12Z" fill="#d5b261" stroke="#17221f" stroke-width="2" stroke-linecap="round" stroke-linejoin="round"/>
      <ellipse cx="6" cy="2" rx="8.8" ry="10.5" fill="#251816" stroke="#6f4b32" stroke-width="2"/>
      <ellipse cx="6" cy="2" rx="4.4" ry="5.8" fill="#080b09" stroke="#e9d292" stroke-width="1.2" stroke-dasharray="2.4 2.2"/>
      <path d="M0 -9 L3 -5 M12 -8 L10 -4 M14 9 L11 6 M-1 10 L2 6" stroke="#fff0bc" stroke-width="1.5"/>
    </g>
    <path d="M62 38 Q72 28 79 31 M60 36 Q66 24 72 22" fill="none" stroke="#6f5a32" stroke-width="1.5" stroke-linecap="round"/>
    <circle cx="59" cy="40" r="2.5" fill="#ffb65c" stroke="#251816" stroke-width="1.2"/>
  </g>
    </g>
<g transform="translate(96 0)" clip-path="url(#frame-clip)">
      <g transform="translate(0 1.15)" filter="url(#shadow)">
    <g fill="none" stroke="#17221f" stroke-width="2" stroke-linecap="round" stroke-linejoin="round">
      <path d="M31 57 Q17.05 67 13.05 76"/>
      <path d="M39 60 Q38.95 71 34.95 80"/>
      <path d="M50 59 Q43.05 72 47.05 79"/>
      <path d="M57 55 Q67.95 67 72.95 73"/>
    </g>
    <path d="M20 53 C20 36 32 27 50 29 C62 30 70 38 69 51 C68 63 56 70 39 67 C27 66 20 61 20 53Z" fill="url(#body)" stroke="#17221f" stroke-width="2" stroke-linecap="round" stroke-linejoin="round"/>
    <path d="M25 43 C31 32 46 30 57 35 C50 37 45 42 42 49 C35 47 30 46 25 43Z" fill="#f2dda0" opacity=".38"/>
    <path d="M29 35 Q38 27 47 31 L44 44 Q36 42 27 47Z" fill="#c5a855" stroke="#17221f" stroke-width="2" stroke-linecap="round" stroke-linejoin="round"/>
    <path d="M45 31 Q57 30 64 39 L55 48 Q50 42 42 42Z" fill="#a98a42" stroke="#17221f" stroke-width="2" stroke-linecap="round" stroke-linejoin="round"/>
    <path d="M31 36 Q38 32 43 34" fill="none" stroke="#fff2bd" stroke-width="1.4" opacity=".7"/>
    <g transform="translate(66 48) scale(1 1.01)">
      <path d="M-5 -12 C8 -16 18 -8 18 2 C18 13 7 18 -4 13 C-12 9 -13 -5 -5 -12Z" fill="#d5b261" stroke="#17221f" stroke-width="2" stroke-linecap="round" stroke-linejoin="round"/>
      <ellipse cx="6" cy="2" rx="8.8" ry="10.5" fill="#251816" stroke="#6f4b32" stroke-width="2"/>
      <ellipse cx="6" cy="2" rx="4.4" ry="5.8" fill="#080b09" stroke="#e9d292" stroke-width="1.2" stroke-dasharray="2.4 2.2"/>
      <path d="M0 -9 L3 -5 M12 -8 L10 -4 M14 9 L11 6 M-1 10 L2 6" stroke="#fff0bc" stroke-width="1.5"/>
    </g>
    <path d="M62 38 Q72 28 79 31 M60 36 Q66 24 72 22" fill="none" stroke="#6f5a32" stroke-width="1.5" stroke-linecap="round"/>
    <circle cx="59" cy="40" r="2.5" fill="#ffb65c" stroke="#251816" stroke-width="1.2"/>
  </g>
    </g>
<g transform="translate(192 0)" clip-path="url(#frame-clip)">
      <g transform="translate(0 0.00)" filter="url(#shadow)">
    <g fill="none" stroke="#17221f" stroke-width="2" stroke-linecap="round" stroke-linejoin="round">
      <path d="M31 57 Q15.00 67 11.00 76"/>
      <path d="M39 60 Q41.00 71 37.00 80"/>
      <path d="M50 59 Q41.00 72 45.00 79"/>
      <path d="M57 55 Q70.00 67 75.00 73"/>
    </g>
    <path d="M20 53 C20 36 32 27 50 29 C62 30 70 38 69 51 C68 63 56 70 39 67 C27 66 20 61 20 53Z" fill="url(#body)" stroke="#17221f" stroke-width="2" stroke-linecap="round" stroke-linejoin="round"/>
    <path d="M25 43 C31 32 46 30 57 35 C50 37 45 42 42 49 C35 47 30 46 25 43Z" fill="#f2dda0" opacity=".38"/>
    <path d="M29 35 Q38 27 47 31 L44 44 Q36 42 27 47Z" fill="#c5a855" stroke="#17221f" stroke-width="2" stroke-linecap="round" stroke-linejoin="round"/>
    <path d="M45 31 Q57 30 64 39 L55 48 Q50 42 42 42Z" fill="#a98a42" stroke="#17221f" stroke-width="2" stroke-linecap="round" stroke-linejoin="round"/>
    <path d="M31 36 Q38 32 43 34" fill="none" stroke="#fff2bd" stroke-width="1.4" opacity=".7"/>
    <g transform="translate(66 48) scale(1 1.12)">
      <path d="M-5 -12 C8 -16 18 -8 18 2 C18 13 7 18 -4 13 C-12 9 -13 -5 -5 -12Z" fill="#d5b261" stroke="#17221f" stroke-width="2" stroke-linecap="round" stroke-linejoin="round"/>
      <ellipse cx="6" cy="2" rx="8.8" ry="10.5" fill="#251816" stroke="#6f4b32" stroke-width="2"/>
      <ellipse cx="6" cy="2" rx="4.4" ry="5.8" fill="#080b09" stroke="#e9d292" stroke-width="1.2" stroke-dasharray="2.4 2.2"/>
      <path d="M0 -9 L3 -5 M12 -8 L10 -4 M14 9 L11 6 M-1 10 L2 6" stroke="#fff0bc" stroke-width="1.5"/>
    </g>
    <path d="M62 38 Q72 28 79 31 M60 36 Q66 24 72 22" fill="none" stroke="#6f5a32" stroke-width="1.5" stroke-linecap="round"/>
    <circle cx="59" cy="40" r="2.5" fill="#ffb65c" stroke="#251816" stroke-width="1.2"/>
  </g>
    </g>
<g transform="translate(288 0)" clip-path="url(#frame-clip)">
      <g transform="translate(0 -1.15)" filter="url(#shadow)">
    <g fill="none" stroke="#17221f" stroke-width="2" stroke-linecap="round" stroke-linejoin="round">
      <path d="M31 57 Q17.05 67 13.05 76"/>
      <path d="M39 60 Q38.95 71 34.95 80"/>
      <path d="M50 59 Q43.05 72 47.05 79"/>
      <path d="M57 55 Q67.95 67 72.95 73"/>
    </g>
    <path d="M20 53 C20 36 32 27 50 29 C62 30 70 38 69 51 C68 63 56 70 39 67 C27 66 20 61 20 53Z" fill="url(#body)" stroke="#17221f" stroke-width="2" stroke-linecap="round" stroke-linejoin="round"/>
    <path d="M25 43 C31 32 46 30 57 35 C50 37 45 42 42 49 C35 47 30 46 25 43Z" fill="#f2dda0" opacity=".38"/>
    <path d="M29 35 Q38 27 47 31 L44 44 Q36 42 27 47Z" fill="#c5a855" stroke="#17221f" stroke-width="2" stroke-linecap="round" stroke-linejoin="round"/>
    <path d="M45 31 Q57 30 64 39 L55 48 Q50 42 42 42Z" fill="#a98a42" stroke="#17221f" stroke-width="2" stroke-linecap="round" stroke-linejoin="round"/>
    <path d="M31 36 Q38 32 43 34" fill="none" stroke="#fff2bd" stroke-width="1.4" opacity=".7"/>
    <g transform="translate(66 48) scale(1 1.16)">
      <path d="M-5 -12 C8 -16 18 -8 18 2 C18 13 7 18 -4 13 C-12 9 -13 -5 -5 -12Z" fill="#d5b261" stroke="#17221f" stroke-width="2" stroke-linecap="round" stroke-linejoin="round"/>
      <ellipse cx="6" cy="2" rx="8.8" ry="10.5" fill="#251816" stroke="#6f4b32" stroke-width="2"/>
      <ellipse cx="6" cy="2" rx="4.4" ry="5.8" fill="#080b09" stroke="#e9d292" stroke-width="1.2" stroke-dasharray="2.4 2.2"/>
      <path d="M0 -9 L3 -5 M12 -8 L10 -4 M14 9 L11 6 M-1 10 L2 6" stroke="#fff0bc" stroke-width="1.5"/>
    </g>
    <path d="M62 38 Q72 28 79 31 M60 36 Q66 24 72 22" fill="none" stroke="#6f5a32" stroke-width="1.5" stroke-linecap="round"/>
    <circle cx="59" cy="40" r="2.5" fill="#ffb65c" stroke="#251816" stroke-width="1.2"/>
  </g>
    </g>
<g transform="translate(384 0)" clip-path="url(#frame-clip)">
      <g transform="translate(0 -0.00)" filter="url(#shadow)">
    <g fill="none" stroke="#17221f" stroke-width="2" stroke-linecap="round" stroke-linejoin="round">
      <path d="M31 57 Q22.00 67 18.00 76"/>
      <path d="M39 60 Q34.00 71 30.00 80"/>
      <path d="M50 59 Q48.00 72 52.00 79"/>
      <path d="M57 55 Q63.00 67 68.00 73"/>
    </g>
    <path d="M20 53 C20 36 32 27 50 29 C62 30 70 38 69 51 C68 63 56 70 39 67 C27 66 20 61 20 53Z" fill="url(#body)" stroke="#17221f" stroke-width="2" stroke-linecap="round" stroke-linejoin="round"/>
    <path d="M25 43 C31 32 46 30 57 35 C50 37 45 42 42 49 C35 47 30 46 25 43Z" fill="#f2dda0" opacity=".38"/>
    <path d="M29 35 Q38 27 47 31 L44 44 Q36 42 27 47Z" fill="#c5a855" stroke="#17221f" stroke-width="2" stroke-linecap="round" stroke-linejoin="round"/>
    <path d="M45 31 Q57 30 64 39 L55 48 Q50 42 42 42Z" fill="#a98a42" stroke="#17221f" stroke-width="2" stroke-linecap="round" stroke-linejoin="round"/>
    <path d="M31 36 Q38 32 43 34" fill="none" stroke="#fff2bd" stroke-width="1.4" opacity=".7"/>
    <g transform="translate(66 48) scale(1 1.10)">
      <path d="M-5 -12 C8 -16 18 -8 18 2 C18 13 7 18 -4 13 C-12 9 -13 -5 -5 -12Z" fill="#d5b261" stroke="#17221f" stroke-width="2" stroke-linecap="round" stroke-linejoin="round"/>
      <ellipse cx="6" cy="2" rx="8.8" ry="10.5" fill="#251816" stroke="#6f4b32" stroke-width="2"/>
      <ellipse cx="6" cy="2" rx="4.4" ry="5.8" fill="#080b09" stroke="#e9d292" stroke-width="1.2" stroke-dasharray="2.4 2.2"/>
      <path d="M0 -9 L3 -5 M12 -8 L10 -4 M14 9 L11 6 M-1 10 L2 6" stroke="#fff0bc" stroke-width="1.5"/>
    </g>
    <path d="M62 38 Q72 28 79 31 M60 36 Q66 24 72 22" fill="none" stroke="#6f5a32" stroke-width="1.5" stroke-linecap="round"/>
    <circle cx="59" cy="40" r="2.5" fill="#ffb65c" stroke="#251816" stroke-width="1.2"/>
  </g>
    </g>
<g transform="translate(480 0)" clip-path="url(#frame-clip)">
      <g transform="translate(0 1.15)" filter="url(#shadow)">
    <g fill="none" stroke="#17221f" stroke-width="2" stroke-linecap="round" stroke-linejoin="round">
      <path d="M31 57 Q26.95 67 22.95 76"/>
      <path d="M39 60 Q29.05 71 25.05 80"/>
      <path d="M50 59 Q52.95 72 56.95 79"/>
      <path d="M57 55 Q58.05 67 63.05 73"/>
    </g>
    <path d="M20 53 C20 36 32 27 50 29 C62 30 70 38 69 51 C68 63 56 70 39 67 C27 66 20 61 20 53Z" fill="url(#body)" stroke="#17221f" stroke-width="2" stroke-linecap="round" stroke-linejoin="round"/>
    <path d="M25 43 C31 32 46 30 57 35 C50 37 45 42 42 49 C35 47 30 46 25 43Z" fill="#f2dda0" opacity=".38"/>
    <path d="M29 35 Q38 27 47 31 L44 44 Q36 42 27 47Z" fill="#c5a855" stroke="#17221f" stroke-width="2" stroke-linecap="round" stroke-linejoin="round"/>
    <path d="M45 31 Q57 30 64 39 L55 48 Q50 42 42 42Z" fill="#a98a42" stroke="#17221f" stroke-width="2" stroke-linecap="round" stroke-linejoin="round"/>
    <path d="M31 36 Q38 32 43 34" fill="none" stroke="#fff2bd" stroke-width="1.4" opacity=".7"/>
    <g transform="translate(66 48) scale(1 1.00)">
      <path d="M-5 -12 C8 -16 18 -8 18 2 C18 13 7 18 -4 13 C-12 9 -13 -5 -5 -12Z" fill="#d5b261" stroke="#17221f" stroke-width="2" stroke-linecap="round" stroke-linejoin="round"/>
      <ellipse cx="6" cy="2" rx="8.8" ry="10.5" fill="#251816" stroke="#6f4b32" stroke-width="2"/>
      <ellipse cx="6" cy="2" rx="4.4" ry="5.8" fill="#080b09" stroke="#e9d292" stroke-width="1.2" stroke-dasharray="2.4 2.2"/>
      <path d="M0 -9 L3 -5 M12 -8 L10 -4 M14 9 L11 6 M-1 10 L2 6" stroke="#fff0bc" stroke-width="1.5"/>
    </g>
    <path d="M62 38 Q72 28 79 31 M60 36 Q66 24 72 22" fill="none" stroke="#6f5a32" stroke-width="1.5" stroke-linecap="round"/>
    <circle cx="59" cy="40" r="2.5" fill="#ffb65c" stroke="#251816" stroke-width="1.2"/>
  </g>
    </g>
<g transform="translate(576 0)" clip-path="url(#frame-clip)">
      <g transform="translate(0 0.00)" filter="url(#shadow)">
    <g fill="none" stroke="#17221f" stroke-width="2" stroke-linecap="round" stroke-linejoin="round">
      <path d="M31 57 Q29.00 67 25.00 76"/>
      <path d="M39 60 Q27.00 71 23.00 80"/>
      <path d="M50 59 Q55.00 72 59.00 79"/>
      <path d="M57 55 Q56.00 67 61.00 73"/>
    </g>
    <path d="M20 53 C20 36 32 27 50 29 C62 30 70 38 69 51 C68 63 56 70 39 67 C27 66 20 61 20 53Z" fill="url(#body)" stroke="#17221f" stroke-width="2" stroke-linecap="round" stroke-linejoin="round"/>
    <path d="M25 43 C31 32 46 30 57 35 C50 37 45 42 42 49 C35 47 30 46 25 43Z" fill="#f2dda0" opacity=".38"/>
    <path d="M29 35 Q38 27 47 31 L44 44 Q36 42 27 47Z" fill="#c5a855" stroke="#17221f" stroke-width="2" stroke-linecap="round" stroke-linejoin="round"/>
    <path d="M45 31 Q57 30 64 39 L55 48 Q50 42 42 42Z" fill="#a98a42" stroke="#17221f" stroke-width="2" stroke-linecap="round" stroke-linejoin="round"/>
    <path d="M31 36 Q38 32 43 34" fill="none" stroke="#fff2bd" stroke-width="1.4" opacity=".7"/>
    <g transform="translate(66 48) scale(1 1.00)">
      <path d="M-5 -12 C8 -16 18 -8 18 2 C18 13 7 18 -4 13 C-12 9 -13 -5 -5 -12Z" fill="#d5b261" stroke="#17221f" stroke-width="2" stroke-linecap="round" stroke-linejoin="round"/>
      <ellipse cx="6" cy="2" rx="8.8" ry="10.5" fill="#251816" stroke="#6f4b32" stroke-width="2"/>
      <ellipse cx="6" cy="2" rx="4.4" ry="5.8" fill="#080b09" stroke="#e9d292" stroke-width="1.2" stroke-dasharray="2.4 2.2"/>
      <path d="M0 -9 L3 -5 M12 -8 L10 -4 M14 9 L11 6 M-1 10 L2 6" stroke="#fff0bc" stroke-width="1.5"/>
    </g>
    <path d="M62 38 Q72 28 79 31 M60 36 Q66 24 72 22" fill="none" stroke="#6f5a32" stroke-width="1.5" stroke-linecap="round"/>
    <circle cx="59" cy="40" r="2.5" fill="#ffb65c" stroke="#251816" stroke-width="1.2"/>
  </g>
    </g>
<g transform="translate(672 0)" clip-path="url(#frame-clip)">
      <g transform="translate(0 -1.15)" filter="url(#shadow)">
    <g fill="none" stroke="#17221f" stroke-width="2" stroke-linecap="round" stroke-linejoin="round">
      <path d="M31 57 Q26.95 67 22.95 76"/>
      <path d="M39 60 Q29.05 71 25.05 80"/>
      <path d="M50 59 Q52.95 72 56.95 79"/>
      <path d="M57 55 Q58.05 67 63.05 73"/>
    </g>
    <path d="M20 53 C20 36 32 27 50 29 C62 30 70 38 69 51 C68 63 56 70 39 67 C27 66 20 61 20 53Z" fill="url(#body)" stroke="#17221f" stroke-width="2" stroke-linecap="round" stroke-linejoin="round"/>
    <path d="M25 43 C31 32 46 30 57 35 C50 37 45 42 42 49 C35 47 30 46 25 43Z" fill="#f2dda0" opacity=".38"/>
    <path d="M29 35 Q38 27 47 31 L44 44 Q36 42 27 47Z" fill="#c5a855" stroke="#17221f" stroke-width="2" stroke-linecap="round" stroke-linejoin="round"/>
    <path d="M45 31 Q57 30 64 39 L55 48 Q50 42 42 42Z" fill="#a98a42" stroke="#17221f" stroke-width="2" stroke-linecap="round" stroke-linejoin="round"/>
    <path d="M31 36 Q38 32 43 34" fill="none" stroke="#fff2bd" stroke-width="1.4" opacity=".7"/>
    <g transform="translate(66 48) scale(1 1.00)">
      <path d="M-5 -12 C8 -16 18 -8 18 2 C18 13 7 18 -4 13 C-12 9 -13 -5 -5 -12Z" fill="#d5b261" stroke="#17221f" stroke-width="2" stroke-linecap="round" stroke-linejoin="round"/>
      <ellipse cx="6" cy="2" rx="8.8" ry="10.5" fill="#251816" stroke="#6f4b32" stroke-width="2"/>
      <ellipse cx="6" cy="2" rx="4.4" ry="5.8" fill="#080b09" stroke="#e9d292" stroke-width="1.2" stroke-dasharray="2.4 2.2"/>
      <path d="M0 -9 L3 -5 M12 -8 L10 -4 M14 9 L11 6 M-1 10 L2 6" stroke="#fff0bc" stroke-width="1.5"/>
    </g>
    <path d="M62 38 Q72 28 79 31 M60 36 Q66 24 72 22" fill="none" stroke="#6f5a32" stroke-width="1.5" stroke-linecap="round"/>
    <circle cx="59" cy="40" r="2.5" fill="#ffb65c" stroke="#251816" stroke-width="1.2"/>
  </g>
    </g>
  </svg>
