<svg xmlns="http://www.w3.org/2000/svg"
    width="768" height="96"
    viewBox="0 0 768 96"
    role="img" aria-label="Redlung sprite sheet">
    <defs>
  <linearGradient id="body" x1="0" y1="0" x2="0.9" y2="1">
    <stop offset="0" stop-color="#ff9c9f"/>
    <stop offset="0.48" stop-color="#d94c61"/>
    <stop offset="1" stop-color="#7b2c3d"/>
  </linearGradient>
  <linearGradient id="shell" x1="0.12" y1="0" x2="0.84" y2="1">
    <stop offset="0" stop-color="#ff9c9f"/>
    <stop offset="0.22" stop-color="#d94c61"/>
    <stop offset="0.7" stop-color="#7b2c3d"/>
    <stop offset="1" stop-color="#111c1a"/>
  </linearGradient>
  <radialGradient id="glow">
    <stop offset="0" stop-color="#ffffff" stop-opacity="0.96"/>
    <stop offset="0.28" stop-color="#ffb69d" stop-opacity="0.9"/>
    <stop offset="1" stop-color="#e16a70" stop-opacity="0"/>
  </radialGradient>
  <filter id="shadow" x="-40%" y="-40%" width="180%" height="190%">
    <feDropShadow dx="0" dy="2.5" stdDeviation="2.4" flood-color="#020908" flood-opacity="0.76"/>
  </filter>
  <filter id="soft-glow" x="-70%" y="-70%" width="240%" height="240%">
    <feGaussianBlur stdDeviation="2.2" result="blur"/>
    <feMerge><feMergeNode in="blur"/><feMergeNode in="SourceGraphic"/></feMerge>
  </filter>
  <clipPath id="frame-clip"><rect width="96" height="96"/></clipPath></defs>
    <g transform="translate(0 0)" clip-path="url(#frame-clip)">
      <g filter="url(#shadow)">
    <path d="M35 61 Q30.00 72 25.00 78 M58 62 Q64.00 72 70.00 77" fill="none" stroke="#812f3f" stroke-width="3" stroke-linecap="round"/>
    <path d="M24 45 Q14 38 13 28" fill="none" stroke="#a83348" stroke-width="3" stroke-linecap="round"/>
        <circle cx="12" cy="25.00" r="2.00" fill="#f4a6a2" opacity="0.25"/><path d="M72 45 Q82 38 83 28" fill="none" stroke="#a83348" stroke-width="3" stroke-linecap="round"/>
        <circle cx="84" cy="25.00" r="2.00" fill="#f4a6a2" opacity="0.25"/>
    <g transform="translate(48 49) scale(1.00 1.00) translate(-48 -49)">
      <path d="M22 48 Q23 23 46 20 Q72 22 75 48 Q72 68 49 70 Q25 68 22 48Z" fill="url(#body)" stroke="#17221f" stroke-width="2" stroke-linecap="round" stroke-linejoin="round"/>
      <path d="M28 43 Q33 27 48 25 Q60 27 67 39 Q48 33 28 43Z" fill="#ffc0b8" opacity=".33"/>
      <path d="M48 25 C43 36 43 54 49 67 M36 28 C31 42 33 56 39 65 M60 29 C67 42 65 56 59 65" fill="none" stroke="#9f3248" stroke-width="1.5" opacity=".68"/>
      <path d="M39 49 Q48 43 58 49 Q52 59 48 60 Q43 58 39 49Z" fill="#5b2633" stroke="#f0a89c" stroke-width="1.3"/>
      <circle cx="38" cy="41" r="2.2" fill="#ffd78d"/><circle cx="59" cy="41" r="2.2" fill="#ffd78d"/>
    </g>
  </g>
    </g>
<g transform="translate(96 0)" clip-path="url(#frame-clip)">
      <g filter="url(#shadow)">
    <path d="M35 61 Q26.46 72 21.46 78 M58 62 Q67.54 72 73.54 77" fill="none" stroke="#812f3f" stroke-width="3" stroke-linecap="round"/>
    <path d="M24 45 Q14 38 13 28" fill="none" stroke="#a83348" stroke-width="3" stroke-linecap="round"/>
        <circle cx="12" cy="25.00" r="2.00" fill="#f4a6a2" opacity="0.25"/><path d="M72 45 Q82 38 83 28" fill="none" stroke="#a83348" stroke-width="3" stroke-linecap="round"/>
        <circle cx="84" cy="22.17" r="3.41" fill="#f4a6a2" opacity="0.57"/>
    <g transform="translate(48 49) scale(1.02 1.02) translate(-48 -49)">
      <path d="M22 48 Q23 23 46 20 Q72 22 75 48 Q72 68 49 70 Q25 68 22 48Z" fill="url(#body)" stroke="#17221f" stroke-width="2" stroke-linecap="round" stroke-linejoin="round"/>
      <path d="M28 43 Q33 27 48 25 Q60 27 67 39 Q48 33 28 43Z" fill="#ffc0b8" opacity=".33"/>
      <path d="M48 25 C43 36 43 54 49 67 M36 28 C31 42 33 56 39 65 M60 29 C67 42 65 56 59 65" fill="none" stroke="#9f3248" stroke-width="1.5" opacity=".68"/>
      <path d="M39 49 Q48 43 58 49 Q52 59 48 60 Q43 58 39 49Z" fill="#5b2633" stroke="#f0a89c" stroke-width="1.3"/>
      <circle cx="38" cy="41" r="2.2" fill="#ffd78d"/><circle cx="59" cy="41" r="2.2" fill="#ffd78d"/>
    </g>
  </g>
    </g>
<g transform="translate(192 0)" clip-path="url(#frame-clip)">
      <g filter="url(#shadow)">
    <path d="M35 61 Q25.00 72 20.00 78 M58 62 Q69.00 72 75.00 77" fill="none" stroke="#812f3f" stroke-width="3" stroke-linecap="round"/>
    <path d="M24 45 Q14 38 13 28" fill="none" stroke="#a83348" stroke-width="3" stroke-linecap="round"/>
        <circle cx="12" cy="25.00" r="2.00" fill="#f4a6a2" opacity="0.25"/><path d="M72 45 Q82 38 83 28" fill="none" stroke="#a83348" stroke-width="3" stroke-linecap="round"/>
        <circle cx="84" cy="21.00" r="4.00" fill="#f4a6a2" opacity="0.70"/>
    <g transform="translate(48 49) scale(1.07 1.07) translate(-48 -49)">
      <path d="M22 48 Q23 23 46 20 Q72 22 75 48 Q72 68 49 70 Q25 68 22 48Z" fill="url(#body)" stroke="#17221f" stroke-width="2" stroke-linecap="round" stroke-linejoin="round"/>
      <path d="M28 43 Q33 27 48 25 Q60 27 67 39 Q48 33 28 43Z" fill="#ffc0b8" opacity=".33"/>
      <path d="M48 25 C43 36 43 54 49 67 M36 28 C31 42 33 56 39 65 M60 29 C67 42 65 56 59 65" fill="none" stroke="#9f3248" stroke-width="1.5" opacity=".68"/>
      <path d="M39 49 Q48 43 58 49 Q52 59 48 60 Q43 58 39 49Z" fill="#5b2633" stroke="#f0a89c" stroke-width="1.3"/>
      <circle cx="38" cy="41" r="2.2" fill="#ffd78d"/><circle cx="59" cy="41" r="2.2" fill="#ffd78d"/>
    </g>
  </g>
    </g>
<g transform="translate(288 0)" clip-path="url(#frame-clip)">
      <g filter="url(#shadow)">
    <path d="M35 61 Q26.46 72 21.46 78 M58 62 Q67.54 72 73.54 77" fill="none" stroke="#812f3f" stroke-width="3" stroke-linecap="round"/>
    <path d="M24 45 Q14 38 13 28" fill="none" stroke="#a83348" stroke-width="3" stroke-linecap="round"/>
        <circle cx="12" cy="25.00" r="2.00" fill="#f4a6a2" opacity="0.25"/><path d="M72 45 Q82 38 83 28" fill="none" stroke="#a83348" stroke-width="3" stroke-linecap="round"/>
        <circle cx="84" cy="22.17" r="3.41" fill="#f4a6a2" opacity="0.57"/>
    <g transform="translate(48 49) scale(1.13 1.13) translate(-48 -49)">
      <path d="M22 48 Q23 23 46 20 Q72 22 75 48 Q72 68 49 70 Q25 68 22 48Z" fill="url(#body)" stroke="#17221f" stroke-width="2" stroke-linecap="round" stroke-linejoin="round"/>
      <path d="M28 43 Q33 27 48 25 Q60 27 67 39 Q48 33 28 43Z" fill="#ffc0b8" opacity=".33"/>
      <path d="M48 25 C43 36 43 54 49 67 M36 28 C31 42 33 56 39 65 M60 29 C67 42 65 56 59 65" fill="none" stroke="#9f3248" stroke-width="1.5" opacity=".68"/>
      <path d="M39 49 Q48 43 58 49 Q52 59 48 60 Q43 58 39 49Z" fill="#5b2633" stroke="#f0a89c" stroke-width="1.3"/>
      <circle cx="38" cy="41" r="2.2" fill="#ffd78d"/><circle cx="59" cy="41" r="2.2" fill="#ffd78d"/>
    </g>
  </g>
    </g>
<g transform="translate(384 0)" clip-path="url(#frame-clip)">
      <g filter="url(#shadow)">
    <path d="M35 61 Q30.00 72 25.00 78 M58 62 Q64.00 72 70.00 77" fill="none" stroke="#812f3f" stroke-width="3" stroke-linecap="round"/>
    <path d="M24 45 Q14 38 13 28" fill="none" stroke="#a83348" stroke-width="3" stroke-linecap="round"/>
        <circle cx="12" cy="25.00" r="2.00" fill="#f4a6a2" opacity="0.25"/><path d="M72 45 Q82 38 83 28" fill="none" stroke="#a83348" stroke-width="3" stroke-linecap="round"/>
        <circle cx="84" cy="25.00" r="2.00" fill="#f4a6a2" opacity="0.25"/>
    <g transform="translate(48 49) scale(1.15 1.15) translate(-48 -49)">
      <path d="M22 48 Q23 23 46 20 Q72 22 75 48 Q72 68 49 70 Q25 68 22 48Z" fill="url(#body)" stroke="#17221f" stroke-width="2" stroke-linecap="round" stroke-linejoin="round"/>
      <path d="M28 43 Q33 27 48 25 Q60 27 67 39 Q48 33 28 43Z" fill="#ffc0b8" opacity=".33"/>
      <path d="M48 25 C43 36 43 54 49 67 M36 28 C31 42 33 56 39 65 M60 29 C67 42 65 56 59 65" fill="none" stroke="#9f3248" stroke-width="1.5" opacity=".68"/>
      <path d="M39 49 Q48 43 58 49 Q52 59 48 60 Q43 58 39 49Z" fill="#5b2633" stroke="#f0a89c" stroke-width="1.3"/>
      <circle cx="38" cy="41" r="2.2" fill="#ffd78d"/><circle cx="59" cy="41" r="2.2" fill="#ffd78d"/>
    </g>
  </g>
    </g>
<g transform="translate(480 0)" clip-path="url(#frame-clip)">
      <g filter="url(#shadow)">
    <path d="M35 61 Q33.54 72 28.54 78 M58 62 Q60.46 72 66.46 77" fill="none" stroke="#812f3f" stroke-width="3" stroke-linecap="round"/>
    <path d="M24 45 Q14 38 13 28" fill="none" stroke="#a83348" stroke-width="3" stroke-linecap="round"/>
        <circle cx="12" cy="22.17" r="3.41" fill="#f4a6a2" opacity="0.57"/><path d="M72 45 Q82 38 83 28" fill="none" stroke="#a83348" stroke-width="3" stroke-linecap="round"/>
        <circle cx="84" cy="25.00" r="2.00" fill="#f4a6a2" opacity="0.25"/>
    <g transform="translate(48 49) scale(1.13 1.13) translate(-48 -49)">
      <path d="M22 48 Q23 23 46 20 Q72 22 75 48 Q72 68 49 70 Q25 68 22 48Z" fill="url(#body)" stroke="#17221f" stroke-width="2" stroke-linecap="round" stroke-linejoin="round"/>
      <path d="M28 43 Q33 27 48 25 Q60 27 67 39 Q48 33 28 43Z" fill="#ffc0b8" opacity=".33"/>
      <path d="M48 25 C43 36 43 54 49 67 M36 28 C31 42 33 56 39 65 M60 29 C67 42 65 56 59 65" fill="none" stroke="#9f3248" stroke-width="1.5" opacity=".68"/>
      <path d="M39 49 Q48 43 58 49 Q52 59 48 60 Q43 58 39 49Z" fill="#5b2633" stroke="#f0a89c" stroke-width="1.3"/>
      <circle cx="38" cy="41" r="2.2" fill="#ffd78d"/><circle cx="59" cy="41" r="2.2" fill="#ffd78d"/>
    </g>
  </g>
    </g>
<g transform="translate(576 0)" clip-path="url(#frame-clip)">
      <g filter="url(#shadow)">
    <path d="M35 61 Q35.00 72 30.00 78 M58 62 Q59.00 72 65.00 77" fill="none" stroke="#812f3f" stroke-width="3" stroke-linecap="round"/>
    <path d="M24 45 Q14 38 13 28" fill="none" stroke="#a83348" stroke-width="3" stroke-linecap="round"/>
        <circle cx="12" cy="21.00" r="4.00" fill="#f4a6a2" opacity="0.70"/><path d="M72 45 Q82 38 83 28" fill="none" stroke="#a83348" stroke-width="3" stroke-linecap="round"/>
        <circle cx="84" cy="25.00" r="2.00" fill="#f4a6a2" opacity="0.25"/>
    <g transform="translate(48 49) scale(1.07 1.07) translate(-48 -49)">
      <path d="M22 48 Q23 23 46 20 Q72 22 75 48 Q72 68 49 70 Q25 68 22 48Z" fill="url(#body)" stroke="#17221f" stroke-width="2" stroke-linecap="round" stroke-linejoin="round"/>
      <path d="M28 43 Q33 27 48 25 Q60 27 67 39 Q48 33 28 43Z" fill="#ffc0b8" opacity=".33"/>
      <path d="M48 25 C43 36 43 54 49 67 M36 28 C31 42 33 56 39 65 M60 29 C67 42 65 56 59 65" fill="none" stroke="#9f3248" stroke-width="1.5" opacity=".68"/>
      <path d="M39 49 Q48 43 58 49 Q52 59 48 60 Q43 58 39 49Z" fill="#5b2633" stroke="#f0a89c" stroke-width="1.3"/>
      <circle cx="38" cy="41" r="2.2" fill="#ffd78d"/><circle cx="59" cy="41" r="2.2" fill="#ffd78d"/>
    </g>
  </g>
    </g>
<g transform="translate(672 0)" clip-path="url(#frame-clip)">
      <g filter="url(#shadow)">
    <path d="M35 61 Q33.54 72 28.54 78 M58 62 Q60.46 72 66.46 77" fill="none" stroke="#812f3f" stroke-width="3" stroke-linecap="round"/>
    <path d="M24 45 Q14 38 13 28" fill="none" stroke="#a83348" stroke-width="3" stroke-linecap="round"/>
        <circle cx="12" cy="22.17" r="3.41" fill="#f4a6a2" opacity="0.57"/><path d="M72 45 Q82 38 83 28" fill="none" stroke="#a83348" stroke-width="3" stroke-linecap="round"/>
        <circle cx="84" cy="25.00" r="2.00" fill="#f4a6a2" opacity="0.25"/>
    <g transform="translate(48 49) scale(1.02 1.02) translate(-48 -49)">
      <path d="M22 48 Q23 23 46 20 Q72 22 75 48 Q72 68 49 70 Q25 68 22 48Z" fill="url(#body)" stroke="#17221f" stroke-width="2" stroke-linecap="round" stroke-linejoin="round"/>
      <path d="M28 43 Q33 27 48 25 Q60 27 67 39 Q48 33 28 43Z" fill="#ffc0b8" opacity=".33"/>
      <path d="M48 25 C43 36 43 54 49 67 M36 28 C31 42 33 56 39 65 M60 29 C67 42 65 56 59 65" fill="none" stroke="#9f3248" stroke-width="1.5" opacity=".68"/>
      <path d="M39 49 Q48 43 58 49 Q52 59 48 60 Q43 58 39 49Z" fill="#5b2633" stroke="#f0a89c" stroke-width="1.3"/>
      <circle cx="38" cy="41" r="2.2" fill="#ffd78d"/><circle cx="59" cy="41" r="2.2" fill="#ffd78d"/>
    </g>
  </g>
    </g>
  </svg>
