<svg xmlns="http://www.w3.org/2000/svg"
    width="768" height="96"
    viewBox="0 0 768 96"
    role="img" aria-label="Splitback armored phase sprite sheet">
    <defs>
  <linearGradient id="body" x1="0" y1="0" x2="0.9" y2="1">
    <stop offset="0" stop-color="#c2d9d9"/>
    <stop offset="0.48" stop-color="#789da0"/>
    <stop offset="1" stop-color="#3f5b5e"/>
  </linearGradient>
  <linearGradient id="shell" x1="0.12" y1="0" x2="0.84" y2="1">
    <stop offset="0" stop-color="#c2d9d9"/>
    <stop offset="0.22" stop-color="#789da0"/>
    <stop offset="0.7" stop-color="#3f5b5e"/>
    <stop offset="1" stop-color="#111c1a"/>
  </linearGradient>
  <radialGradient id="glow">
    <stop offset="0" stop-color="#ffffff" stop-opacity="0.96"/>
    <stop offset="0.28" stop-color="#e6d4a9" stop-opacity="0.9"/>
    <stop offset="1" stop-color="#cf9d70" stop-opacity="0"/>
  </radialGradient>
  <filter id="shadow" x="-40%" y="-40%" width="180%" height="190%">
    <feDropShadow dx="0" dy="2.5" stdDeviation="2.4" flood-color="#020908" flood-opacity="0.76"/>
  </filter>
  <filter id="soft-glow" x="-70%" y="-70%" width="240%" height="240%">
    <feGaussianBlur stdDeviation="2.2" result="blur"/>
    <feMerge><feMergeNode in="blur"/><feMergeNode in="SourceGraphic"/></feMerge>
  </filter>
  <clipPath id="frame-clip"><rect width="96" height="96"/></clipPath></defs>
    <g transform="translate(0 0)" clip-path="url(#frame-clip)">
      <g transform="translate(0 0.00)" filter="url(#shadow)">
    <path d="M22 58 Q16.00 69 13.00 77 M37 62 Q34.00 72 30.00 80
      M57 60 Q62.00 70 67.00 77 M69 55 Q75.00 65 81.00 68" fill="none" stroke="#17221f" stroke-width="2" stroke-linecap="round" stroke-linejoin="round"/>
    <path d="M15 55 Q17 38 29 31 Q51 18 73 37 Q82 45 78 58 Q54 70 26 64Z" fill="#344b4d" stroke="#17221f" stroke-width="2" stroke-linecap="round" stroke-linejoin="round"/>
    <path d="M22 55.00 Q19 33.00 29 28.00 Q37 37.00 33 57.00Z" fill="url(#shell)" stroke="#17221f" stroke-width="2" stroke-linecap="round" stroke-linejoin="round"/><path d="M32 55.82 Q29 33.82 39 28.82 Q47 37.82 43 57.82Z" fill="url(#shell)" stroke="#17221f" stroke-width="2" stroke-linecap="round" stroke-linejoin="round"/><path d="M42 56.20 Q39 34.20 49 29.20 Q57 38.20 53 58.20Z" fill="url(#shell)" stroke="#17221f" stroke-width="2" stroke-linecap="round" stroke-linejoin="round"/><path d="M52 55.93 Q49 33.93 59 28.93 Q67 37.93 63 57.93Z" fill="url(#shell)" stroke="#17221f" stroke-width="2" stroke-linecap="round" stroke-linejoin="round"/><path d="M62 55.17 Q59 33.17 69 28.17 Q77 37.17 73 57.17Z" fill="url(#shell)" stroke="#17221f" stroke-width="2" stroke-linecap="round" stroke-linejoin="round"/>
    <path d="M20 49 Q43 25 70 39" fill="none" stroke="#d5edef" stroke-width="2" opacity=".42"/>
    <path d="M72 39 L84 44 L81 57 L70 59Z" fill="#668689" stroke="#17221f" stroke-width="2" stroke-linecap="round" stroke-linejoin="round"/>
    <circle cx="77" cy="46" r="2.2" fill="#f3d5a2" stroke="#15201f" stroke-width="1"/>
  </g>
    </g>
<g transform="translate(96 0)" clip-path="url(#frame-clip)">
      <g transform="translate(0 0.65)" filter="url(#shadow)">
    <path d="M22 58 Q13.17 69 10.17 77 M37 62 Q36.83 72 32.83 80
      M57 60 Q59.17 70 64.17 77 M69 55 Q77.83 65 83.83 68" fill="none" stroke="#17221f" stroke-width="2" stroke-linecap="round" stroke-linejoin="round"/>
    <path d="M15 55 Q17 38 29 31 Q51 18 73 37 Q82 45 78 58 Q54 70 26 64Z" fill="#344b4d" stroke="#17221f" stroke-width="2" stroke-linecap="round" stroke-linejoin="round"/>
    <path d="M22 55.85 Q19 33.85 29 28.85 Q37 37.85 33 57.85Z" fill="url(#shell)" stroke="#17221f" stroke-width="2" stroke-linecap="round" stroke-linejoin="round"/><path d="M32 56.20 Q29 34.20 39 29.20 Q47 38.20 43 58.20Z" fill="url(#shell)" stroke="#17221f" stroke-width="2" stroke-linecap="round" stroke-linejoin="round"/><path d="M42 55.91 Q39 33.91 49 28.91 Q57 37.91 53 57.91Z" fill="url(#shell)" stroke="#17221f" stroke-width="2" stroke-linecap="round" stroke-linejoin="round"/><path d="M52 55.13 Q49 33.13 59 28.13 Q67 37.13 63 57.13Z" fill="url(#shell)" stroke="#17221f" stroke-width="2" stroke-linecap="round" stroke-linejoin="round"/><path d="M62 54.28 Q59 32.28 69 27.28 Q77 36.28 73 56.28Z" fill="url(#shell)" stroke="#17221f" stroke-width="2" stroke-linecap="round" stroke-linejoin="round"/>
    <path d="M20 49 Q43 25 70 39" fill="none" stroke="#d5edef" stroke-width="2" opacity=".42"/>
    <path d="M72 39 L84 44 L81 57 L70 59Z" fill="#668689" stroke="#17221f" stroke-width="2" stroke-linecap="round" stroke-linejoin="round"/>
    <circle cx="77" cy="46" r="2.2" fill="#f3d5a2" stroke="#15201f" stroke-width="1"/>
  </g>
    </g>
<g transform="translate(192 0)" clip-path="url(#frame-clip)">
      <g transform="translate(0 0.00)" filter="url(#shadow)">
    <path d="M22 58 Q12.00 69 9.00 77 M37 62 Q38.00 72 34.00 80
      M57 60 Q58.00 70 63.00 77 M69 55 Q79.00 65 85.00 68" fill="none" stroke="#17221f" stroke-width="2" stroke-linecap="round" stroke-linejoin="round"/>
    <path d="M15 55 Q17 38 29 31 Q51 18 73 37 Q82 45 78 58 Q54 70 26 64Z" fill="#344b4d" stroke="#17221f" stroke-width="2" stroke-linecap="round" stroke-linejoin="round"/>
    <path d="M22 56.20 Q19 34.20 29 29.20 Q37 38.20 33 58.20Z" fill="url(#shell)" stroke="#17221f" stroke-width="2" stroke-linecap="round" stroke-linejoin="round"/><path d="M32 55.88 Q29 33.88 39 28.88 Q47 37.88 43 57.88Z" fill="url(#shell)" stroke="#17221f" stroke-width="2" stroke-linecap="round" stroke-linejoin="round"/><path d="M42 55.08 Q39 33.08 49 28.08 Q57 37.08 53 57.08Z" fill="url(#shell)" stroke="#17221f" stroke-width="2" stroke-linecap="round" stroke-linejoin="round"/><path d="M52 54.25 Q49 32.25 59 27.25 Q67 36.25 63 56.25Z" fill="url(#shell)" stroke="#17221f" stroke-width="2" stroke-linecap="round" stroke-linejoin="round"/><path d="M62 53.81 Q59 31.81 69 26.81 Q77 35.81 73 55.81Z" fill="url(#shell)" stroke="#17221f" stroke-width="2" stroke-linecap="round" stroke-linejoin="round"/>
    <path d="M20 49 Q43 25 70 39" fill="none" stroke="#d5edef" stroke-width="2" opacity=".42"/>
    <path d="M72 39 L84 44 L81 57 L70 59Z" fill="#668689" stroke="#17221f" stroke-width="2" stroke-linecap="round" stroke-linejoin="round"/>
    <circle cx="77" cy="46" r="2.2" fill="#f3d5a2" stroke="#15201f" stroke-width="1"/>
  </g>
    </g>
<g transform="translate(288 0)" clip-path="url(#frame-clip)">
      <g transform="translate(0 -0.65)" filter="url(#shadow)">
    <path d="M22 58 Q13.17 69 10.17 77 M37 62 Q36.83 72 32.83 80
      M57 60 Q59.17 70 64.17 77 M69 55 Q77.83 65 83.83 68" fill="none" stroke="#17221f" stroke-width="2" stroke-linecap="round" stroke-linejoin="round"/>
    <path d="M15 55 Q17 38 29 31 Q51 18 73 37 Q82 45 78 58 Q54 70 26 64Z" fill="#344b4d" stroke="#17221f" stroke-width="2" stroke-linecap="round" stroke-linejoin="round"/>
    <path d="M22 55.85 Q19 33.85 29 28.85 Q37 37.85 33 57.85Z" fill="url(#shell)" stroke="#17221f" stroke-width="2" stroke-linecap="round" stroke-linejoin="round"/><path d="M32 55.04 Q29 33.04 39 28.04 Q47 37.04 43 57.04Z" fill="url(#shell)" stroke="#17221f" stroke-width="2" stroke-linecap="round" stroke-linejoin="round"/><path d="M42 54.21 Q39 32.21 49 27.21 Q57 36.21 53 56.21Z" fill="url(#shell)" stroke="#17221f" stroke-width="2" stroke-linecap="round" stroke-linejoin="round"/><path d="M52 53.81 Q49 31.81 59 26.81 Q67 35.81 63 55.81Z" fill="url(#shell)" stroke="#17221f" stroke-width="2" stroke-linecap="round" stroke-linejoin="round"/><path d="M62 54.04 Q59 32.04 69 27.04 Q77 36.04 73 56.04Z" fill="url(#shell)" stroke="#17221f" stroke-width="2" stroke-linecap="round" stroke-linejoin="round"/>
    <path d="M20 49 Q43 25 70 39" fill="none" stroke="#d5edef" stroke-width="2" opacity=".42"/>
    <path d="M72 39 L84 44 L81 57 L70 59Z" fill="#668689" stroke="#17221f" stroke-width="2" stroke-linecap="round" stroke-linejoin="round"/>
    <circle cx="77" cy="46" r="2.2" fill="#f3d5a2" stroke="#15201f" stroke-width="1"/>
  </g>
    </g>
<g transform="translate(384 0)" clip-path="url(#frame-clip)">
      <g transform="translate(0 -0.00)" filter="url(#shadow)">
    <path d="M22 58 Q16.00 69 13.00 77 M37 62 Q34.00 72 30.00 80
      M57 60 Q62.00 70 67.00 77 M69 55 Q75.00 65 81.00 68" fill="none" stroke="#17221f" stroke-width="2" stroke-linecap="round" stroke-linejoin="round"/>
    <path d="M15 55 Q17 38 29 31 Q51 18 73 37 Q82 45 78 58 Q54 70 26 64Z" fill="#344b4d" stroke="#17221f" stroke-width="2" stroke-linecap="round" stroke-linejoin="round"/>
    <path d="M22 55.00 Q19 33.00 29 28.00 Q37 37.00 33 57.00Z" fill="url(#shell)" stroke="#17221f" stroke-width="2" stroke-linecap="round" stroke-linejoin="round"/><path d="M32 54.18 Q29 32.18 39 27.18 Q47 36.18 43 56.18Z" fill="url(#shell)" stroke="#17221f" stroke-width="2" stroke-linecap="round" stroke-linejoin="round"/><path d="M42 53.80 Q39 31.80 49 26.80 Q57 35.80 53 55.80Z" fill="url(#shell)" stroke="#17221f" stroke-width="2" stroke-linecap="round" stroke-linejoin="round"/><path d="M52 54.07 Q49 32.07 59 27.07 Q67 36.07 63 56.07Z" fill="url(#shell)" stroke="#17221f" stroke-width="2" stroke-linecap="round" stroke-linejoin="round"/><path d="M62 54.83 Q59 32.83 69 27.83 Q77 36.83 73 56.83Z" fill="url(#shell)" stroke="#17221f" stroke-width="2" stroke-linecap="round" stroke-linejoin="round"/>
    <path d="M20 49 Q43 25 70 39" fill="none" stroke="#d5edef" stroke-width="2" opacity=".42"/>
    <path d="M72 39 L84 44 L81 57 L70 59Z" fill="#668689" stroke="#17221f" stroke-width="2" stroke-linecap="round" stroke-linejoin="round"/>
    <circle cx="77" cy="46" r="2.2" fill="#f3d5a2" stroke="#15201f" stroke-width="1"/>
  </g>
    </g>
<g transform="translate(480 0)" clip-path="url(#frame-clip)">
      <g transform="translate(0 0.65)" filter="url(#shadow)">
    <path d="M22 58 Q18.83 69 15.83 77 M37 62 Q31.17 72 27.17 80
      M57 60 Q64.83 70 69.83 77 M69 55 Q72.17 65 78.17 68" fill="none" stroke="#17221f" stroke-width="2" stroke-linecap="round" stroke-linejoin="round"/>
    <path d="M15 55 Q17 38 29 31 Q51 18 73 37 Q82 45 78 58 Q54 70 26 64Z" fill="#344b4d" stroke="#17221f" stroke-width="2" stroke-linecap="round" stroke-linejoin="round"/>
    <path d="M22 54.15 Q19 32.15 29 27.15 Q37 36.15 33 56.15Z" fill="url(#shell)" stroke="#17221f" stroke-width="2" stroke-linecap="round" stroke-linejoin="round"/><path d="M32 53.80 Q29 31.80 39 26.80 Q47 35.80 43 55.80Z" fill="url(#shell)" stroke="#17221f" stroke-width="2" stroke-linecap="round" stroke-linejoin="round"/><path d="M42 54.09 Q39 32.09 49 27.09 Q57 36.09 53 56.09Z" fill="url(#shell)" stroke="#17221f" stroke-width="2" stroke-linecap="round" stroke-linejoin="round"/><path d="M52 54.87 Q49 32.87 59 27.87 Q67 36.87 63 56.87Z" fill="url(#shell)" stroke="#17221f" stroke-width="2" stroke-linecap="round" stroke-linejoin="round"/><path d="M62 55.72 Q59 33.72 69 28.72 Q77 37.72 73 57.72Z" fill="url(#shell)" stroke="#17221f" stroke-width="2" stroke-linecap="round" stroke-linejoin="round"/>
    <path d="M20 49 Q43 25 70 39" fill="none" stroke="#d5edef" stroke-width="2" opacity=".42"/>
    <path d="M72 39 L84 44 L81 57 L70 59Z" fill="#668689" stroke="#17221f" stroke-width="2" stroke-linecap="round" stroke-linejoin="round"/>
    <circle cx="77" cy="46" r="2.2" fill="#f3d5a2" stroke="#15201f" stroke-width="1"/>
  </g>
    </g>
<g transform="translate(576 0)" clip-path="url(#frame-clip)">
      <g transform="translate(0 0.00)" filter="url(#shadow)">
    <path d="M22 58 Q20.00 69 17.00 77 M37 62 Q30.00 72 26.00 80
      M57 60 Q66.00 70 71.00 77 M69 55 Q71.00 65 77.00 68" fill="none" stroke="#17221f" stroke-width="2" stroke-linecap="round" stroke-linejoin="round"/>
    <path d="M15 55 Q17 38 29 31 Q51 18 73 37 Q82 45 78 58 Q54 70 26 64Z" fill="#344b4d" stroke="#17221f" stroke-width="2" stroke-linecap="round" stroke-linejoin="round"/>
    <path d="M22 53.80 Q19 31.80 29 26.80 Q37 35.80 33 55.80Z" fill="url(#shell)" stroke="#17221f" stroke-width="2" stroke-linecap="round" stroke-linejoin="round"/><path d="M32 54.12 Q29 32.12 39 27.12 Q47 36.12 43 56.12Z" fill="url(#shell)" stroke="#17221f" stroke-width="2" stroke-linecap="round" stroke-linejoin="round"/><path d="M42 54.92 Q39 32.92 49 27.92 Q57 36.92 53 56.92Z" fill="url(#shell)" stroke="#17221f" stroke-width="2" stroke-linecap="round" stroke-linejoin="round"/><path d="M52 55.75 Q49 33.75 59 28.75 Q67 37.75 63 57.75Z" fill="url(#shell)" stroke="#17221f" stroke-width="2" stroke-linecap="round" stroke-linejoin="round"/><path d="M62 56.19 Q59 34.19 69 29.19 Q77 38.19 73 58.19Z" fill="url(#shell)" stroke="#17221f" stroke-width="2" stroke-linecap="round" stroke-linejoin="round"/>
    <path d="M20 49 Q43 25 70 39" fill="none" stroke="#d5edef" stroke-width="2" opacity=".42"/>
    <path d="M72 39 L84 44 L81 57 L70 59Z" fill="#668689" stroke="#17221f" stroke-width="2" stroke-linecap="round" stroke-linejoin="round"/>
    <circle cx="77" cy="46" r="2.2" fill="#f3d5a2" stroke="#15201f" stroke-width="1"/>
  </g>
    </g>
<g transform="translate(672 0)" clip-path="url(#frame-clip)">
      <g transform="translate(0 -0.65)" filter="url(#shadow)">
    <path d="M22 58 Q18.83 69 15.83 77 M37 62 Q31.17 72 27.17 80
      M57 60 Q64.83 70 69.83 77 M69 55 Q72.17 65 78.17 68" fill="none" stroke="#17221f" stroke-width="2" stroke-linecap="round" stroke-linejoin="round"/>
    <path d="M15 55 Q17 38 29 31 Q51 18 73 37 Q82 45 78 58 Q54 70 26 64Z" fill="#344b4d" stroke="#17221f" stroke-width="2" stroke-linecap="round" stroke-linejoin="round"/>
    <path d="M22 54.15 Q19 32.15 29 27.15 Q37 36.15 33 56.15Z" fill="url(#shell)" stroke="#17221f" stroke-width="2" stroke-linecap="round" stroke-linejoin="round"/><path d="M32 54.96 Q29 32.96 39 27.96 Q47 36.96 43 56.96Z" fill="url(#shell)" stroke="#17221f" stroke-width="2" stroke-linecap="round" stroke-linejoin="round"/><path d="M42 55.79 Q39 33.79 49 28.79 Q57 37.79 53 57.79Z" fill="url(#shell)" stroke="#17221f" stroke-width="2" stroke-linecap="round" stroke-linejoin="round"/><path d="M52 56.19 Q49 34.19 59 29.19 Q67 38.19 63 58.19Z" fill="url(#shell)" stroke="#17221f" stroke-width="2" stroke-linecap="round" stroke-linejoin="round"/><path d="M62 55.96 Q59 33.96 69 28.96 Q77 37.96 73 57.96Z" fill="url(#shell)" stroke="#17221f" stroke-width="2" stroke-linecap="round" stroke-linejoin="round"/>
    <path d="M20 49 Q43 25 70 39" fill="none" stroke="#d5edef" stroke-width="2" opacity=".42"/>
    <path d="M72 39 L84 44 L81 57 L70 59Z" fill="#668689" stroke="#17221f" stroke-width="2" stroke-linecap="round" stroke-linejoin="round"/>
    <circle cx="77" cy="46" r="2.2" fill="#f3d5a2" stroke="#15201f" stroke-width="1"/>
  </g>
    </g>
  </svg>
