<svg xmlns="http://www.w3.org/2000/svg"
    width="768" height="96"
    viewBox="0 0 768 96"
    role="img" aria-label="Splitback exposed phase sprite sheet">
    <defs>
  <linearGradient id="body" x1="0" y1="0" x2="0.9" y2="1">
    <stop offset="0" stop-color="#efc2aa"/>
    <stop offset="0.48" stop-color="#b2786c"/>
    <stop offset="1" stop-color="#714a46"/>
  </linearGradient>
  <linearGradient id="shell" x1="0.12" y1="0" x2="0.84" y2="1">
    <stop offset="0" stop-color="#efc2aa"/>
    <stop offset="0.22" stop-color="#b2786c"/>
    <stop offset="0.7" stop-color="#714a46"/>
    <stop offset="1" stop-color="#111c1a"/>
  </linearGradient>
  <radialGradient id="glow">
    <stop offset="0" stop-color="#ffffff" stop-opacity="0.96"/>
    <stop offset="0.28" stop-color="#ffe2a0" stop-opacity="0.9"/>
    <stop offset="1" stop-color="#c58c72" stop-opacity="0"/>
  </radialGradient>
  <filter id="shadow" x="-40%" y="-40%" width="180%" height="190%">
    <feDropShadow dx="0" dy="2.5" stdDeviation="2.4" flood-color="#020908" flood-opacity="0.76"/>
  </filter>
  <filter id="soft-glow" x="-70%" y="-70%" width="240%" height="240%">
    <feGaussianBlur stdDeviation="2.2" result="blur"/>
    <feMerge><feMergeNode in="blur"/><feMergeNode in="SourceGraphic"/></feMerge>
  </filter>
  <clipPath id="frame-clip"><rect width="96" height="96"/></clipPath></defs>
    <g transform="translate(0 0)" clip-path="url(#frame-clip)">
      <g transform="translate(0 0.00)" filter="url(#shadow)">
    <path d="M23 55 Q17.00 67 12.00 76 M36 57 Q33.00 71 28.00 80
      M58 56 Q63.00 69 70.00 77 M68 52 Q76.00 62 83.00 66" fill="none" stroke="#69463e" stroke-width="2" stroke-linecap="round"/>
    <path d="M18 51 Q25 33 44 32 Q65 31 77 46 Q72 62 51 65 Q29 65 18 51Z" fill="#9a665f" stroke="#17221f" stroke-width="2" stroke-linecap="round" stroke-linejoin="round"/>
    <ellipse cx="28" cy="46.00" rx="9" ry="12" fill="#d4a18e" stroke="#3c2928" stroke-width="1.5"/><ellipse cx="38" cy="47.43" rx="9" ry="12" fill="#b47f72" stroke="#3c2928" stroke-width="1.5"/><ellipse cx="48" cy="48.00" rx="9" ry="12" fill="#d4a18e" stroke="#3c2928" stroke-width="1.5"/><ellipse cx="58" cy="47.35" rx="9" ry="12" fill="#b47f72" stroke="#3c2928" stroke-width="1.5"/>
    <path d="M27 39 Q47 28 68 41" fill="none" stroke="#f7d1bd" stroke-width="2.2" opacity=".7"/>
    <path d="M69 39 L82 44 L79 55 L68 57Z" fill="#b27668" stroke="#17221f" stroke-width="2" stroke-linecap="round" stroke-linejoin="round"/>
    <circle cx="76" cy="46" r="2.4" fill="#ffe08a" stroke="#2a1c1b" stroke-width="1"/>
    <path d="M35 27 L29 19 M48 27 L50 17 M61 30 L68 22" stroke="#93abad" stroke-width="2.4" stroke-linecap="round" opacity=".7"/>
  </g>
    </g>
<g transform="translate(96 0)" clip-path="url(#frame-clip)">
      <g transform="translate(0 -1.41)" filter="url(#shadow)">
    <path d="M23 55 Q9.93 67 4.93 76 M36 57 Q40.07 71 35.07 80
      M58 56 Q55.93 69 62.93 77 M68 52 Q83.07 62 90.07 66" fill="none" stroke="#69463e" stroke-width="2" stroke-linecap="round"/>
    <path d="M18 51 Q25 33 44 32 Q65 31 77 46 Q72 62 51 65 Q29 65 18 51Z" fill="#9a665f" stroke="#17221f" stroke-width="2" stroke-linecap="round" stroke-linejoin="round"/>
    <ellipse cx="28" cy="47.41" rx="9" ry="12" fill="#d4a18e" stroke="#3c2928" stroke-width="1.5"/><ellipse cx="38" cy="48.00" rx="9" ry="12" fill="#b47f72" stroke="#3c2928" stroke-width="1.5"/><ellipse cx="48" cy="47.37" rx="9" ry="12" fill="#d4a18e" stroke="#3c2928" stroke-width="1.5"/><ellipse cx="58" cy="45.91" rx="9" ry="12" fill="#b47f72" stroke="#3c2928" stroke-width="1.5"/>
    <path d="M27 39 Q47 28 68 41" fill="none" stroke="#f7d1bd" stroke-width="2.2" opacity=".7"/>
    <path d="M69 39 L82 44 L79 55 L68 57Z" fill="#b27668" stroke="#17221f" stroke-width="2" stroke-linecap="round" stroke-linejoin="round"/>
    <circle cx="76" cy="46" r="2.4" fill="#ffe08a" stroke="#2a1c1b" stroke-width="1"/>
    <path d="M35 27 L29 19 M48 27 L50 17 M61 30 L68 22" stroke="#93abad" stroke-width="2.4" stroke-linecap="round" opacity=".7"/>
  </g>
    </g>
<g transform="translate(192 0)" clip-path="url(#frame-clip)">
      <g transform="translate(0 -2.00)" filter="url(#shadow)">
    <path d="M23 55 Q7.00 67 2.00 76 M36 57 Q43.00 71 38.00 80
      M58 56 Q53.00 69 60.00 77 M68 52 Q86.00 62 93.00 66" fill="none" stroke="#69463e" stroke-width="2" stroke-linecap="round"/>
    <path d="M18 51 Q25 33 44 32 Q65 31 77 46 Q72 62 51 65 Q29 65 18 51Z" fill="#9a665f" stroke="#17221f" stroke-width="2" stroke-linecap="round" stroke-linejoin="round"/>
    <ellipse cx="28" cy="48.00" rx="9" ry="12" fill="#d4a18e" stroke="#3c2928" stroke-width="1.5"/><ellipse cx="38" cy="47.39" rx="9" ry="12" fill="#b47f72" stroke="#3c2928" stroke-width="1.5"/><ellipse cx="48" cy="45.94" rx="9" ry="12" fill="#d4a18e" stroke="#3c2928" stroke-width="1.5"/><ellipse cx="58" cy="44.53" rx="9" ry="12" fill="#b47f72" stroke="#3c2928" stroke-width="1.5"/>
    <path d="M27 39 Q47 28 68 41" fill="none" stroke="#f7d1bd" stroke-width="2.2" opacity=".7"/>
    <path d="M69 39 L82 44 L79 55 L68 57Z" fill="#b27668" stroke="#17221f" stroke-width="2" stroke-linecap="round" stroke-linejoin="round"/>
    <circle cx="76" cy="46" r="2.4" fill="#ffe08a" stroke="#2a1c1b" stroke-width="1"/>
    <path d="M35 27 L29 19 M48 27 L50 17 M61 30 L68 22" stroke="#93abad" stroke-width="2.4" stroke-linecap="round" opacity=".7"/>
  </g>
    </g>
<g transform="translate(288 0)" clip-path="url(#frame-clip)">
      <g transform="translate(0 -1.41)" filter="url(#shadow)">
    <path d="M23 55 Q9.93 67 4.93 76 M36 57 Q40.07 71 35.07 80
      M58 56 Q55.93 69 62.93 77 M68 52 Q83.07 62 90.07 66" fill="none" stroke="#69463e" stroke-width="2" stroke-linecap="round"/>
    <path d="M18 51 Q25 33 44 32 Q65 31 77 46 Q72 62 51 65 Q29 65 18 51Z" fill="#9a665f" stroke="#17221f" stroke-width="2" stroke-linecap="round" stroke-linejoin="round"/>
    <ellipse cx="28" cy="47.41" rx="9" ry="12" fill="#d4a18e" stroke="#3c2928" stroke-width="1.5"/><ellipse cx="38" cy="45.97" rx="9" ry="12" fill="#b47f72" stroke="#3c2928" stroke-width="1.5"/><ellipse cx="48" cy="44.55" rx="9" ry="12" fill="#d4a18e" stroke="#3c2928" stroke-width="1.5"/><ellipse cx="58" cy="44.00" rx="9" ry="12" fill="#b47f72" stroke="#3c2928" stroke-width="1.5"/>
    <path d="M27 39 Q47 28 68 41" fill="none" stroke="#f7d1bd" stroke-width="2.2" opacity=".7"/>
    <path d="M69 39 L82 44 L79 55 L68 57Z" fill="#b27668" stroke="#17221f" stroke-width="2" stroke-linecap="round" stroke-linejoin="round"/>
    <circle cx="76" cy="46" r="2.4" fill="#ffe08a" stroke="#2a1c1b" stroke-width="1"/>
    <path d="M35 27 L29 19 M48 27 L50 17 M61 30 L68 22" stroke="#93abad" stroke-width="2.4" stroke-linecap="round" opacity=".7"/>
  </g>
    </g>
<g transform="translate(384 0)" clip-path="url(#frame-clip)">
      <g transform="translate(0 -0.00)" filter="url(#shadow)">
    <path d="M23 55 Q17.00 67 12.00 76 M36 57 Q33.00 71 28.00 80
      M58 56 Q63.00 69 70.00 77 M68 52 Q76.00 62 83.00 66" fill="none" stroke="#69463e" stroke-width="2" stroke-linecap="round"/>
    <path d="M18 51 Q25 33 44 32 Q65 31 77 46 Q72 62 51 65 Q29 65 18 51Z" fill="#9a665f" stroke="#17221f" stroke-width="2" stroke-linecap="round" stroke-linejoin="round"/>
    <ellipse cx="28" cy="46.00" rx="9" ry="12" fill="#d4a18e" stroke="#3c2928" stroke-width="1.5"/><ellipse cx="38" cy="44.57" rx="9" ry="12" fill="#b47f72" stroke="#3c2928" stroke-width="1.5"/><ellipse cx="48" cy="44.00" rx="9" ry="12" fill="#d4a18e" stroke="#3c2928" stroke-width="1.5"/><ellipse cx="58" cy="44.65" rx="9" ry="12" fill="#b47f72" stroke="#3c2928" stroke-width="1.5"/>
    <path d="M27 39 Q47 28 68 41" fill="none" stroke="#f7d1bd" stroke-width="2.2" opacity=".7"/>
    <path d="M69 39 L82 44 L79 55 L68 57Z" fill="#b27668" stroke="#17221f" stroke-width="2" stroke-linecap="round" stroke-linejoin="round"/>
    <circle cx="76" cy="46" r="2.4" fill="#ffe08a" stroke="#2a1c1b" stroke-width="1"/>
    <path d="M35 27 L29 19 M48 27 L50 17 M61 30 L68 22" stroke="#93abad" stroke-width="2.4" stroke-linecap="round" opacity=".7"/>
  </g>
    </g>
<g transform="translate(480 0)" clip-path="url(#frame-clip)">
      <g transform="translate(0 -1.41)" filter="url(#shadow)">
    <path d="M23 55 Q24.07 67 19.07 76 M36 57 Q25.93 71 20.93 80
      M58 56 Q70.07 69 77.07 77 M68 52 Q68.93 62 75.93 66" fill="none" stroke="#69463e" stroke-width="2" stroke-linecap="round"/>
    <path d="M18 51 Q25 33 44 32 Q65 31 77 46 Q72 62 51 65 Q29 65 18 51Z" fill="#9a665f" stroke="#17221f" stroke-width="2" stroke-linecap="round" stroke-linejoin="round"/>
    <ellipse cx="28" cy="44.59" rx="9" ry="12" fill="#d4a18e" stroke="#3c2928" stroke-width="1.5"/><ellipse cx="38" cy="44.00" rx="9" ry="12" fill="#b47f72" stroke="#3c2928" stroke-width="1.5"/><ellipse cx="48" cy="44.63" rx="9" ry="12" fill="#d4a18e" stroke="#3c2928" stroke-width="1.5"/><ellipse cx="58" cy="46.09" rx="9" ry="12" fill="#b47f72" stroke="#3c2928" stroke-width="1.5"/>
    <path d="M27 39 Q47 28 68 41" fill="none" stroke="#f7d1bd" stroke-width="2.2" opacity=".7"/>
    <path d="M69 39 L82 44 L79 55 L68 57Z" fill="#b27668" stroke="#17221f" stroke-width="2" stroke-linecap="round" stroke-linejoin="round"/>
    <circle cx="76" cy="46" r="2.4" fill="#ffe08a" stroke="#2a1c1b" stroke-width="1"/>
    <path d="M35 27 L29 19 M48 27 L50 17 M61 30 L68 22" stroke="#93abad" stroke-width="2.4" stroke-linecap="round" opacity=".7"/>
  </g>
    </g>
<g transform="translate(576 0)" clip-path="url(#frame-clip)">
      <g transform="translate(0 -2.00)" filter="url(#shadow)">
    <path d="M23 55 Q27.00 67 22.00 76 M36 57 Q23.00 71 18.00 80
      M58 56 Q73.00 69 80.00 77 M68 52 Q66.00 62 73.00 66" fill="none" stroke="#69463e" stroke-width="2" stroke-linecap="round"/>
    <path d="M18 51 Q25 33 44 32 Q65 31 77 46 Q72 62 51 65 Q29 65 18 51Z" fill="#9a665f" stroke="#17221f" stroke-width="2" stroke-linecap="round" stroke-linejoin="round"/>
    <ellipse cx="28" cy="44.00" rx="9" ry="12" fill="#d4a18e" stroke="#3c2928" stroke-width="1.5"/><ellipse cx="38" cy="44.61" rx="9" ry="12" fill="#b47f72" stroke="#3c2928" stroke-width="1.5"/><ellipse cx="48" cy="46.06" rx="9" ry="12" fill="#d4a18e" stroke="#3c2928" stroke-width="1.5"/><ellipse cx="58" cy="47.47" rx="9" ry="12" fill="#b47f72" stroke="#3c2928" stroke-width="1.5"/>
    <path d="M27 39 Q47 28 68 41" fill="none" stroke="#f7d1bd" stroke-width="2.2" opacity=".7"/>
    <path d="M69 39 L82 44 L79 55 L68 57Z" fill="#b27668" stroke="#17221f" stroke-width="2" stroke-linecap="round" stroke-linejoin="round"/>
    <circle cx="76" cy="46" r="2.4" fill="#ffe08a" stroke="#2a1c1b" stroke-width="1"/>
    <path d="M35 27 L29 19 M48 27 L50 17 M61 30 L68 22" stroke="#93abad" stroke-width="2.4" stroke-linecap="round" opacity=".7"/>
  </g>
    </g>
<g transform="translate(672 0)" clip-path="url(#frame-clip)">
      <g transform="translate(0 -1.41)" filter="url(#shadow)">
    <path d="M23 55 Q24.07 67 19.07 76 M36 57 Q25.93 71 20.93 80
      M58 56 Q70.07 69 77.07 77 M68 52 Q68.93 62 75.93 66" fill="none" stroke="#69463e" stroke-width="2" stroke-linecap="round"/>
    <path d="M18 51 Q25 33 44 32 Q65 31 77 46 Q72 62 51 65 Q29 65 18 51Z" fill="#9a665f" stroke="#17221f" stroke-width="2" stroke-linecap="round" stroke-linejoin="round"/>
    <ellipse cx="28" cy="44.59" rx="9" ry="12" fill="#d4a18e" stroke="#3c2928" stroke-width="1.5"/><ellipse cx="38" cy="46.03" rx="9" ry="12" fill="#b47f72" stroke="#3c2928" stroke-width="1.5"/><ellipse cx="48" cy="47.45" rx="9" ry="12" fill="#d4a18e" stroke="#3c2928" stroke-width="1.5"/><ellipse cx="58" cy="48.00" rx="9" ry="12" fill="#b47f72" stroke="#3c2928" stroke-width="1.5"/>
    <path d="M27 39 Q47 28 68 41" fill="none" stroke="#f7d1bd" stroke-width="2.2" opacity=".7"/>
    <path d="M69 39 L82 44 L79 55 L68 57Z" fill="#b27668" stroke="#17221f" stroke-width="2" stroke-linecap="round" stroke-linejoin="round"/>
    <circle cx="76" cy="46" r="2.4" fill="#ffe08a" stroke="#2a1c1b" stroke-width="1"/>
    <path d="M35 27 L29 19 M48 27 L50 17 M61 30 L68 22" stroke="#93abad" stroke-width="2.4" stroke-linecap="round" opacity=".7"/>
  </g>
    </g>
  </svg>
