<svg xmlns="http://www.w3.org/2000/svg"
    width="512" height="64"
    viewBox="0 0 512 64"
    role="img" aria-label="Sliding hull pressure-door leaf sprite sheet">
    <defs>
  <linearGradient id="body" x1="0" y1="0" x2="0.9" y2="1">
    <stop offset="0" stop-color="#e6d2a4"/>
    <stop offset="0.48" stop-color="#a07d4e"/>
    <stop offset="1" stop-color="#4b3825"/>
  </linearGradient>
  <linearGradient id="shell" x1="0.12" y1="0" x2="0.84" y2="1">
    <stop offset="0" stop-color="#e6d2a4"/>
    <stop offset="0.22" stop-color="#a07d4e"/>
    <stop offset="0.7" stop-color="#4b3825"/>
    <stop offset="1" stop-color="#111c1a"/>
  </linearGradient>
  <radialGradient id="glow">
    <stop offset="0" stop-color="#ffffff" stop-opacity="0.96"/>
    <stop offset="0.28" stop-color="#ffe5a0" stop-opacity="0.9"/>
    <stop offset="1" stop-color="#f2b34b" stop-opacity="0"/>
  </radialGradient>
  <filter id="shadow" x="-40%" y="-40%" width="180%" height="190%">
    <feDropShadow dx="0" dy="2.5" stdDeviation="2.4" flood-color="#020908" flood-opacity="0.76"/>
  </filter>
  <filter id="soft-glow" x="-70%" y="-70%" width="240%" height="240%">
    <feGaussianBlur stdDeviation="2.2" result="blur"/>
    <feMerge><feMergeNode in="blur"/><feMergeNode in="SourceGraphic"/></feMerge>
  </filter>
  <clipPath id="frame-clip"><rect width="64" height="64"/></clipPath></defs>
    <g transform="translate(0 0)" clip-path="url(#frame-clip)">
      <g filter="url(#shadow)">
    <rect x="7.00" y="13" width="24.00" height="41" rx="2" fill="url(#body)" stroke="#291c10" stroke-width="1.6" stroke-linecap="round" stroke-linejoin="round"/>
    <rect x="33.00" y="13" width="24.00" height="41" rx="2" fill="url(#body)" stroke="#291c10" stroke-width="1.6" stroke-linecap="round" stroke-linejoin="round"/>
    <path d="M27.00 17 V50 M37.00 17 V50" stroke="#ef7846" stroke-width="2"/>
    <path d="M10.00 17 H25.00 M39.00 17 H54.00" stroke="#fff0c9" stroke-width="1" opacity=".58"/>
  </g>
    </g>
<g transform="translate(64 0)" clip-path="url(#frame-clip)">
      <g filter="url(#shadow)">
    <rect x="7.14" y="13" width="21.00" height="41" rx="2" fill="url(#body)" stroke="#291c10" stroke-width="1.6" stroke-linecap="round" stroke-linejoin="round"/>
    <rect x="35.86" y="13" width="21.00" height="41" rx="2" fill="url(#body)" stroke="#291c10" stroke-width="1.6" stroke-linecap="round" stroke-linejoin="round"/>
    <path d="M24.14 17 V50 M39.86 17 V50" stroke="#ef7846" stroke-width="2"/>
    <path d="M10.14 17 H22.14 M41.86 17 H53.86" stroke="#fff0c9" stroke-width="1" opacity=".58"/>
  </g>
    </g>
<g transform="translate(128 0)" clip-path="url(#frame-clip)">
      <g filter="url(#shadow)">
    <rect x="7.29" y="13" width="18.00" height="41" rx="2" fill="url(#body)" stroke="#291c10" stroke-width="1.6" stroke-linecap="round" stroke-linejoin="round"/>
    <rect x="38.71" y="13" width="18.00" height="41" rx="2" fill="url(#body)" stroke="#291c10" stroke-width="1.6" stroke-linecap="round" stroke-linejoin="round"/>
    <path d="M21.29 17 V50 M42.71 17 V50" stroke="#ef7846" stroke-width="2"/>
    <path d="M10.29 17 H19.29 M44.71 17 H53.71" stroke="#fff0c9" stroke-width="1" opacity=".58"/>
  </g>
    </g>
<g transform="translate(192 0)" clip-path="url(#frame-clip)">
      <g filter="url(#shadow)">
    <rect x="7.43" y="13" width="15.00" height="41" rx="2" fill="url(#body)" stroke="#291c10" stroke-width="1.6" stroke-linecap="round" stroke-linejoin="round"/>
    <rect x="41.57" y="13" width="15.00" height="41" rx="2" fill="url(#body)" stroke="#291c10" stroke-width="1.6" stroke-linecap="round" stroke-linejoin="round"/>
    <path d="M18.43 17 V50 M45.57 17 V50" stroke="#ef7846" stroke-width="2"/>
    <path d="M10.43 17 H16.43 M47.57 17 H53.57" stroke="#fff0c9" stroke-width="1" opacity=".58"/>
  </g>
    </g>
<g transform="translate(256 0)" clip-path="url(#frame-clip)">
      <g filter="url(#shadow)">
    <rect x="7.57" y="13" width="12.00" height="41" rx="2" fill="url(#body)" stroke="#291c10" stroke-width="1.6" stroke-linecap="round" stroke-linejoin="round"/>
    <rect x="44.43" y="13" width="12.00" height="41" rx="2" fill="url(#body)" stroke="#291c10" stroke-width="1.6" stroke-linecap="round" stroke-linejoin="round"/>
    <path d="M15.57 17 V50 M48.43 17 V50" stroke="#ef7846" stroke-width="2"/>
    <path d="M10.57 17 H13.57 M50.43 17 H53.43" stroke="#fff0c9" stroke-width="1" opacity=".58"/>
  </g>
    </g>
<g transform="translate(320 0)" clip-path="url(#frame-clip)">
      <g filter="url(#shadow)">
    <rect x="7.71" y="13" width="9.00" height="41" rx="2" fill="url(#body)" stroke="#291c10" stroke-width="1.6" stroke-linecap="round" stroke-linejoin="round"/>
    <rect x="47.29" y="13" width="9.00" height="41" rx="2" fill="url(#body)" stroke="#291c10" stroke-width="1.6" stroke-linecap="round" stroke-linejoin="round"/>
    <path d="M12.71 17 V50 M51.29 17 V50" stroke="#ef7846" stroke-width="2"/>
    <path d="M10.71 17 H10.71 M53.29 17 H53.29" stroke="#fff0c9" stroke-width="1" opacity=".58"/>
  </g>
    </g>
<g transform="translate(384 0)" clip-path="url(#frame-clip)">
      <g filter="url(#shadow)">
    <rect x="7.86" y="13" width="6.00" height="41" rx="2" fill="url(#body)" stroke="#291c10" stroke-width="1.6" stroke-linecap="round" stroke-linejoin="round"/>
    <rect x="50.14" y="13" width="6.00" height="41" rx="2" fill="url(#body)" stroke="#291c10" stroke-width="1.6" stroke-linecap="round" stroke-linejoin="round"/>
    <path d="M9.86 17 V50 M54.14 17 V50" stroke="#ef7846" stroke-width="2"/>
    <path d="M10.86 17 H7.86 M56.14 17 H53.14" stroke="#fff0c9" stroke-width="1" opacity=".58"/>
  </g>
    </g>
<g transform="translate(448 0)" clip-path="url(#frame-clip)">
      <g filter="url(#shadow)">
    <rect x="8.00" y="13" width="3.00" height="41" rx="2" fill="url(#body)" stroke="#291c10" stroke-width="1.6" stroke-linecap="round" stroke-linejoin="round"/>
    <rect x="53.00" y="13" width="3.00" height="41" rx="2" fill="url(#body)" stroke="#291c10" stroke-width="1.6" stroke-linecap="round" stroke-linejoin="round"/>
    <path d="M7.00 17 V50 M57.00 17 V50" stroke="#ef7846" stroke-width="2"/>
    <path d="M11.00 17 H5.00 M59.00 17 H53.00" stroke="#fff0c9" stroke-width="1" opacity=".58"/>
  </g>
    </g>
  </svg>
