<svg xmlns="http://www.w3.org/2000/svg"
    width="64" height="64"
    viewBox="0 0 64 64"
    role="img" aria-label="Floor trapdoor frame sprite sheet">
    <defs>
  <linearGradient id="body" x1="0" y1="0" x2="0.9" y2="1">
    <stop offset="0" stop-color="#80949a"/>
    <stop offset="0.48" stop-color="#3f5964"/>
    <stop offset="1" stop-color="#192b32"/>
  </linearGradient>
  <linearGradient id="shell" x1="0.12" y1="0" x2="0.84" y2="1">
    <stop offset="0" stop-color="#80949a"/>
    <stop offset="0.22" stop-color="#3f5964"/>
    <stop offset="0.7" stop-color="#192b32"/>
    <stop offset="1" stop-color="#111c1a"/>
  </linearGradient>
  <radialGradient id="glow">
    <stop offset="0" stop-color="#ffffff" stop-opacity="0.96"/>
    <stop offset="0.28" stop-color="#d5996a" stop-opacity="0.9"/>
    <stop offset="1" stop-color="#b5664b" stop-opacity="0"/>
  </radialGradient>
  <filter id="shadow" x="-40%" y="-40%" width="180%" height="190%">
    <feDropShadow dx="0" dy="2.5" stdDeviation="2.4" flood-color="#020908" flood-opacity="0.76"/>
  </filter>
  <filter id="soft-glow" x="-70%" y="-70%" width="240%" height="240%">
    <feGaussianBlur stdDeviation="2.2" result="blur"/>
    <feMerge><feMergeNode in="blur"/><feMergeNode in="SourceGraphic"/></feMerge>
  </filter>
  <clipPath id="frame-clip"><rect width="64" height="64"/></clipPath></defs>
    <g transform="translate(0 0)" clip-path="url(#frame-clip)">
      <g filter="url(#shadow)">
    <path d="M7 29 L13 24 H20 L24 29 L21 40 H10 L7 36Z" fill="url(#shell)" stroke="#0b1215" stroke-width="1.6" stroke-linecap="round" stroke-linejoin="round"/>
    <path d="M57 29 L51 24 H44 L40 29 L43 40 H54 L57 36Z" fill="url(#shell)" stroke="#0b1215" stroke-width="1.6" stroke-linecap="round" stroke-linejoin="round"/>
    <path d="M13 27 H20 L24 30 M51 27 H44 L40 30" fill="none" stroke="#c3d2d3" stroke-width="1" opacity=".68"/>
    <path d="M24 29 L21 40 M40 29 L43 40" stroke="#c46d4d" stroke-width="1.4" opacity=".78"/>
    <rect x="10" y="29" width="10" height="7" rx="2" fill="#263a42" stroke="#c46d4d" stroke-width="1"/>
      <rect x="44" y="29" width="10" height="7" rx="2" fill="#263a42" stroke="#c46d4d" stroke-width="1"/>
      <circle cx="15" cy="32.5" r="1.2" fill="#d5996a"/><circle cx="49" cy="32.5" r="1.2" fill="#d5996a"/>
  </g>
    </g>
  </svg>
