<svg xmlns="http://www.w3.org/2000/svg"
    width="64" height="64"
    viewBox="0 0 64 64"
    role="img" aria-label="Lived-in hull wiring sprite sheet">
    <defs>
  <linearGradient id="body" x1="0" y1="0" x2="0.9" y2="1">
    <stop offset="0" stop-color="#e6d2a4"/>
    <stop offset="0.48" stop-color="#a07d4e"/>
    <stop offset="1" stop-color="#4b3825"/>
  </linearGradient>
  <linearGradient id="shell" x1="0.12" y1="0" x2="0.84" y2="1">
    <stop offset="0" stop-color="#e6d2a4"/>
    <stop offset="0.22" stop-color="#a07d4e"/>
    <stop offset="0.7" stop-color="#4b3825"/>
    <stop offset="1" stop-color="#111c1a"/>
  </linearGradient>
  <radialGradient id="glow">
    <stop offset="0" stop-color="#ffffff" stop-opacity="0.96"/>
    <stop offset="0.28" stop-color="#ffe5a0" stop-opacity="0.9"/>
    <stop offset="1" stop-color="#f2b34b" stop-opacity="0"/>
  </radialGradient>
  <filter id="shadow" x="-40%" y="-40%" width="180%" height="190%">
    <feDropShadow dx="0" dy="2.5" stdDeviation="2.4" flood-color="#020908" flood-opacity="0.76"/>
  </filter>
  <filter id="soft-glow" x="-70%" y="-70%" width="240%" height="240%">
    <feGaussianBlur stdDeviation="2.2" result="blur"/>
    <feMerge><feMergeNode in="blur"/><feMergeNode in="SourceGraphic"/></feMerge>
  </filter>
  <clipPath id="frame-clip"><rect width="64" height="64"/></clipPath></defs>
    <g transform="translate(0 0)" clip-path="url(#frame-clip)">
      <g filter="url(#shadow)">
  <path d="M8 24 C18 24 19 30 28 30 S41 23 56 25" fill="none" stroke="#070403" stroke-width="5" opacity=".9"/>
  <path d="M8 23 C18 23 20 28 28 28 S42 21 56 23" fill="none" stroke="#f2b34b" stroke-width="1.7" opacity=".95"/>
  <path d="M9 27 C20 27 20 33 31 33 S43 27 56 29" fill="none" stroke="#57a8ad" stroke-width="1.5" opacity=".9"/>
  <rect x="27" y="24" width="11" height="13" rx="2" fill="url(#body)" stroke="#291c10" stroke-width="1.6" stroke-linecap="round" stroke-linejoin="round"/>
  <circle cx="32.5" cy="28" r="1.5" fill="#ffe16e" stroke="#291c10" stroke-width=".6"/>
  <path d="M30 33 H35" stroke="#fff0c9" stroke-width="1" opacity=".65"/>
</g>
    </g>
  </svg>
