<svg xmlns="http://www.w3.org/2000/svg"
    width="512" height="64"
    viewBox="0 0 512 64"
    role="img" aria-label="Sliding trapdoor leaf sprite sheet">
    <defs>
  <linearGradient id="body" x1="0" y1="0" x2="0.9" y2="1">
    <stop offset="0" stop-color="#80949a"/>
    <stop offset="0.48" stop-color="#3f5964"/>
    <stop offset="1" stop-color="#192b32"/>
  </linearGradient>
  <linearGradient id="shell" x1="0.12" y1="0" x2="0.84" y2="1">
    <stop offset="0" stop-color="#80949a"/>
    <stop offset="0.22" stop-color="#3f5964"/>
    <stop offset="0.7" stop-color="#192b32"/>
    <stop offset="1" stop-color="#111c1a"/>
  </linearGradient>
  <radialGradient id="glow">
    <stop offset="0" stop-color="#ffffff" stop-opacity="0.96"/>
    <stop offset="0.28" stop-color="#d5996a" stop-opacity="0.9"/>
    <stop offset="1" stop-color="#b5664b" stop-opacity="0"/>
  </radialGradient>
  <filter id="shadow" x="-40%" y="-40%" width="180%" height="190%">
    <feDropShadow dx="0" dy="2.5" stdDeviation="2.4" flood-color="#020908" flood-opacity="0.76"/>
  </filter>
  <filter id="soft-glow" x="-70%" y="-70%" width="240%" height="240%">
    <feGaussianBlur stdDeviation="2.2" result="blur"/>
    <feMerge><feMergeNode in="blur"/><feMergeNode in="SourceGraphic"/></feMerge>
  </filter>
  <clipPath id="frame-clip"><rect width="64" height="64"/></clipPath></defs>
    <g transform="translate(0 0)" clip-path="url(#frame-clip)">
      <g filter="url(#shadow)">
    <rect x="7.00" y="27" width="24.00" height="10" rx="2" fill="url(#body)" stroke="#c46d4d" stroke-width="1.5"/>
    <rect x="33.00" y="27" width="24.00" height="10" rx="2" fill="url(#body)" stroke="#c46d4d" stroke-width="1.5"/>
    <path d="M28.00 29 V35 M36.00 29 V35" stroke="#c3d2d3" stroke-width="1"/>
  </g>
    </g>
<g transform="translate(64 0)" clip-path="url(#frame-clip)">
      <g filter="url(#shadow)">
    <rect x="7.14" y="27" width="21.00" height="10" rx="2" fill="url(#body)" stroke="#c46d4d" stroke-width="1.5"/>
    <rect x="35.86" y="27" width="21.00" height="10" rx="2" fill="url(#body)" stroke="#c46d4d" stroke-width="1.5"/>
    <path d="M25.14 29 V35 M38.86 29 V35" stroke="#c3d2d3" stroke-width="1"/>
  </g>
    </g>
<g transform="translate(128 0)" clip-path="url(#frame-clip)">
      <g filter="url(#shadow)">
    <rect x="7.29" y="27" width="18.00" height="10" rx="2" fill="url(#body)" stroke="#c46d4d" stroke-width="1.5"/>
    <rect x="38.71" y="27" width="18.00" height="10" rx="2" fill="url(#body)" stroke="#c46d4d" stroke-width="1.5"/>
    <path d="M22.29 29 V35 M41.71 29 V35" stroke="#c3d2d3" stroke-width="1"/>
  </g>
    </g>
<g transform="translate(192 0)" clip-path="url(#frame-clip)">
      <g filter="url(#shadow)">
    <rect x="7.43" y="27" width="15.00" height="10" rx="2" fill="url(#body)" stroke="#c46d4d" stroke-width="1.5"/>
    <rect x="41.57" y="27" width="15.00" height="10" rx="2" fill="url(#body)" stroke="#c46d4d" stroke-width="1.5"/>
    <path d="M19.43 29 V35 M44.57 29 V35" stroke="#c3d2d3" stroke-width="1"/>
  </g>
    </g>
<g transform="translate(256 0)" clip-path="url(#frame-clip)">
      <g filter="url(#shadow)">
    <rect x="7.57" y="27" width="12.00" height="10" rx="2" fill="url(#body)" stroke="#c46d4d" stroke-width="1.5"/>
    <rect x="44.43" y="27" width="12.00" height="10" rx="2" fill="url(#body)" stroke="#c46d4d" stroke-width="1.5"/>
    <path d="M16.57 29 V35 M47.43 29 V35" stroke="#c3d2d3" stroke-width="1"/>
  </g>
    </g>
<g transform="translate(320 0)" clip-path="url(#frame-clip)">
      <g filter="url(#shadow)">
    <rect x="7.71" y="27" width="9.00" height="10" rx="2" fill="url(#body)" stroke="#c46d4d" stroke-width="1.5"/>
    <rect x="47.29" y="27" width="9.00" height="10" rx="2" fill="url(#body)" stroke="#c46d4d" stroke-width="1.5"/>
    <path d="M13.71 29 V35 M50.29 29 V35" stroke="#c3d2d3" stroke-width="1"/>
  </g>
    </g>
<g transform="translate(384 0)" clip-path="url(#frame-clip)">
      <g filter="url(#shadow)">
    <rect x="7.86" y="27" width="6.00" height="10" rx="2" fill="url(#body)" stroke="#c46d4d" stroke-width="1.5"/>
    <rect x="50.14" y="27" width="6.00" height="10" rx="2" fill="url(#body)" stroke="#c46d4d" stroke-width="1.5"/>
    <path d="M10.86 29 V35 M53.14 29 V35" stroke="#c3d2d3" stroke-width="1"/>
  </g>
    </g>
<g transform="translate(448 0)" clip-path="url(#frame-clip)">
      <g filter="url(#shadow)">
    <rect x="8.00" y="27" width="3.00" height="10" rx="2" fill="url(#body)" stroke="#c46d4d" stroke-width="1.5"/>
    <rect x="53.00" y="27" width="3.00" height="10" rx="2" fill="url(#body)" stroke="#c46d4d" stroke-width="1.5"/>
    <path d="M8.00 29 V35 M56.00 29 V35" stroke="#c3d2d3" stroke-width="1"/>
  </g>
    </g>
  </svg>
