<svg xmlns="http://www.w3.org/2000/svg"
    width="64" height="64"
    viewBox="0 0 64 64"
    role="img" aria-label="Vertical ladder-shaft span sprite sheet">
    <defs>
  <linearGradient id="body" x1="0" y1="0" x2="0.9" y2="1">
    <stop offset="0" stop-color="#80949a"/>
    <stop offset="0.48" stop-color="#3f5964"/>
    <stop offset="1" stop-color="#192b32"/>
  </linearGradient>
  <linearGradient id="shell" x1="0.12" y1="0" x2="0.84" y2="1">
    <stop offset="0" stop-color="#80949a"/>
    <stop offset="0.22" stop-color="#3f5964"/>
    <stop offset="0.7" stop-color="#192b32"/>
    <stop offset="1" stop-color="#111c1a"/>
  </linearGradient>
  <radialGradient id="glow">
    <stop offset="0" stop-color="#ffffff" stop-opacity="0.96"/>
    <stop offset="0.28" stop-color="#d5996a" stop-opacity="0.9"/>
    <stop offset="1" stop-color="#b5664b" stop-opacity="0"/>
  </radialGradient>
  <filter id="shadow" x="-40%" y="-40%" width="180%" height="190%">
    <feDropShadow dx="0" dy="2.5" stdDeviation="2.4" flood-color="#020908" flood-opacity="0.76"/>
  </filter>
  <filter id="soft-glow" x="-70%" y="-70%" width="240%" height="240%">
    <feGaussianBlur stdDeviation="2.2" result="blur"/>
    <feMerge><feMergeNode in="blur"/><feMergeNode in="SourceGraphic"/></feMerge>
  </filter>
  <clipPath id="frame-clip"><rect width="64" height="64"/></clipPath></defs>
    <g transform="translate(0 0)" clip-path="url(#frame-clip)">
      <g>
    <rect x="15" y="24" width="34" height="16" fill="#071115"/>
    <path d="M8 24 H15 V40 H8Z M49 24 H56 V40 H49Z" fill="url(#shell)" stroke="#0b1215" stroke-width="1"/>
    <path d="M15 24 V40 M49 24 V40" stroke="#5e8e99" stroke-width="1.3" opacity=".76"/>
    <path d="M11 25 V39 M53 25 V39" stroke="#c3d2d3" stroke-width=".8" opacity=".56"/>
    <path d="M27 24 V40 M37 24 V40" stroke="#58727d" stroke-width="3.4"/><path d="M27 28 H37 M27 35 H37" stroke="#b96a4d" stroke-width="1.8"/>
  </g>
    </g>
  </svg>
